<svg xmlns="http://www.w3.org/2000/svg" xmlns:xlink="http://www.w3.org/1999/xlink" width="500" zoomAndPan="magnify" viewBox="0 0 375 374.999991" height="500" preserveAspectRatio="xMidYMid meet" version="1.0"><defs><clipPath id="13dc3e8fa9"><path d="M 223 87.832031 L 242 87.832031 L 242 107 L 223 107 Z M 223 87.832031 " clip-rule="nonzero"/></clipPath><clipPath id="138c2f149d"><path d="M 285.03125 219.453125 L 303.351562 219.453125 L 303.351562 237.875 L 285.03125 237.875 Z M 285.03125 219.453125 " clip-rule="nonzero"/></clipPath><clipPath id="63c3fdceba"><path d="M 71.605469 163.457031 L 195.273438 163.457031 L 195.273438 287.304688 L 71.605469 287.304688 Z M 71.605469 163.457031 " clip-rule="nonzero"/></clipPath></defs><path stroke-linecap="round" transform="matrix(0.00906655, 0, 0, -0.00907538, 71.604792, 287.304941)" fill="none" stroke-linejoin="round" d="M 9895.226539 16658.241576 L 9895.226539 15314.89279 " stroke="#5acbf2" stroke-width="571.42902" stroke-opacity="1" stroke-miterlimit="10"/><path stroke-linecap="round" transform="matrix(0.00906655, 0, 0, -0.00907538, 71.604792, 287.304941)" fill="none" stroke-linejoin="round" d="M 8808.642613 19678.94705 L 10977.071201 19678.94705 L 10977.071201 15314.89279 " stroke="#5acbf2" stroke-width="571.42902" stroke-opacity="1" stroke-miterlimit="10"/><path stroke-linecap="round" transform="matrix(0.00906655, 0, 0, -0.00907538, 71.604792, 287.304941)" fill="none" stroke-linejoin="round" d="M 12058.915863 16658.241576 L 12058.915863 15314.89279 " stroke="#5acbf2" stroke-width="571.42902" stroke-opacity="1" stroke-miterlimit="10"/><path stroke-linecap="round" transform="matrix(0.00906655, 0, 0, -0.00907538, 71.604792, 287.304941)" fill="none" stroke-linejoin="round" d="M 13140.760525 16658.241576 L 13140.760525 15314.89279 " stroke="#5acbf2" stroke-width="571.42902" stroke-opacity="1" stroke-miterlimit="10"/><path stroke-linecap="round" transform="matrix(0.00906655, 0, 0, -0.00907538, 71.604792, 287.304941)" fill="none" stroke-linejoin="round" d="M 14222.605187 16658.241576 L 14222.605187 15314.89279 " stroke="#5acbf2" stroke-width="571.42902" stroke-opacity="1" stroke-miterlimit="10"/><path stroke-linecap="round" transform="matrix(0.00906655, 0, 0, -0.00907538, 71.604792, 287.304941)" fill="none" stroke-linejoin="round" d="M 15304.449849 15314.89279 L 15304.449849 18734.169547 L 17748.617419 18734.169547 L 17748.617419 20248.826509 " stroke="#5acbf2" stroke-width="571.42902" stroke-opacity="1" stroke-miterlimit="10"/><path stroke-linecap="round" transform="matrix(0.00906655, 0, 0, -0.00907538, 71.604792, 287.304941)" fill="none" stroke-linejoin="round" d="M 16386.294511 16658.241576 L 16386.294511 15314.89279 " stroke="#5acbf2" stroke-width="571.42902" stroke-opacity="1" stroke-miterlimit="10"/><path stroke-linecap="round" transform="matrix(0.00906655, 0, 0, -0.00907538, 71.604792, 287.304941)" fill="none" stroke-linejoin="round" d="M 17468.139174 16658.241576 L 17468.139174 15314.89279 " stroke="#5acbf2" stroke-width="571.42902" stroke-opacity="1" stroke-miterlimit="10"/><path stroke-linecap="round" transform="matrix(0.00906655, 0, 0, -0.00907538, 71.604792, 287.304941)" fill="none" stroke-linejoin="round" d="M 13140.760525 5985.053541 L 13140.760525 4641.274332 " stroke="#5acbf2" stroke-width="571.42902" stroke-opacity="1" stroke-miterlimit="10"/><path stroke-linecap="round" transform="matrix(0.00906655, 0, 0, -0.00907538, 71.604792, 287.304941)" fill="none" stroke-linejoin="round" d="M 14222.605187 5985.053541 L 14222.605187 4641.274332 " stroke="#5acbf2" stroke-width="571.42902" stroke-opacity="1" stroke-miterlimit="10"/><path stroke-linecap="round" transform="matrix(0.00906655, 0, 0, -0.00907538, 71.604792, 287.304941)" fill="none" stroke-linejoin="round" d="M 15304.449849 5985.053541 L 15304.449849 1295.169408 L 17910.614071 1295.169408 " stroke="#5acbf2" stroke-width="571.42902" stroke-opacity="1" stroke-miterlimit="10"/><path stroke-linecap="round" transform="matrix(0.00906655, 0, 0, -0.00907538, 71.604792, 287.304941)" fill="none" stroke-linejoin="round" d="M 16386.294511 5985.053541 L 16386.294511 4641.274332 " stroke="#5acbf2" stroke-width="571.42902" stroke-opacity="1" stroke-miterlimit="10"/><path stroke-linecap="round" transform="matrix(0.00906655, 0, 0, -0.00907538, 71.604792, 287.304941)" fill="none" stroke-linejoin="round" d="M 17468.139174 5985.053541 L 17468.139174 4641.274332 " stroke="#5acbf2" stroke-width="571.42902" stroke-opacity="1" stroke-miterlimit="10"/><path stroke-linecap="round" transform="matrix(0.00906655, 0, 0, -0.00907538, 71.604792, 287.304941)" fill="none" stroke-linejoin="round" d="M 9003.814111 14433.817824 L 7660.017416 14433.817824 " stroke="#5acbf2" stroke-width="571.42902" stroke-opacity="1" stroke-miterlimit="10"/><path stroke-linecap="round" transform="matrix(0.00906655, 0, 0, -0.00907538, 71.604792, 287.304941)" fill="none" stroke-linejoin="round" d="M 9003.814111 13351.735527 L 7660.017416 13351.735527 " stroke="#5acbf2" stroke-width="571.42902" stroke-opacity="1" stroke-miterlimit="10"/><path stroke-linecap="round" transform="matrix(0.00906655, 0, 0, -0.00907538, 71.604792, 287.304941)" fill="none" stroke-linejoin="round" d="M 9003.814111 12270.083653 L 7853.896388 12270.083653 " stroke="#5acbf2" stroke-width="571.42902" stroke-opacity="1" stroke-miterlimit="10"/><path stroke-linecap="round" transform="matrix(0.00906655, 0, 0, -0.00907538, 71.604792, 287.304941)" fill="none" stroke-linejoin="round" d="M 19703.779139 14433.817824 L 18359.982443 14433.817824 " stroke="#5acbf2" stroke-width="571.42902" stroke-opacity="1" stroke-miterlimit="10"/><path stroke-linecap="round" transform="matrix(0.00906655, 0, 0, -0.00907538, 71.604792, 287.304941)" fill="none" stroke-linejoin="round" d="M 18359.982443 13351.735527 L 21918.307838 13351.735527 L 21918.307838 16317.346914 L 23626.166157 16317.346914 " stroke="#5acbf2" stroke-width="571.42902" stroke-opacity="1" stroke-miterlimit="10"/><path stroke-linecap="round" transform="matrix(0.00906655, 0, 0, -0.00907538, 71.604792, 287.304941)" fill="none" stroke-linejoin="round" d="M 19703.779139 12270.083653 L 18359.982443 12270.083653 " stroke="#5acbf2" stroke-width="571.42902" stroke-opacity="1" stroke-miterlimit="10"/><path stroke-linecap="round" transform="matrix(0.00906655, 0, 0, -0.00907538, 71.604792, 287.304941)" fill="none" stroke-linejoin="round" d="M 19703.779139 11188.001356 L 18359.982443 11188.001356 " stroke="#5acbf2" stroke-width="571.42902" stroke-opacity="1" stroke-miterlimit="10"/><path stroke-linecap="round" transform="matrix(0.00906655, 0, 0, -0.00907538, 71.604792, 287.304941)" fill="none" stroke-linejoin="round" d="M 19703.779139 10106.349481 L 18359.982443 10106.349481 " stroke="#5acbf2" stroke-width="571.42902" stroke-opacity="1" stroke-miterlimit="10"/><path stroke-linecap="round" transform="matrix(0.00906655, 0, 0, -0.00907538, 71.604792, 287.304941)" fill="none" stroke-linejoin="round" d="M 18359.982443 9024.697607 L 22020.417429 9024.697607 L 22020.417429 6461.100884 L 23833.401236 6461.100884 " stroke="#5acbf2" stroke-width="571.42902" stroke-opacity="1" stroke-miterlimit="10"/><path stroke-linecap="round" transform="matrix(0.00906655, 0, 0, -0.00907538, 71.604792, 287.304941)" fill="none" stroke-linejoin="round" d="M 19703.779139 7942.61531 L 18359.982443 7942.61531 " stroke="#5acbf2" stroke-width="571.42902" stroke-opacity="1" stroke-miterlimit="10"/><path stroke-linecap="round" transform="matrix(0.00906655, 0, 0, -0.00907538, 71.604792, 287.304941)" fill="none" stroke-linejoin="round" d="M 19703.779139 6860.963435 L 18359.982443 6860.963435 " stroke="#5acbf2" stroke-width="571.42902" stroke-opacity="1" stroke-miterlimit="10"/><path stroke-linecap="round" transform="matrix(0.00906655, 0, 0, -0.00907538, 71.604792, 287.304941)" fill="none" stroke-linejoin="round" d="M 16542.259373 7807.462628 L 17052.807332 7296.551058 " stroke="#5acbf2" stroke-width="571.42902" stroke-opacity="1" stroke-miterlimit="10"/><path stroke-linecap="round" transform="matrix(0.00906655, 0, 0, -0.00907538, 71.604792, 287.304941)" fill="none" stroke-linejoin="round" d="M 10351.488385 13997.799779 L 10862.467186 13486.888209 " stroke="#5acbf2" stroke-width="571.42902" stroke-opacity="1" stroke-miterlimit="10"/><path stroke-linecap="round" transform="matrix(0.00906655, 0, 0, -0.00907538, 71.604792, 287.304941)" fill="none" stroke-linejoin="round" d="M 17052.807332 13997.799779 L 16542.259373 13486.888209 " stroke="#5acbf2" stroke-width="571.42902" stroke-opacity="1" stroke-miterlimit="10"/><path stroke-linecap="round" transform="matrix(0.00906655, 0, 0, -0.00907538, 71.604792, 287.304941)" fill="none" stroke-linejoin="round" d="M 10862.467186 13486.888209 L 10862.467186 11809.961944 C 11003.352573 11797.47969 11139.929537 11737.220533 11245.916708 11630.906162 L 11643.584021 11232.334879 C 11849.957416 11024.871208 11883.563104 10701.193449 11722.858979 10455.852594 L 11102.446269 9507.631711 C 10983.102991 9325.993393 10967.161831 9094.42606 11062.808791 8899.444644 C 11151.993118 8717.806327 11229.975548 8529.711671 11295.463557 8336.021523 C 11365.259986 8131.140388 11539.320219 7979.631649 11751.294561 7934.437281 L 12348.010952 7807.462628 L 16542.259373 7807.462628 L 16542.259373 13486.888209 Z M 10862.467186 13486.888209 " stroke="#5acbf2" stroke-width="571.42902" stroke-opacity="1" stroke-miterlimit="10"/><path stroke-linecap="round" transform="matrix(0.00906655, 0, 0, -0.00907538, 71.604792, 287.304941)" fill="none" stroke-linejoin="round" d="M 17706.82573 15314.89279 L 9656.539982 15314.89279 C 9295.925095 15314.89279 9003.383269 15022.205454 9003.383269 14661.511355 L 9003.383269 11020.997405 C 9176.150975 10968.485854 9365.290683 10994.311207 9519.532176 11094.599662 L 10469.969979 11712.686447 C 10715.119168 11872.373214 11039.112472 11838.369833 11245.916708 11630.906162 L 11643.584021 11232.334879 C 11849.957416 11024.871208 11883.563104 10701.193449 11722.858979 10455.852594 L 11102.446269 9507.631711 C 10983.102991 9325.993393 10967.161831 9094.42606 11062.808791 8899.444644 C 11151.993118 8717.806327 11229.975548 8529.711671 11295.463557 8336.021523 C 11365.259986 8131.140388 11539.320219 7979.631649 11751.294561 7934.437281 L 12861.574806 7698.1353 C 13147.654 7637.015297 13352.304025 7384.357259 13351.873183 7091.669923 L 13351.011499 6527.385957 C 13350.580657 6296.249046 13222.189693 6090.937488 13027.449037 5985.053541 L 17706.82573 5985.053541 C 18067.871459 5985.053541 18359.982443 6277.310454 18359.982443 6638.004553 L 18359.982443 14661.511355 C 18359.982443 15022.205454 18067.871459 15314.89279 17706.82573 15314.89279 Z M 17706.82573 15314.89279 " stroke="#5acbf2" stroke-width="571.42902" stroke-opacity="1" stroke-miterlimit="10"/><g clip-path="url(#13dc3e8fa9)"><path stroke-linecap="round" transform="matrix(0.00906655, 0, 0, -0.00907538, 71.604792, 287.304941)" fill="none" stroke-linejoin="round" d="M 18469.416352 20969.784285 C 18469.416352 20571.643424 18146.715575 20248.826509 17748.617419 20248.826509 C 17350.519264 20248.826509 17027.818487 20571.643424 17027.818487 20969.784285 C 17027.818487 21367.925146 17350.519264 21690.74206 17748.617419 21690.74206 C 18146.715575 21690.74206 18469.416352 21367.925146 18469.416352 20969.784285 Z M 18469.416352 20969.784285 " stroke="#5acbf2" stroke-width="571.42902" stroke-opacity="1" stroke-miterlimit="10"/></g><path stroke-linecap="round" transform="matrix(0.00906655, 0, 0, -0.00907538, 71.604792, 287.304941)" fill="none" stroke-linejoin="round" d="M 25068.194865 16317.346914 C 25068.194865 16715.487776 24745.494087 17038.30469 24347.395932 17038.30469 C 23949.297777 17038.30469 23626.166157 16715.487776 23626.166157 16317.346914 C 23626.166157 15919.206053 23949.297777 15596.389139 24347.395932 15596.389139 C 24745.494087 15596.389139 25068.194865 15919.206053 25068.194865 16317.346914 Z M 25068.194865 16317.346914 " stroke="#5acbf2" stroke-width="571.42902" stroke-opacity="1" stroke-miterlimit="10"/><g clip-path="url(#138c2f149d)"><path stroke-linecap="round" transform="matrix(0.00906655, 0, 0, -0.00907539, 71.604792, 287.304941)" fill="none" stroke-linejoin="round" d="M 24554.200168 5740.572923 C 24952.298324 5740.572923 25274.999101 6062.959381 25274.999101 6461.1002 C 25274.999101 6859.241019 24952.298324 7182.057899 24554.200168 7182.057899 C 24156.102013 7182.057899 23833.401236 6859.241019 23833.401236 6461.1002 C 23833.401236 6062.959381 24156.102013 5740.572923 24554.200168 5740.572923 Z M 24554.200168 5740.572923 " stroke="#5acbf2" stroke-width="571.42902" stroke-opacity="1" stroke-miterlimit="10"/></g><path stroke-linecap="round" transform="matrix(0.00906655, 0, 0, -0.00907538, 71.604792, 287.304941)" fill="none" stroke-linejoin="round" d="M 8087.84368 20399.474403 C 8485.941835 20399.474403 8808.642613 20077.087911 8808.642613 19678.94705 C 8808.642613 19280.806189 8485.941835 18957.989274 8087.84368 18957.989274 C 7689.745525 18957.989274 7366.613905 19280.806189 7366.613905 19678.94705 C 7366.613905 20077.087911 7689.745525 20399.474403 8087.84368 20399.474403 Z M 8087.84368 20399.474403 " stroke="#5acbf2" stroke-width="571.42902" stroke-opacity="1" stroke-miterlimit="10"/><path stroke-linecap="round" transform="matrix(0.00906655, 0, 0, -0.00907538, 71.604792, 287.304941)" fill="none" stroke-linejoin="round" d="M 18631.843846 574.211633 C 18233.745691 574.211633 17910.614071 897.028547 17910.614071 1295.169408 C 17910.614071 1693.310269 18233.745691 2016.127184 18631.843846 2016.127184 C 19029.942001 2016.127184 19352.642779 1693.310269 19352.642779 1295.169408 C 19352.642779 897.028547 19029.942001 574.211633 18631.843846 574.211633 Z M 18631.843846 574.211633 " stroke="#5acbf2" stroke-width="571.42902" stroke-opacity="1" stroke-miterlimit="10"/><g clip-path="url(#63c3fdceba)"><path stroke-linecap="round" transform="matrix(0.00906655, 0, 0, -0.00907539, 71.604792, 287.304941)" fill="none" stroke-linejoin="round" d="M 6815.566784 4533.237791 C 5553.199257 4534.959481 4531.672497 5559.795471 4533.395866 6821.794261 C 4535.119234 8084.223474 5559.661889 9106.046506 6822.029416 9104.324816 C 8084.396943 9102.603126 9105.923703 8077.767137 9104.200334 6815.768346 C 9102.476965 5553.339133 8077.934311 4531.516101 6815.566784 4533.237791 Z M 12861.574806 7698.134485 L 11751.294561 7934.436442 C 11539.320219 7979.630805 11365.259986 8131.139527 11295.463557 8336.020641 C 11229.975548 8529.710769 11151.993118 8717.805404 11062.808791 8899.443702 C 10967.161831 9094.425098 10983.102991 9325.992407 11102.446269 9507.630705 L 11722.858979 10455.851488 C 11883.563104 10701.192317 11849.957416 11024.870042 11643.584021 11231.903268 L 11245.916708 11630.904932 C 11039.112472 11838.36858 10715.119168 11872.371958 10469.969979 11712.685208 L 9519.532176 11094.598488 C 9337.285942 10976.232299 9105.923703 10960.737089 8911.183047 11057.15173 C 8730.22934 11146.679612 8542.382158 11225.016508 8348.934029 11291.301574 C 8143.853161 11361.460443 7992.627563 11536.21198 7948.250821 11747.979854 L 7715.165212 12859.330767 C 7654.84731 13145.561734 7402.804647 13350.442847 7110.262821 13350.87327 L 6545.859592 13351.734115 C 6253.317766 13352.164538 6000.413418 13147.713847 5939.233832 12861.48288 L 5703.132328 11750.992811 C 5657.893901 11539.65536 5506.237461 11364.903823 5301.156594 11295.605799 C 5107.708464 11230.181578 4919.43044 11152.275104 4738.045891 11063.177645 C 4543.305235 10967.193426 4311.942996 10983.119059 4130.127604 11102.346093 L 3181.413169 11723.015348 C 2936.694823 11883.562944 2612.701519 11850.420411 2405.46644 11643.387185 L 2006.506601 11245.676788 C 1799.271522 11039.073985 1765.234992 10715.39626 1924.646591 10469.625008 L 2542.905089 9519.682535 C 2661.386683 9337.183392 2676.897001 9106.046506 2580.388357 8911.495533 C 2490.773188 8730.287657 2412.359915 8542.193022 2346.010223 8348.933316 C 2276.213793 8144.052203 2101.291876 7992.973903 1889.317534 7948.209962 L 778.606447 7714.920963 C 492.096411 7655.092235 287.015543 7402.864646 286.584701 7110.177341 L 285.723016 6545.893434 C 285.292174 6253.206129 489.9422 6000.117695 776.021394 5939.428122 L 1886.301638 5703.126165 C 2097.845139 5657.931802 2272.336213 5506.42308 2341.701801 5301.111544 C 2407.620651 5107.421416 2485.17224 4919.757203 2574.356567 4738.118905 C 2670.434368 4543.137509 2654.062366 4312.000623 2535.14993 4129.931902 L 1914.306379 3181.711119 C 1754.033096 2936.800713 1787.207942 2612.692565 1994.012178 2405.228917 L 2391.679491 2006.657675 C 2598.483728 1799.194027 2922.477032 1765.190649 3167.62622 1924.877399 L 4118.064024 2542.964119 C 4300.310257 2661.330308 4531.672497 2676.825519 4726.413153 2580.410877 C 4907.36686 2490.882996 5095.214041 2412.546099 5288.662171 2346.261033 C 5493.312197 2276.102165 5644.968637 2101.350627 5689.345379 1889.582753 L 5922.430987 778.23184 C 5982.318047 492.000873 6234.791553 287.11976 6527.333379 286.689337 L 7091.736608 285.828492 C 7384.278434 285.39807 7637.182782 489.84876 7697.931526 776.079728 L 7934.463871 1886.139373 C 7979.271456 2097.907247 8131.358738 2272.228362 8336.439606 2341.956808 C 8529.887736 2407.381029 8717.734917 2485.287503 8899.550308 2574.384962 C 9094.290964 2670.369181 9325.653204 2654.013126 9507.468595 2535.216514 L 10456.18303 1914.547259 C 10700.901377 1753.999664 11024.894681 1787.572619 11232.129759 1994.175422 L 11631.089599 2391.885819 C 11838.324677 2598.488622 11872.361208 2922.166348 11712.949609 3167.937599 L 11094.69111 4117.880072 C 10976.209516 4299.948793 10960.699199 4531.516101 11057.207842 4726.067074 C 11146.823012 4907.705372 11225.236285 5095.369585 11291.155135 5288.629291 C 11361.382407 5493.510404 11536.304324 5644.588704 11748.278666 5689.352645 L 12858.989753 5922.641644 C 13145.499789 5982.470372 13350.580657 6234.697962 13351.011499 6527.385266 L 13351.873183 7091.669173 C 13352.304025 7384.356478 13147.654 7637.014489 12861.574806 7698.134485 Z M 12861.574806 7698.134485 " stroke="#5acbf2" stroke-width="571.42902" stroke-opacity="1" stroke-miterlimit="10"/></g></svg>