<svg xmlns="http://www.w3.org/2000/svg" xmlns:xlink="http://www.w3.org/1999/xlink" width="500" zoomAndPan="magnify" viewBox="0 0 375 374.999991" height="500" preserveAspectRatio="xMidYMid meet" version="1.0"><defs><clipPath id="f402fe35e5"><path d="M 71.800781 149 L 159 149 L 159 272 L 71.800781 272 Z M 71.800781 149 " clip-rule="nonzero"/></clipPath><clipPath id="1512a64f64"><path d="M 71.800781 149 L 164 149 L 164 202 L 71.800781 202 Z M 71.800781 149 " clip-rule="nonzero"/></clipPath><clipPath id="2c785b8236"><path d="M 207 141 L 303.550781 141 L 303.550781 278.492188 L 207 278.492188 Z M 207 141 " clip-rule="nonzero"/></clipPath><clipPath id="af0f7fd8f3"><path d="M 201 144 L 298 144 L 298 278.492188 L 201 278.492188 Z M 201 144 " clip-rule="nonzero"/></clipPath><clipPath id="d97705bcf6"><path d="M 201 141 L 303.550781 141 L 303.550781 200 L 201 200 Z M 201 141 " clip-rule="nonzero"/></clipPath></defs><path fill="#55549c" d="M 145.351562 249.820312 L 145.351562 252.035156 L 114.921875 269.921875 L 96.699219 259.125 L 98.421875 253.960938 L 145.351562 249.820312 " fill-opacity="1" fill-rule="nonzero"/><path fill="#c1bade" d="M 114.921875 267.351562 L 145.351562 249.820312 L 126.328125 238.867188 L 95.882812 256.390625 L 114.921875 267.351562 " fill-opacity="1" fill-rule="nonzero"/><path fill="#b1a8d7" d="M 117.476562 260.027344 L 127.59375 254.203125 L 127.570312 227.1875 L 117.476562 227.1875 L 117.476562 260.027344 " fill-opacity="1" fill-rule="nonzero"/><path fill="#55549c" d="M 112.371094 249.582031 L 112.371094 257.125 L 117.476562 260.027344 L 117.464844 247.683594 L 112.371094 249.582031 " fill-opacity="1" fill-rule="nonzero"/><g clip-path="url(#f402fe35e5)"><path fill="#55549c" d="M 71.789062 268.980469 L 76.859375 271.601562 L 158.03125 219.695312 L 158.03125 149.0625 L 71.789062 198.648438 L 71.789062 268.980469 " fill-opacity="1" fill-rule="nonzero"/></g><path fill="#d7ceeb" d="M 76.859375 271.601562 L 163.105469 222.316406 L 163.105469 151.980469 L 76.859375 201.269531 L 76.859375 271.601562 " fill-opacity="1" fill-rule="nonzero"/><path fill="#3c3673" d="M 80.542969 266.492188 L 159.417969 221.417969 L 159.417969 157.09375 L 80.542969 202.167969 L 80.542969 266.492188 " fill-opacity="1" fill-rule="nonzero"/><path fill="#4a4793" d="M 83.703125 262.113281 L 156.261719 220.644531 L 156.261719 161.476562 L 83.703125 202.9375 L 83.703125 262.113281 " fill-opacity="1" fill-rule="nonzero"/><g clip-path="url(#1512a64f64)"><path fill="#8b87c8" d="M 158.03125 149.0625 L 163.105469 151.980469 L 76.859375 201.269531 L 71.789062 198.648438 L 158.03125 149.0625 " fill-opacity="1" fill-rule="nonzero"/></g><path fill="#55549c" d="M 221.449219 254.160156 L 221.449219 256.632812 L 255.410156 276.59375 L 275.753906 264.546875 L 273.835938 258.78125 L 221.449219 254.160156 " fill-opacity="1" fill-rule="nonzero"/><path fill="#c1bade" d="M 255.410156 273.726562 L 221.449219 254.160156 L 242.683594 241.9375 L 276.664062 261.496094 L 255.410156 273.726562 " fill-opacity="1" fill-rule="nonzero"/><path fill="#b1a8d7" d="M 252.5625 265.550781 L 241.265625 259.046875 L 241.296875 228.894531 L 252.5625 228.894531 L 252.5625 265.550781 " fill-opacity="1" fill-rule="nonzero"/><path fill="#55549c" d="M 258.265625 253.890625 L 258.265625 262.3125 L 252.5625 265.550781 L 252.574219 251.777344 L 258.265625 253.890625 " fill-opacity="1" fill-rule="nonzero"/><g clip-path="url(#2c785b8236)"><path fill="#55549c" d="M 303.558594 275.546875 L 297.898438 278.472656 L 207.296875 220.535156 L 207.296875 141.691406 L 303.558594 197.042969 L 303.558594 275.546875 " fill-opacity="1" fill-rule="nonzero"/></g><g clip-path="url(#af0f7fd8f3)"><path fill="#d7ceeb" d="M 297.898438 278.472656 L 201.632812 223.457031 L 201.632812 144.953125 L 297.898438 199.964844 L 297.898438 278.472656 " fill-opacity="1" fill-rule="nonzero"/></g><path fill="#3c3673" d="M 293.785156 272.765625 L 205.742188 222.453125 L 205.742188 150.65625 L 293.785156 200.96875 L 293.785156 272.765625 " fill-opacity="1" fill-rule="nonzero"/><path fill="#4a4793" d="M 290.261719 267.878906 L 209.269531 221.59375 L 209.269531 155.546875 L 290.261719 201.832031 L 290.261719 267.878906 " fill-opacity="1" fill-rule="nonzero"/><g clip-path="url(#d97705bcf6)"><path fill="#8b87c8" d="M 207.296875 141.691406 L 201.632812 144.953125 L 297.898438 199.964844 L 303.558594 197.042969 L 207.296875 141.691406 " fill-opacity="1" fill-rule="nonzero"/></g><path fill="#9284ca" d="M 227.785156 150.230469 C 225.367188 149.457031 223.40625 146.894531 223.40625 144.515625 C 223.40625 142.128906 225.367188 140.859375 227.785156 141.683594 C 230.207031 142.507812 232.164062 145.066406 232.164062 147.402344 C 232.164062 149.738281 230.207031 151.003906 227.785156 150.230469 M 221.945312 155.125 L 224.863281 168.375 L 227.785156 167.257812 C 227.785156 167.257812 236.011719 160.253906 236.925781 151.359375 C 236.976562 151.003906 237 150.632812 237 150.242188 C 237 145.296875 232.96875 140.230469 227.785156 138.429688 C 222.601562 136.628906 215.082031 140.082031 215.648438 145.039062 C 215.695312 145.441406 218.429688 145.335938 218.476562 145.742188 L 221.945312 155.125 " fill-opacity="1" fill-rule="nonzero"/><path fill="#7772b1" d="M 227.785156 150.230469 C 225.367188 149.457031 223.40625 146.894531 223.40625 144.515625 C 223.40625 143.101562 224.09375 142.089844 225.160156 141.660156 L 224.570312 140.832031 L 219.144531 140.832031 L 218.730469 141.792969 L 220.121094 150.195312 L 220.78125 151.976562 C 222.226562 152.335938 227.363281 153.597656 227.90625 153.480469 C 228.316406 153.394531 229.242188 151.636719 229.855469 150.390625 C 229.238281 150.515625 228.535156 150.46875 227.785156 150.230469 " fill-opacity="1" fill-rule="nonzero"/><path fill="#7772b1" d="M 227.785156 167.257812 C 227.785156 167.257812 236.011719 160.253906 236.925781 151.359375 C 236.9375 151.273438 236.941406 151.1875 236.949219 151.097656 C 234.960938 152.613281 232.914062 152.199219 232.914062 152.199219 L 222.769531 158.863281 L 224.863281 168.375 L 227.785156 167.257812 " fill-opacity="1" fill-rule="nonzero"/><path fill="#d7ceeb" d="M 224.863281 151.351562 C 222.445312 150.574219 220.484375 148.015625 220.484375 145.632812 C 220.484375 143.246094 222.445312 141.980469 224.863281 142.804688 C 227.285156 143.625 229.242188 146.1875 229.242188 148.519531 C 229.242188 150.855469 227.285156 152.125 224.863281 151.351562 M 224.863281 139.546875 C 219.679688 137.746094 215.480469 140.472656 215.480469 145.644531 C 215.480469 146.046875 215.507812 146.457031 215.554688 146.863281 C 216.472656 156.714844 224.863281 168.375 224.863281 168.375 C 224.863281 168.375 233.257812 161.777344 234.171875 152.882812 C 234.222656 152.523438 234.25 152.152344 234.25 151.765625 C 234.25 146.816406 230.046875 141.347656 224.863281 139.546875 " fill-opacity="1" fill-rule="nonzero"/><path fill="#8077b8" d="M 224.867188 168.371094 L 224.867188 168.371094 M 224.867188 168.371094 C 224.871094 168.371094 224.871094 168.371094 224.871094 168.371094 C 224.871094 168.371094 224.871094 168.371094 224.867188 168.371094 M 224.871094 168.371094 L 224.871094 168.367188 L 224.871094 168.371094 M 224.871094 168.367188 C 224.875 168.363281 224.878906 168.359375 224.886719 168.355469 C 224.878906 168.359375 224.875 168.363281 224.871094 168.367188 M 224.890625 168.355469 C 225.007812 168.257812 225.554688 167.8125 226.324219 167.078125 C 225.554688 167.8125 225.007812 168.257812 224.890625 168.355469 M 226.324219 167.078125 C 226.328125 167.074219 226.332031 167.070312 226.332031 167.070312 C 226.332031 167.070312 226.328125 167.074219 226.324219 167.078125 M 226.335938 167.066406 C 226.339844 167.066406 226.339844 167.0625 226.339844 167.0625 C 226.339844 167.0625 226.339844 167.066406 226.335938 167.066406 " fill-opacity="1" fill-rule="nonzero"/><path fill="#c1b6e1" d="M 224.863281 168.375 C 224.863281 168.375 216.472656 156.714844 215.554688 146.863281 C 215.507812 146.457031 215.480469 146.046875 215.480469 145.644531 C 215.480469 145.636719 215.480469 145.628906 215.480469 145.621094 C 215.480469 145.621094 215.480469 145.617188 215.480469 145.613281 C 215.480469 145.613281 215.480469 145.609375 215.480469 145.601562 C 215.480469 145.089844 215.527344 144.605469 215.609375 144.140625 C 216.9375 149.742188 220.566406 158.628906 230.441406 162.265625 C 228.996094 164.355469 227.441406 166.003906 226.339844 167.0625 C 226.339844 167.0625 226.339844 167.066406 226.335938 167.066406 C 226.335938 167.066406 226.332031 167.066406 226.332031 167.070312 C 226.332031 167.070312 226.328125 167.074219 226.324219 167.078125 C 225.554688 167.8125 225.007812 168.257812 224.890625 168.355469 C 224.890625 168.355469 224.886719 168.355469 224.886719 168.355469 C 224.878906 168.359375 224.875 168.363281 224.871094 168.367188 L 224.871094 168.371094 C 224.871094 168.371094 224.871094 168.371094 224.867188 168.371094 C 224.867188 168.371094 224.867188 168.371094 224.867188 168.375 L 224.863281 168.375 " fill-opacity="1" fill-rule="nonzero"/><path fill="#3c3673" d="M 155.769531 160.339844 L 157.996094 160.339844 C 160.875 158.535156 165.917969 157.664062 170.367188 158.355469 C 172.671875 158.714844 174.511719 159.433594 175.722656 160.339844 L 177.316406 160.339844 L 177.316406 162.90625 C 177.328125 163.441406 177.160156 163.988281 176.785156 164.523438 C 174.992188 167.101562 168.808594 168.515625 162.976562 167.683594 C 158.671875 167.074219 155.984375 165.414062 155.78125 163.546875 L 155.769531 163.546875 L 155.769531 160.339844 " fill-opacity="1" fill-rule="nonzero"/><path fill="#6763a2" d="M 156.558594 158.835938 C 154.265625 161.410156 157.136719 164.175781 162.976562 165.003906 C 168.808594 165.835938 174.992188 164.417969 176.785156 161.84375 C 178.574219 159.269531 175.707031 156.507812 170.367188 155.675781 C 165.035156 154.84375 158.851562 156.257812 156.558594 158.835938 " fill-opacity="1" fill-rule="nonzero"/><path fill="#d7ceeb" d="M 176.007812 160.882812 C 176.105469 160.613281 176.1875 160.34375 176.253906 160.070312 C 177.421875 156.015625 177.511719 152.277344 173.996094 149.492188 C 170.835938 146.980469 170.699219 142.644531 170.699219 142.644531 C 170.699219 142.644531 170.144531 140.953125 173.238281 138.480469 C 176.15625 136.148438 177.855469 130.769531 176.746094 126.914062 L 167.511719 125.113281 L 158.277344 123.359375 C 158.128906 123.941406 158 124.496094 157.894531 125.027344 L 156.894531 124.835938 C 155.628906 129.730469 156.675781 133.777344 160.21875 137.054688 C 162.894531 139.535156 162.941406 142.707031 162.941406 142.707031 C 162.941406 142.707031 162.574219 146.449219 160.011719 148.359375 C 154.859375 152.203125 156.023438 157.308594 156.832031 159.765625 C 156.832031 159.765625 157.917969 162.3125 163.839844 163.019531 C 167.117188 163.414062 171.402344 163.277344 176.007812 160.882812 " fill-opacity="1" fill-rule="nonzero"/><path fill="#9284ca" d="M 160.410156 133.566406 C 158.746094 135.207031 162.660156 139.535156 165.417969 140.332031 C 169.253906 141.445312 172.640625 138.140625 173.964844 136.472656 C 175.289062 134.808594 173.464844 132.8125 169.890625 132.023438 C 166.320312 131.230469 162.070312 131.917969 160.410156 133.566406 " fill-opacity="1" fill-rule="nonzero"/><path fill="#9284ca" d="M 162.59375 138.648438 C 162.59375 138.648438 167.703125 143.273438 160.734375 151.398438 L 172.054688 151.40625 C 172.054688 151.40625 165.96875 147.421875 170.769531 139.355469 L 162.59375 138.648438 " fill-opacity="1" fill-rule="nonzero"/><path fill="#ffffff" d="M 157.457031 129.789062 C 157.457031 129.789062 159.429688 133.976562 161.398438 136.347656 C 163.367188 138.71875 166.125 142.882812 164.628906 146.535156 C 164.628906 146.535156 167.25 142.484375 164.628906 136.125 C 162.007812 129.765625 162.582031 128.953125 162.503906 127.945312 L 157.457031 129.789062 " fill-opacity="1" fill-rule="nonzero"/><path fill="#9284ca" d="M 157.539062 156.894531 C 157.039062 159.71875 158.777344 161.523438 163.632812 162.214844 C 168.484375 162.902344 173.628906 161.726562 175.121094 159.585938 C 176.609375 157.441406 173.359375 149.8125 167.101562 149.015625 C 162.644531 148.445312 158.246094 152.875 157.539062 156.894531 " fill-opacity="1" fill-rule="nonzero"/><path fill="#3c3673" d="M 155.769531 125.261719 L 157.996094 125.261719 C 160.875 123.457031 165.917969 122.585938 170.367188 123.28125 C 172.671875 123.636719 174.511719 124.355469 175.722656 125.261719 L 177.316406 125.261719 L 177.316406 127.828125 C 177.328125 128.363281 177.160156 128.910156 176.785156 129.449219 C 174.992188 132.023438 168.808594 133.4375 162.976562 132.609375 C 158.671875 131.996094 155.984375 130.332031 155.78125 128.46875 L 155.769531 128.46875 L 155.769531 125.261719 " fill-opacity="1" fill-rule="nonzero"/><path fill="#6763a2" d="M 156.558594 123.757812 C 154.265625 126.335938 157.136719 129.097656 162.976562 129.925781 C 168.808594 130.753906 174.992188 129.339844 176.785156 126.765625 C 178.574219 124.1875 175.707031 121.429688 170.367188 120.597656 C 165.035156 119.765625 158.851562 121.179688 156.558594 123.757812 " fill-opacity="1" fill-rule="nonzero"/><path fill="#ffffff" d="M 162.816406 160.972656 C 162.816406 160.972656 159.660156 161.300781 157.457031 158.492188 C 157.457031 158.492188 155.804688 153.773438 163.367188 149.015625 C 163.367188 149.015625 160.054688 156.714844 162.816406 160.972656 " fill-opacity="1" fill-rule="nonzero"/><path fill="#9284ca" d="M 204.128906 152.722656 L 182.636719 140.347656 L 182.636719 115.523438 L 204.128906 127.875 L 204.128906 152.722656 " fill-opacity="1" fill-rule="nonzero"/><path fill="#6d69ab" d="M 211.292969 148.617188 L 204.128906 152.722656 L 204.128906 125.867188 L 211.292969 123.730469 L 211.292969 148.617188 " fill-opacity="1" fill-rule="nonzero"/><path fill="#b6aede" d="M 204.128906 127.875 L 182.636719 115.523438 L 189.804688 111.347656 L 211.292969 123.71875 L 204.128906 127.875 " fill-opacity="1" fill-rule="nonzero"/><path fill="#a598d3" d="M 193.628906 116.773438 L 193.644531 108.023438 C 193.652344 103.863281 195.828125 101.542969 198.492188 102.847656 C 201.160156 104.152344 202.671875 109.109375 202.636719 113.359375 L 203.203125 122.582031 L 203.363281 124.984375 L 206.050781 124.089844 L 206.132812 114.375 C 206.195312 107.5625 202.78125 100.351562 198.515625 98.3125 C 194.25 96.269531 188.308594 99.382812 188.308594 105.976562 L 190.78125 115.261719 L 190.945312 117.667969 L 193.628906 116.773438 " fill-opacity="1" fill-rule="nonzero"/><path fill="#d7ceeb" d="M 190.945312 117.667969 L 190.957031 108.914062 C 190.96875 104.757812 193.140625 102.433594 195.808594 103.738281 C 198.472656 105.046875 200.617188 109.566406 200.582031 113.8125 L 200.515625 123.472656 L 203.363281 124.984375 L 203.449219 115.269531 C 203.511719 108.453125 200.09375 101.246094 195.832031 99.203125 C 191.566406 97.160156 188.097656 100.863281 188.097656 107.457031 L 188.097656 116.15625 L 190.945312 117.667969 " fill-opacity="1" fill-rule="nonzero"/><path fill="#6d69ab" d="M 200.847656 136.300781 C 200.847656 140.460938 197.726562 142.691406 193.878906 141.28125 C 190.035156 139.871094 186.917969 135.4375 186.917969 131.378906 C 186.917969 127.320312 190.035156 125.089844 193.878906 126.398438 C 197.726562 127.707031 200.847656 132.140625 200.847656 136.300781 " fill-opacity="1" fill-rule="nonzero"/><path fill="#a598d3" d="M 199.652344 136.601562 C 199.652344 140.761719 196.535156 142.988281 192.6875 141.582031 C 188.84375 140.167969 185.726562 135.734375 185.726562 131.675781 C 185.726562 127.617188 188.84375 125.390625 192.6875 126.695312 C 196.535156 128.003906 199.652344 132.441406 199.652344 136.601562 " fill-opacity="1" fill-rule="nonzero"/><path fill="#3c3673" d="M 194.464844 134.363281 C 194.464844 133.09375 193.445312 131.464844 192.1875 130.722656 C 190.929688 129.984375 189.914062 130.390625 189.914062 131.628906 C 189.914062 132.574219 190.507812 133.746094 191.347656 134.589844 L 191.347656 138.601562 L 193.03125 139.667969 L 193.03125 135.621094 C 193.867188 135.796875 194.464844 135.332031 194.464844 134.363281 " fill-opacity="1" fill-rule="nonzero"/><path fill="#7a74b8" d="M 156.382812 173.667969 L 158.136719 174.652344 L 158.136719 177.34375 L 156.382812 176.359375 Z M 159.761719 175.566406 L 161.515625 176.550781 L 161.515625 179.246094 L 159.761719 178.257812 Z M 163.140625 177.460938 L 164.898438 178.445312 L 164.898438 181.144531 L 163.140625 180.160156 Z M 166.519531 179.355469 L 168.273438 180.339844 L 168.273438 183.042969 L 166.519531 182.058594 Z M 169.898438 181.253906 L 171.652344 182.238281 L 171.652344 184.945312 L 169.898438 183.960938 Z M 171.652344 215.101562 L 169.898438 214.09375 L 169.898438 211.390625 L 171.652344 212.394531 Z M 168.273438 213.160156 L 166.519531 212.152344 L 166.519531 209.449219 L 168.273438 210.457031 Z M 164.898438 211.214844 L 163.140625 210.207031 L 163.140625 207.511719 L 164.898438 208.515625 Z M 161.515625 209.273438 L 159.761719 208.265625 L 159.761719 205.570312 L 161.515625 206.578125 Z M 158.136719 207.332031 L 156.382812 206.320312 L 156.382812 203.632812 L 158.136719 204.636719 Z M 174.316406 183.734375 L 174.316406 182.863281 L 153.722656 171.3125 L 153.722656 172.175781 L 154.757812 172.757812 L 154.757812 175.445312 L 153.722656 174.859375 L 153.722656 202.105469 L 154.757812 202.699219 L 154.757812 205.386719 L 153.722656 204.789062 L 153.722656 205.941406 L 174.316406 217.796875 L 174.316406 216.632812 L 173.277344 216.039062 L 173.277344 213.828125 L 174.316406 213.925781 L 174.316406 186.441406 L 173.277344 185.859375 L 173.277344 183.152344 L 174.316406 183.734375 " fill-opacity="1" fill-rule="nonzero"/><path fill="#4a4893" d="M 151.894531 205.851562 L 172.488281 217.695312 L 174.316406 216.632812 L 153.722656 204.789062 L 151.894531 205.851562 " fill-opacity="1" fill-rule="nonzero"/><path fill="#302a57" d="M 168.074219 215.15625 L 169.863281 214.058594 L 169.863281 213.003906 L 168.042969 212.390625 L 168.074219 215.15625 " fill-opacity="1" fill-rule="nonzero"/><path fill="#302a57" d="M 164.695312 213.214844 L 166.492188 212.117188 L 166.492188 211.0625 L 164.667969 210.449219 L 164.695312 213.214844 " fill-opacity="1" fill-rule="nonzero"/><path fill="#302a57" d="M 161.308594 211.285156 L 163.101562 210.1875 L 163.101562 209.132812 L 161.28125 208.519531 L 161.308594 211.285156 " fill-opacity="1" fill-rule="nonzero"/><path fill="#302a57" d="M 157.929688 209.34375 L 159.71875 208.246094 L 159.71875 207.191406 L 157.894531 206.578125 L 157.929688 209.34375 " fill-opacity="1" fill-rule="nonzero"/><path fill="#302a57" d="M 154.550781 207.394531 L 156.347656 206.296875 L 156.347656 205.242188 L 154.523438 204.628906 L 154.550781 207.394531 " fill-opacity="1" fill-rule="nonzero"/><path fill="#262242" d="M 171.453125 217.101562 L 173.277344 216.039062 L 173.285156 213.96875 L 171.453125 214.394531 L 171.453125 217.101562 " fill-opacity="1" fill-rule="nonzero"/><path fill="#4a4893" d="M 151.894531 175.921875 L 153.722656 174.859375 L 174.316406 186.441406 L 172.488281 187.507812 L 151.894531 175.921875 " fill-opacity="1" fill-rule="nonzero"/><path fill="#302a57" d="M 154.554688 177.421875 L 156.375 176.324219 L 156.375 175.269531 L 154.554688 174.65625 L 154.554688 177.421875 " fill-opacity="1" fill-rule="nonzero"/><path fill="#302a57" d="M 157.933594 179.320312 L 159.785156 178.269531 L 159.785156 177.210938 L 157.929688 176.597656 L 157.933594 179.320312 " fill-opacity="1" fill-rule="nonzero"/><path fill="#302a57" d="M 161.3125 181.222656 L 163.167969 180.089844 L 163.167969 179.03125 L 161.207031 177.78125 L 161.3125 181.222656 " fill-opacity="1" fill-rule="nonzero"/><path fill="#302a57" d="M 164.691406 183.105469 L 166.511719 182.007812 L 166.511719 180.953125 L 164.691406 180.339844 L 164.691406 183.105469 " fill-opacity="1" fill-rule="nonzero"/><path fill="#302a57" d="M 168.074219 185.023438 L 169.855469 183.910156 L 169.855469 182.851562 L 168.035156 182.242188 L 168.074219 185.023438 " fill-opacity="1" fill-rule="nonzero"/><path fill="#302a57" d="M 171.453125 186.921875 L 173.277344 185.859375 L 173.277344 183.925781 L 171.453125 184.214844 L 171.453125 186.921875 " fill-opacity="1" fill-rule="nonzero"/><path fill="#ffffff" d="M 172.488281 214.117188 L 151.894531 202.304688 L 151.894531 177.074219 L 172.488281 188.664062 L 172.488281 214.117188 " fill-opacity="1" fill-rule="nonzero"/><path fill="#3c3673" d="M 169.824219 186.007812 L 168.074219 185.023438 L 168.074219 182.316406 L 169.824219 183.300781 Z M 166.445312 184.109375 L 164.691406 183.121094 L 164.691406 180.421875 L 166.445312 181.40625 Z M 163.066406 182.207031 L 161.3125 181.222656 L 161.3125 178.523438 L 163.066406 179.507812 Z M 159.6875 180.308594 L 157.933594 179.320312 L 157.933594 176.628906 L 159.6875 177.613281 Z M 156.308594 178.40625 L 154.554688 177.421875 L 154.554688 174.734375 L 156.308594 175.714844 Z M 171.453125 186.921875 L 171.453125 184.214844 L 172.488281 184.796875 L 172.488281 183.925781 L 151.894531 172.375 L 151.894531 173.238281 L 152.925781 173.820312 L 152.925781 176.507812 L 151.894531 175.921875 L 151.894531 177.074219 L 172.488281 188.664062 L 172.488281 187.507812 L 171.453125 186.921875 " fill-opacity="1" fill-rule="nonzero"/><path fill="#3c3673" d="M 169.824219 216.164062 L 168.074219 215.15625 L 168.074219 212.453125 L 169.824219 213.460938 Z M 166.445312 214.222656 L 164.691406 213.214844 L 164.691406 210.515625 L 166.445312 211.519531 Z M 163.066406 212.277344 L 161.3125 211.269531 L 161.3125 208.574219 L 163.066406 209.582031 Z M 159.6875 210.335938 L 157.933594 209.324219 L 157.933594 206.636719 L 159.6875 207.640625 Z M 156.308594 208.390625 L 154.554688 207.382812 L 154.554688 204.695312 L 156.308594 205.703125 Z M 171.453125 217.101562 L 171.453125 214.394531 L 172.488281 214.984375 L 172.488281 214.117188 L 151.894531 202.304688 L 151.894531 203.167969 L 152.925781 203.761719 L 152.925781 206.449219 L 151.894531 205.851562 L 151.894531 207.003906 L 172.488281 218.859375 L 172.488281 217.695312 L 171.453125 217.101562 " fill-opacity="1" fill-rule="nonzero"/><path fill="#302a57" d="M 158.300781 199.199219 L 157.453125 187.96875 L 158.300781 187.460938 L 166.078125 197.75 L 165.234375 198.257812 L 158.300781 199.199219 " fill-opacity="1" fill-rule="nonzero"/><path fill="#3c3673" d="M 157.453125 199.703125 L 157.453125 187.96875 L 165.234375 198.257812 Z M 157.453125 199.703125 " fill-opacity="1" fill-rule="nonzero"/><path fill="#4a4893" d="M 151.894531 172.375 L 153.722656 171.3125 L 174.316406 182.863281 L 172.488281 183.925781 L 151.894531 172.375 " fill-opacity="1" fill-rule="nonzero"/><path fill="#302a57" d="M 172.488281 184.796875 L 174.316406 183.734375 L 174.316406 182.863281 L 172.488281 183.925781 L 172.488281 184.796875 " fill-opacity="1" fill-rule="nonzero"/><path fill="#302a57" d="M 172.488281 187.507812 L 172.488281 188.664062 L 174.316406 187.601562 L 174.316406 186.441406 L 172.488281 187.507812 " fill-opacity="1" fill-rule="nonzero"/><path fill="#302a57" d="M 172.488281 214.117188 L 172.488281 214.984375 L 174.316406 213.957031 L 174.316406 213.054688 L 172.488281 214.117188 " fill-opacity="1" fill-rule="nonzero"/><path fill="#302a57" d="M 172.488281 217.695312 L 172.488281 218.859375 L 174.316406 217.796875 L 174.316406 216.632812 L 172.488281 217.695312 " fill-opacity="1" fill-rule="nonzero"/><path fill="#302b57" d="M 187.257812 208.722656 L 187.253906 209.703125 L 187.238281 215.511719 L 187.136719 231.503906 C 186.289062 230.710938 185.167969 230.015625 183.992188 229.621094 C 181.738281 228.859375 180.15625 229.484375 180.453125 231.019531 C 180.753906 232.558594 182.816406 234.441406 185.0625 235.226562 C 187.175781 235.953125 188.699219 235.433594 188.636719 234.078125 L 188.640625 234.078125 L 188.804688 217.003906 L 203.3125 225.105469 L 203.136719 240.109375 C 202.3125 239.378906 201.257812 238.753906 200.160156 238.402344 C 197.898438 237.671875 196.304688 238.359375 196.597656 239.9375 C 196.882812 241.519531 198.945312 243.414062 201.199219 244.160156 C 203.34375 244.863281 204.886719 244.269531 204.800781 242.839844 L 204.808594 242.847656 L 205.015625 225.777344 L 205.074219 219.425781 L 205.082031 218.75 L 187.257812 208.722656 " fill-opacity="1" fill-rule="nonzero"/><path fill="#302b57" d="M 181.1875 229.492188 L 178.601562 230.667969 L 179.484375 231.382812 L 181.050781 230.714844 L 181.1875 229.492188 " fill-opacity="1" fill-rule="nonzero"/><path fill="#302b57" d="M 187.835938 235.367188 L 185.636719 236.328125 L 186.144531 233.722656 Z M 187.835938 235.367188 " fill-opacity="1" fill-rule="nonzero"/><path fill="#302b57" d="M 194.808594 239.492188 L 197.386719 238.320312 L 198.035156 238.617188 L 196.640625 240.109375 L 194.808594 239.492188 " fill-opacity="1" fill-rule="nonzero"/><path fill="#302b57" d="M 184.746094 209.859375 L 187.257812 208.722656 L 188.449219 219.140625 L 187.371094 233.054688 L 185.492188 230.679688 L 184.746094 209.859375 " fill-opacity="1" fill-rule="nonzero"/><path fill="#302b57" d="M 204.046875 244.207031 L 201.328125 245.4375 L 202.308594 243.582031 Z M 204.046875 244.207031 " fill-opacity="1" fill-rule="nonzero"/><path fill="#3c3673" d="M 184.746094 209.859375 L 184.746094 210.839844 L 184.730469 216.648438 L 184.628906 232.640625 C 183.777344 231.847656 182.65625 231.152344 181.484375 230.757812 C 179.230469 230 177.648438 230.621094 177.945312 232.15625 C 178.242188 233.695312 180.304688 235.582031 182.554688 236.359375 C 184.664062 237.089844 186.191406 236.570312 186.132812 235.214844 L 186.296875 218.144531 L 200.804688 226.242188 L 200.628906 241.25 C 199.804688 240.515625 198.75 239.890625 197.652344 239.539062 C 195.390625 238.808594 193.796875 239.496094 194.089844 241.074219 C 194.375 242.65625 196.46875 244.457031 198.691406 245.300781 C 202.054688 246.574219 202.300781 243.984375 202.300781 243.984375 L 202.507812 226.917969 L 202.566406 220.5625 L 202.574219 219.886719 L 184.746094 209.859375 " fill-opacity="1" fill-rule="nonzero"/><path fill="#302b57" d="M 202.574219 219.886719 L 205.082031 218.75 L 204.796875 243.085938 L 202.3125 242.546875 L 202.574219 219.886719 " fill-opacity="1" fill-rule="nonzero"/><path fill="#7a74b8" d="M 186.082031 164.613281 L 187.242188 163.984375 L 187.027344 165.136719 Z M 186.082031 164.613281 " fill-opacity="1" fill-rule="nonzero"/><path fill="#9284ca" d="M 211.394531 174.867188 L 211.394531 166.90625 C 211.394531 166.542969 211.203125 166.144531 210.964844 166.011719 L 188.96875 153.855469 C 188.726562 153.722656 188.535156 153.90625 188.535156 154.265625 L 188.535156 162.15625 L 189.355469 162.613281 L 189.355469 163.699219 L 188.535156 163.246094 L 188.535156 196.621094 C 188.535156 196.980469 188.726562 197.386719 188.96875 197.523438 L 208.726562 208.769531 L 208.710938 211.449219 L 211.214844 210.0625 C 211.324219 210.007812 211.394531 209.851562 211.394531 209.632812 L 211.394531 175.960938 L 210.917969 175.695312 L 210.917969 174.601562 L 211.394531 174.867188 " fill-opacity="1" fill-rule="nonzero"/><path fill="#7a74b8" d="M 211.214844 210.0625 C 211.324219 210.007812 211.394531 209.851562 211.394531 209.632812 L 211.394531 175.960938 L 208.941406 177.332031 L 207.148438 207.871094 L 208.726562 208.769531 L 208.710938 211.449219 L 211.214844 210.0625 " fill-opacity="1" fill-rule="nonzero"/><path fill="#3c3673" d="M 208.460938 177.0625 L 210.917969 175.695312 L 210.917969 174.601562 L 208.460938 175.09375 L 208.460938 177.0625 " fill-opacity="1" fill-rule="nonzero"/><path fill="#7a74b8" d="M 208.941406 176.234375 L 211.394531 174.867188 L 211.394531 166.90625 C 211.394531 166.90625 211.363281 166.53125 211.277344 166.390625 L 208.808594 167.726562 L 208.941406 176.234375 " fill-opacity="1" fill-rule="nonzero"/><path fill="#a89bd5" d="M 186.277344 155.199219 C 186.277344 155.199219 188.726562 153.808594 188.796875 153.8125 C 188.796875 153.8125 188.894531 153.8125 188.96875 153.855469 L 210.964844 166.011719 C 210.964844 166.011719 211.132812 166.109375 211.277344 166.390625 L 208.738281 167.765625 L 203.464844 165.136719 L 199.195312 163.109375 L 186.277344 155.199219 " fill-opacity="1" fill-rule="nonzero"/><path fill="#302b57" d="M 208.460938 177.71875 L 186.898438 165.71875 L 186.898438 163.109375 L 208.460938 175.09375 L 208.460938 177.71875 " fill-opacity="1" fill-rule="nonzero"/><path fill="#d7ceeb" d="M 208.941406 176.234375 L 208.941406 168.273438 C 208.941406 167.910156 208.746094 167.507812 208.507812 167.378906 L 186.515625 155.222656 C 186.277344 155.089844 186.082031 155.273438 186.082031 155.636719 L 186.082031 163.527344 L 208.941406 176.234375 " fill-opacity="1" fill-rule="nonzero"/><path fill="#ffffff" d="M 206.894531 173.640625 L 188.125 163.210938 L 188.125 158.144531 L 206.894531 168.53125 L 206.894531 173.640625 " fill-opacity="1" fill-rule="nonzero"/><path fill="#b2a8db" d="M 188.648438 158.8125 L 206.894531 168.917969 L 206.894531 168.53125 L 188.125 158.144531 L 188.125 163.210938 L 188.648438 162.859375 L 188.648438 158.8125 " fill-opacity="1" fill-rule="nonzero"/><path fill="#3c3673" d="M 186.082031 164.613281 L 186.082031 197.992188 C 186.082031 198.351562 186.277344 198.75 186.515625 198.886719 L 208.507812 211.410156 C 208.746094 211.546875 208.941406 211.363281 208.941406 211 L 208.941406 177.332031 L 186.082031 164.613281 " fill-opacity="1" fill-rule="nonzero"/><path fill="#a89bd5" d="M 191.816406 177.535156 C 191.816406 177.855469 191.15625 178.128906 190.945312 178.011719 L 188.066406 176.007812 C 187.851562 175.890625 187.683594 175.535156 187.683594 175.222656 L 187.203125 170.125 C 187.203125 169.808594 187.851562 169.664062 188.066406 169.78125 L 191.4375 171.664062 C 191.648438 171.78125 191.816406 172.132812 191.816406 172.453125 L 191.816406 177.535156 " fill-opacity="1" fill-rule="nonzero"/><path fill="#a89bd5" d="M 196.992188 180.433594 C 196.992188 180.753906 196.382812 181.054688 196.175781 180.933594 L 193.238281 178.90625 C 193.027344 178.792969 192.855469 178.4375 192.855469 178.121094 L 192.375 173.023438 C 192.375 172.703125 193.027344 172.550781 193.238281 172.667969 L 196.609375 174.550781 C 196.820312 174.667969 196.992188 175.023438 196.992188 175.339844 L 196.992188 180.433594 " fill-opacity="1" fill-rule="nonzero"/><path fill="#a89bd5" d="M 202.164062 183.332031 C 202.164062 183.652344 201.503906 183.929688 201.296875 183.8125 L 198.414062 181.808594 C 198.203125 181.691406 198.03125 181.335938 198.03125 181.015625 L 197.554688 175.902344 C 197.554688 175.585938 198.203125 175.441406 198.414062 175.554688 L 201.785156 177.4375 C 201.996094 177.554688 202.164062 177.910156 202.164062 178.230469 L 202.164062 183.332031 " fill-opacity="1" fill-rule="nonzero"/><path fill="#a89bd5" d="M 207.34375 186.234375 C 207.34375 186.550781 206.851562 186.835938 206.515625 186.730469 L 203.585938 184.707031 C 203.378906 184.589844 203.203125 184.234375 203.203125 183.917969 L 202.734375 178.761719 C 202.734375 178.441406 203.378906 178.328125 203.585938 178.445312 L 206.960938 180.328125 C 207.171875 180.445312 207.34375 180.796875 207.34375 181.117188 L 207.34375 186.234375 " fill-opacity="1" fill-rule="nonzero"/><path fill="#a89bd5" d="M 191.816406 186.246094 C 191.816406 186.5625 191.105469 186.863281 190.945312 186.71875 L 188.066406 184.703125 C 187.851562 184.585938 187.683594 184.234375 187.683594 183.914062 L 187.203125 178.820312 C 187.203125 178.5 187.851562 178.359375 188.066406 178.476562 L 191.4375 180.371094 C 191.648438 180.488281 191.816406 180.84375 191.816406 181.160156 L 191.816406 186.246094 " fill-opacity="1" fill-rule="nonzero"/><path fill="#a89bd5" d="M 196.992188 189.160156 C 196.992188 189.480469 196.332031 189.753906 196.121094 189.636719 L 193.238281 187.621094 C 193.027344 187.503906 192.855469 187.148438 192.855469 186.832031 L 192.375 181.730469 C 192.375 181.414062 193.027344 181.265625 193.238281 181.382812 L 196.609375 183.273438 C 196.820312 183.394531 196.992188 183.746094 196.992188 184.066406 L 196.992188 189.160156 " fill-opacity="1" fill-rule="nonzero"/><path fill="#a89bd5" d="M 202.164062 192.074219 C 202.164062 192.394531 201.550781 192.691406 201.339844 192.570312 L 198.414062 190.539062 C 198.203125 190.417969 198.03125 190.0625 198.03125 189.746094 L 197.5625 184.582031 C 197.5625 184.261719 198.203125 184.167969 198.414062 184.285156 L 201.785156 186.179688 C 201.996094 186.296875 202.164062 186.652344 202.164062 186.972656 L 202.164062 192.074219 " fill-opacity="1" fill-rule="nonzero"/><path fill="#a89bd5" d="M 191.816406 194.953125 C 191.816406 195.269531 191.203125 195.566406 190.992188 195.445312 L 188.066406 193.398438 C 187.851562 193.28125 187.683594 192.925781 187.683594 192.609375 L 187.203125 187.511719 C 187.203125 187.195312 187.851562 187.054688 188.066406 187.171875 L 191.4375 189.078125 C 191.648438 189.195312 191.816406 189.550781 191.816406 189.867188 L 191.816406 194.953125 " fill-opacity="1" fill-rule="nonzero"/><path fill="#a89bd5" d="M 196.992188 197.882812 C 196.992188 198.203125 196.390625 198.503906 196.175781 198.382812 L 193.238281 196.332031 C 193.027344 196.214844 192.855469 195.859375 192.855469 195.539062 L 192.375 190.441406 C 192.375 190.125 193.027344 189.976562 193.238281 190.09375 L 196.609375 191.996094 C 196.820312 192.117188 196.992188 192.472656 196.992188 192.789062 L 196.992188 197.882812 " fill-opacity="1" fill-rule="nonzero"/><path fill="#a89bd5" d="M 202.164062 200.816406 C 202.164062 201.136719 201.503906 201.414062 201.296875 201.292969 L 198.414062 199.265625 C 198.203125 199.148438 198.03125 198.792969 198.03125 198.472656 L 197.5625 193.347656 C 197.5625 193.03125 198.203125 192.898438 198.414062 193.015625 L 201.785156 194.917969 C 201.996094 195.039062 202.164062 195.394531 202.164062 195.714844 L 202.164062 200.816406 " fill-opacity="1" fill-rule="nonzero"/><path fill="#a89bd5" d="M 207.34375 203.75 C 207.34375 204.070312 206.683594 204.347656 206.46875 204.226562 L 203.585938 202.199219 C 203.378906 202.082031 203.203125 201.726562 203.203125 201.40625 L 202.734375 187.507812 C 202.734375 187.183594 203.378906 187.074219 203.585938 187.191406 L 206.960938 189.082031 C 207.171875 189.203125 207.34375 189.558594 207.34375 189.875 L 207.34375 203.75 " fill-opacity="1" fill-rule="nonzero"/><path fill="#ffffff" d="M 191.328125 177.652344 C 191.328125 177.96875 191.15625 178.128906 190.945312 178.011719 L 187.574219 176.125 C 187.363281 176.007812 187.191406 175.652344 187.191406 175.335938 L 187.191406 170.257812 C 187.191406 169.941406 187.363281 169.78125 187.574219 169.894531 L 190.945312 171.777344 C 191.15625 171.894531 191.328125 172.25 191.328125 172.566406 L 191.328125 177.652344 " fill-opacity="1" fill-rule="nonzero"/><path fill="#ffffff" d="M 196.5 180.550781 C 196.5 180.867188 196.332031 181.03125 196.121094 180.914062 L 192.746094 179.023438 C 192.539062 178.90625 192.367188 178.550781 192.367188 178.234375 L 192.367188 173.148438 C 192.367188 172.828125 192.539062 172.667969 192.746094 172.785156 L 196.121094 174.667969 C 196.332031 174.785156 196.5 175.136719 196.5 175.457031 L 196.5 180.550781 " fill-opacity="1" fill-rule="nonzero"/><path fill="#ffffff" d="M 201.675781 183.449219 C 201.675781 183.765625 201.503906 183.929688 201.296875 183.8125 L 197.921875 181.921875 C 197.710938 181.804688 197.539062 181.449219 197.539062 181.132812 L 197.539062 176.035156 C 197.539062 175.714844 197.710938 175.554688 197.921875 175.671875 L 201.296875 177.554688 C 201.503906 177.671875 201.675781 178.027344 201.675781 178.34375 L 201.675781 183.449219 " fill-opacity="1" fill-rule="nonzero"/><path fill="#ffffff" d="M 206.851562 186.347656 C 206.851562 186.664062 206.683594 186.832031 206.46875 186.710938 L 203.097656 184.820312 C 202.886719 184.703125 202.714844 184.347656 202.714844 184.03125 L 202.714844 178.925781 C 202.714844 178.605469 202.886719 178.441406 203.097656 178.558594 L 206.46875 180.4375 C 206.683594 180.558594 206.851562 180.914062 206.851562 181.230469 L 206.851562 186.347656 " fill-opacity="1" fill-rule="nonzero"/><path fill="#ffffff" d="M 191.328125 186.359375 C 191.328125 186.675781 191.15625 186.839844 190.945312 186.71875 L 187.574219 184.816406 C 187.363281 184.699219 187.191406 184.347656 187.191406 184.027344 L 187.191406 178.953125 C 187.191406 178.636719 187.363281 178.472656 187.574219 178.59375 L 190.945312 180.484375 C 191.15625 180.601562 191.328125 180.957031 191.328125 181.273438 L 191.328125 186.359375 " fill-opacity="1" fill-rule="nonzero"/><path fill="#ffffff" d="M 196.5 189.277344 C 196.5 189.59375 196.332031 189.753906 196.121094 189.636719 L 192.746094 187.734375 C 192.539062 187.617188 192.367188 187.261719 192.367188 186.945312 L 192.367188 181.859375 C 192.367188 181.539062 192.539062 181.378906 192.746094 181.496094 L 196.121094 183.390625 C 196.332031 183.507812 196.5 183.859375 196.5 184.179688 L 196.5 189.277344 " fill-opacity="1" fill-rule="nonzero"/><path fill="#ffffff" d="M 201.675781 192.191406 C 201.675781 192.507812 201.503906 192.671875 201.296875 192.550781 L 197.921875 190.652344 C 197.710938 190.53125 197.539062 190.179688 197.539062 189.859375 L 197.539062 184.765625 C 197.539062 184.445312 197.710938 184.285156 197.921875 184.398438 L 201.296875 186.292969 C 201.503906 186.410156 201.675781 186.765625 201.675781 187.085938 L 201.675781 192.191406 " fill-opacity="1" fill-rule="nonzero"/><path fill="#ffffff" d="M 191.328125 195.066406 C 191.328125 195.386719 191.15625 195.546875 190.945312 195.425781 L 187.574219 193.515625 C 187.363281 193.394531 187.191406 193.039062 187.191406 192.722656 L 187.191406 187.648438 C 187.191406 187.328125 187.363281 187.167969 187.574219 187.289062 L 190.945312 189.191406 C 191.15625 189.308594 191.328125 189.664062 191.328125 189.984375 L 191.328125 195.066406 " fill-opacity="1" fill-rule="nonzero"/><path fill="#ffffff" d="M 196.5 197.996094 C 196.5 198.320312 196.332031 198.480469 196.121094 198.359375 L 192.746094 196.449219 C 192.539062 196.328125 192.367188 195.972656 192.367188 195.65625 L 192.367188 190.570312 C 192.367188 190.253906 192.539062 190.089844 192.746094 190.207031 L 196.121094 192.113281 C 196.332031 192.230469 196.5 192.585938 196.5 192.902344 L 196.5 197.996094 " fill-opacity="1" fill-rule="nonzero"/><path fill="#ffffff" d="M 201.675781 200.929688 C 201.675781 201.25 201.503906 201.414062 201.296875 201.292969 L 197.921875 199.378906 C 197.710938 199.261719 197.539062 198.90625 197.539062 198.589844 L 197.539062 193.492188 C 197.539062 193.171875 197.710938 193.011719 197.921875 193.128906 L 201.296875 195.03125 C 201.503906 195.152344 201.675781 195.507812 201.675781 195.828125 L 201.675781 200.929688 " fill-opacity="1" fill-rule="nonzero"/><path fill="#ffffff" d="M 206.851562 203.863281 C 206.851562 204.183594 206.683594 204.347656 206.46875 204.226562 L 203.097656 202.3125 C 202.886719 202.195312 202.714844 201.839844 202.714844 201.519531 L 202.714844 187.667969 C 202.714844 187.351562 202.886719 187.183594 203.097656 187.304688 L 206.46875 189.199219 C 206.683594 189.316406 206.851562 189.671875 206.851562 189.992188 L 206.851562 203.863281 " fill-opacity="1" fill-rule="nonzero"/><path fill="#a89bd5" d="M 188.648438 162.859375 L 206.894531 172.921875 L 206.894531 173.640625 L 188.125 163.210938 L 188.648438 162.859375 " fill-opacity="1" fill-rule="nonzero"/><path fill="#6d67b2" d="M 243.296875 202.917969 L 243.316406 202.800781 C 243.332031 202.675781 243.351562 202.550781 243.375 202.425781 L 243.375 202.417969 C 243.398438 202.289062 243.429688 202.167969 243.460938 202.046875 L 243.492188 201.933594 C 243.511719 201.847656 243.535156 201.761719 243.5625 201.675781 L 243.597656 201.566406 C 243.628906 201.460938 243.664062 201.355469 243.703125 201.253906 L 243.722656 201.207031 C 243.757812 201.105469 243.800781 201 243.839844 200.898438 L 243.898438 200.777344 C 243.925781 200.710938 243.957031 200.648438 243.988281 200.585938 C 244.882812 198.6875 246.328125 197.410156 246.777344 196.582031 C 247.496094 195.617188 247.902344 194.300781 247.917969 192.667969 C 247.972656 186.769531 242.84375 178.933594 236.464844 175.164062 C 233.605469 173.472656 230.992188 172.898438 228.96875 173.3125 L 228.972656 173.304688 C 228.886719 173.324219 228.808594 173.34375 228.722656 173.367188 L 228.679688 173.378906 C 228.554688 173.410156 228.441406 173.445312 228.324219 173.484375 L 228.261719 173.503906 C 228.152344 173.542969 228.042969 173.585938 227.9375 173.628906 L 227.871094 173.660156 C 227.769531 173.707031 227.664062 173.753906 227.566406 173.808594 L 227.503906 173.84375 C 227.40625 173.898438 227.308594 173.953125 227.214844 174.019531 L 227.167969 174.046875 C 226.765625 174.320312 226.410156 174.65625 226.105469 175.046875 L 226.042969 175.125 C 225.988281 175.195312 225.941406 175.273438 225.890625 175.351562 L 225.839844 175.421875 L 225.839844 175.414062 L 225.789062 175.503906 L 225.714844 175.632812 C 225.664062 175.71875 225.617188 175.808594 225.574219 175.898438 L 225.5 176.054688 L 225.429688 176.214844 L 225.425781 176.222656 L 225.390625 176.320312 C 225.367188 176.378906 225.34375 176.4375 225.320312 176.496094 L 225.273438 176.632812 L 225.253906 176.699219 L 225.230469 176.773438 C 225.214844 176.835938 225.195312 176.898438 225.175781 176.964844 L 225.144531 177.074219 L 225.117188 177.210938 L 225.105469 177.257812 C 225.089844 177.324219 225.074219 177.394531 225.0625 177.460938 L 225.042969 177.546875 C 225.03125 177.613281 225.023438 177.683594 225.011719 177.75 L 225.007812 177.78125 C 224.996094 177.851562 224.984375 177.917969 224.976562 177.988281 L 224.96875 178.042969 C 224.957031 178.140625 224.953125 178.242188 224.945312 178.339844 L 224.941406 178.355469 C 224.9375 178.414062 224.929688 178.476562 224.925781 178.535156 L 224.925781 178.566406 C 224.910156 178.746094 224.90625 178.925781 224.90625 179.113281 C 224.90625 180.761719 225.300781 182.554688 226.007812 184.363281 C 226.65625 186.363281 229.460938 191.898438 229.457031 195.65625 C 229.453125 197.769531 230.460938 199.632812 231.339844 200.863281 C 231.230469 200.847656 231.152344 200.898438 231.152344 201.015625 L 231.148438 202.550781 C 231.148438 202.71875 231.304688 202.945312 231.5 203.058594 L 231.582031 203.105469 C 231.570312 203.269531 231.5625 203.445312 231.570312 203.632812 L 231.5 203.59375 C 231.304688 203.480469 231.148438 203.523438 231.144531 203.6875 L 231.140625 205.222656 C 231.140625 205.386719 231.300781 205.617188 231.492188 205.730469 L 232.152344 206.117188 C 232.375 206.578125 232.671875 207.054688 233.074219 207.515625 L 233.054688 207.582031 L 233.050781 208.664062 C 233.050781 208.777344 233.152344 208.933594 233.273438 209.003906 L 234.058594 209.464844 L 234.058594 210.011719 C 234.058594 210.179688 234.199219 210.398438 234.375 210.503906 L 238.289062 212.785156 C 238.460938 212.890625 238.605469 212.839844 238.605469 212.675781 L 238.609375 212.125 L 239.394531 212.585938 C 239.519531 212.65625 239.621094 212.621094 239.621094 212.503906 L 239.628906 211.429688 L 239.613281 211.34375 C 240.015625 211.351562 240.316406 211.230469 240.539062 211.023438 L 241.128906 211.371094 C 241.320312 211.484375 241.480469 211.441406 241.480469 211.277344 L 241.492188 209.746094 C 241.492188 209.582031 241.335938 209.355469 241.140625 209.242188 C 241.148438 209.058594 241.144531 208.878906 241.136719 208.703125 L 241.144531 208.707031 C 241.339844 208.824219 241.5 208.78125 241.5 208.617188 L 241.511719 207.085938 C 241.511719 206.972656 241.433594 206.828125 241.324219 206.714844 C 242.101562 206.109375 243.230469 205.84375 243.246094 203.746094 C 243.246094 203.605469 243.25 203.46875 243.261719 203.332031 L 243.269531 203.214844 C 243.277344 203.113281 243.289062 203.015625 243.296875 202.917969 " fill-opacity="1" fill-rule="nonzero"/><path fill="#6d67b2" d="M 232.960938 215.820312 C 232.960938 215.820312 233.195312 216.050781 233.613281 215.820312 L 238.375 212.949219 C 238.375 212.949219 238.582031 212.816406 238.589844 212.746094 L 238.429688 212.199219 L 233.214844 209.648438 L 229.050781 213.53125 L 232.960938 215.820312 " fill-opacity="1" fill-rule="nonzero"/><path fill="#3c3673" d="M 235.761719 211.703125 L 241.144531 208.707031 L 241.140625 209.242188 L 235.816406 212.269531 L 235.761719 211.703125 " fill-opacity="1" fill-rule="nonzero"/><path fill="#6d67b2" d="M 236.085938 211.804688 L 241.394531 208.765625 C 241.394531 208.765625 241.5 208.617188 241.5 208.46875 L 241.476562 207.621094 L 236.183594 210.445312 L 236.085938 211.804688 " fill-opacity="1" fill-rule="nonzero"/><path fill="#afa4d9" d="M 236.464844 175.164062 C 233.605469 173.472656 230.992188 172.898438 228.96875 173.3125 L 228.972656 173.304688 C 228.886719 173.324219 228.808594 173.34375 228.722656 173.367188 L 228.679688 173.378906 C 228.554688 173.410156 228.441406 173.445312 228.324219 173.484375 L 228.261719 173.503906 C 228.152344 173.542969 228.042969 173.585938 227.9375 173.628906 L 227.871094 173.660156 C 227.769531 173.707031 227.664062 173.753906 227.566406 173.808594 L 227.503906 173.84375 L 227.453125 173.875 L 221.851562 177.113281 L 224.964844 178.058594 C 224.957031 178.152344 224.949219 178.246094 224.945312 178.339844 L 224.941406 178.355469 C 224.9375 178.414062 224.929688 178.476562 224.925781 178.535156 L 224.925781 178.566406 C 224.910156 178.746094 224.90625 178.925781 224.90625 179.113281 C 224.90625 180.761719 225.300781 182.554688 226.007812 184.363281 C 226.65625 186.363281 229.460938 191.898438 229.457031 195.65625 C 229.453125 197.769531 230.460938 199.632812 231.339844 200.863281 C 231.230469 200.847656 231.152344 200.898438 231.152344 201.015625 L 231.148438 202.550781 C 231.148438 202.71875 231.304688 202.945312 231.5 203.058594 L 231.582031 203.105469 C 231.570312 203.269531 231.5625 203.445312 231.570312 203.632812 L 231.5 203.59375 C 231.304688 203.480469 231.148438 203.523438 231.144531 203.6875 L 231.140625 205.222656 C 231.140625 205.386719 231.300781 205.617188 231.492188 205.730469 L 232.152344 206.117188 C 232.375 206.578125 232.671875 207.054688 233.074219 207.515625 L 233.054688 207.582031 L 233.054688 207.945312 L 235.957031 209.703125 C 235.957031 209.703125 236.316406 210.375 241.5 206.800781 C 242.523438 206.03125 243.230469 205.84375 243.246094 203.746094 C 243.246094 203.605469 243.25 203.46875 243.261719 203.332031 L 243.269531 203.214844 C 243.277344 203.113281 243.289062 203.015625 243.296875 202.917969 L 243.316406 202.800781 C 243.332031 202.675781 243.351562 202.550781 243.375 202.425781 L 243.375 202.417969 C 243.398438 202.289062 243.429688 202.167969 243.460938 202.046875 L 243.492188 201.933594 C 243.511719 201.847656 243.535156 201.761719 243.5625 201.675781 L 243.597656 201.566406 C 243.628906 201.460938 243.664062 201.355469 243.703125 201.253906 L 243.722656 201.207031 C 243.757812 201.105469 243.800781 201 243.839844 200.898438 L 243.898438 200.777344 C 243.925781 200.710938 243.957031 200.648438 243.988281 200.585938 C 244.882812 198.6875 246.328125 197.410156 246.777344 196.582031 C 247.496094 195.617188 247.902344 194.300781 247.917969 192.667969 C 247.972656 186.769531 242.84375 178.933594 236.464844 175.164062 " fill-opacity="1" fill-rule="nonzero"/><path fill="#3c3673" d="M 235.613281 210.285156 L 231.039062 207.742188 L 226.460938 204.921875 C 226.460938 204.921875 225.035156 209.101562 229.421875 212.003906 L 230.976562 212.914062 L 231.046875 212.953125 L 232.605469 213.867188 C 236.996094 216.101562 235.613281 210.285156 235.613281 210.285156 " fill-opacity="1" fill-rule="nonzero"/><path fill="#5a599c" d="M 239.582031 211.640625 L 233.890625 214.378906 L 234.214844 215.648438 L 239.566406 212.609375 C 239.566406 212.609375 239.628906 212.597656 239.621094 212.445312 L 239.582031 211.640625 " fill-opacity="1" fill-rule="nonzero"/><path fill="#d7ceeb" d="M 242.59375 195.703125 C 242.648438 189.800781 237.519531 181.964844 231.136719 178.195312 C 224.757812 174.421875 219.582031 176.191406 219.582031 182.148438 C 219.582031 183.792969 219.980469 185.585938 220.679688 187.394531 C 221.328125 189.390625 224.140625 194.929688 224.132812 198.6875 C 224.125 202.445312 227.316406 205.421875 227.316406 205.421875 L 234.691406 209.742188 C 234.691406 209.742188 237.890625 210.515625 237.917969 206.777344 C 237.945312 203.039062 240.792969 200.835938 241.457031 199.617188 C 242.167969 198.648438 242.578125 197.332031 242.59375 195.703125 " fill-opacity="1" fill-rule="nonzero"/><path fill="#9284ca" d="M 236.171875 211.648438 C 236.171875 211.8125 236.011719 211.851562 235.820312 211.742188 L 226.175781 206.089844 C 225.980469 205.976562 225.820312 205.75 225.820312 205.582031 L 225.824219 204.046875 C 225.824219 203.882812 225.984375 203.839844 226.179688 203.953125 L 235.832031 209.613281 C 236.03125 209.726562 236.183594 209.953125 236.183594 210.117188 L 236.171875 211.648438 " fill-opacity="1" fill-rule="nonzero"/><path fill="#9284ca" d="M 234.078125 214.117188 L 227.953125 210.535156 C 227.828125 210.460938 227.730469 210.496094 227.726562 210.613281 L 227.726562 211.691406 C 227.726562 211.808594 227.824219 211.960938 227.949219 212.035156 L 228.734375 212.496094 L 228.734375 213.046875 C 228.734375 213.210938 228.875 213.429688 229.050781 213.53125 L 232.960938 215.820312 C 233.136719 215.921875 233.28125 215.871094 233.28125 215.707031 L 233.285156 215.15625 L 234.070312 215.617188 C 234.195312 215.691406 234.292969 215.65625 234.296875 215.539062 L 234.300781 214.460938 C 234.304688 214.34375 234.203125 214.191406 234.078125 214.117188 " fill-opacity="1" fill-rule="nonzero"/><path fill="#ffffff" d="M 231.132812 179.175781 C 226.382812 176.371094 222.351562 176.851562 220.914062 179.980469 C 222.84375 178.398438 226.148438 178.554688 229.902344 180.773438 C 235.851562 184.28125 240.636719 191.589844 240.585938 197.101562 C 240.574219 198.625 240.195312 199.851562 239.53125 200.757812 L 239.523438 200.765625 C 240.054688 200.101562 240.539062 199.574219 240.761719 199.167969 C 241.429688 198.261719 241.808594 197.03125 241.824219 195.511719 C 241.871094 190.003906 237.085938 182.691406 231.132812 179.175781 " fill-opacity="1" fill-rule="nonzero"/><path fill="#6d67b2" d="M 241.410156 211.414062 L 236.085938 214.445312 L 235.820312 213.628906 L 235.816406 212.269531 L 241.140625 209.242188 L 241.410156 211.414062 " fill-opacity="1" fill-rule="nonzero"/><path fill="#9284ca" d="M 236.15625 214.308594 C 236.15625 214.472656 235.996094 214.515625 235.800781 214.398438 L 226.167969 208.761719 C 225.972656 208.648438 225.816406 208.421875 225.816406 208.253906 L 225.820312 206.71875 C 225.820312 206.550781 225.976562 206.511719 226.175781 206.625 L 235.816406 212.269531 C 236.011719 212.386719 236.164062 212.613281 236.164062 212.777344 L 236.15625 214.308594 " fill-opacity="1" fill-rule="nonzero"/></svg>