<svg xmlns="http://www.w3.org/2000/svg" xmlns:xlink="http://www.w3.org/1999/xlink" width="500" zoomAndPan="magnify" viewBox="0 0 375 374.999991" height="500" preserveAspectRatio="xMidYMid meet" version="1.0"><defs><clipPath id="a608192959"><path d="M 169 76.015625 L 232 76.015625 L 232 139 L 169 139 Z M 169 76.015625 " clip-rule="nonzero"/></clipPath><clipPath id="5c8258ea43"><path d="M 119 293 L 297 293 L 297 298.765625 L 119 298.765625 Z M 119 293 " clip-rule="nonzero"/></clipPath><clipPath id="9861453f9a"><path d="M 216 176 L 303.273438 176 L 303.273438 211 L 216 211 Z M 216 176 " clip-rule="nonzero"/></clipPath><clipPath id="a9e1a98f39"><path d="M 216 176 L 303.273438 176 L 303.273438 186 L 216 186 Z M 216 176 " clip-rule="nonzero"/></clipPath><clipPath id="8ed3d84898"><path d="M 71.523438 196 L 132 196 L 132 257 L 71.523438 257 Z M 71.523438 196 " clip-rule="nonzero"/></clipPath></defs><path fill="#22222a" d="M 192.296875 270.847656 C 189.949219 271.210938 187.609375 271.480469 185.28125 271.660156 L 185.375 272.839844 C 187.730469 272.660156 190.101562 272.386719 192.480469 272.019531 L 192.296875 270.847656 M 178.230469 271.914062 C 175.859375 271.90625 173.507812 271.804688 171.175781 271.609375 L 171.078125 272.792969 C 173.445312 272.988281 175.824219 273.09375 178.222656 273.101562 L 178.230469 271.914062 M 164.175781 270.75 C 161.84375 270.367188 159.535156 269.890625 157.257812 269.328125 L 156.976562 270.476562 C 159.28125 271.046875 161.617188 271.527344 163.984375 271.917969 L 164.175781 270.75 M 150.476562 267.363281 C 148.242188 266.613281 146.039062 265.78125 143.878906 264.859375 L 143.414062 265.953125 C 145.605469 266.878906 147.835938 267.726562 150.105469 268.484375 L 150.480469 267.363281 L 150.476562 267.363281 M 137.496094 261.847656 C 135.40625 260.757812 133.363281 259.585938 131.367188 258.335938 L 130.742188 259.34375 C 132.757812 260.605469 134.828125 261.792969 136.945312 262.898438 L 137.496094 261.847656 M 125.539062 254.359375 C 123.652344 252.957031 121.816406 251.480469 120.042969 249.933594 L 119.265625 250.824219 C 121.0625 252.394531 122.917969 253.886719 124.835938 255.308594 L 125.539062 254.359375 M 114.910156 245.085938 C 113.265625 243.410156 111.6875 241.664062 110.175781 239.855469 L 109.269531 240.613281 C 110.796875 242.449219 112.398438 244.214844 114.0625 245.917969 L 114.910156 245.085938 M 105.875 234.261719 C 104.519531 232.347656 103.238281 230.375 102.03125 228.347656 L 101.011719 228.953125 C 102.234375 231.007812 103.535156 233.007812 104.910156 234.949219 L 105.875 234.261719 M 98.671875 222.148438 C 97.640625 220.042969 96.683594 217.890625 95.816406 215.691406 L 94.710938 216.128906 C 95.59375 218.359375 96.5625 220.539062 97.605469 222.667969 L 98.671875 222.148438 M 93.480469 209.035156 C 92.800781 206.800781 92.195312 204.527344 91.683594 202.210938 L 90.527344 202.46875 C 91.046875 204.8125 91.65625 207.117188 92.347656 209.378906 L 93.480469 209.035156 M 90.425781 195.265625 C 90.09375 192.914062 89.855469 190.574219 89.710938 188.242188 L 88.53125 188.316406 C 88.675781 190.679688 88.917969 193.050781 89.253906 195.429688 L 90.425781 195.265625 M 89.554688 181.1875 C 89.597656 178.820312 89.734375 176.472656 89.960938 174.140625 L 88.78125 174.027344 C 88.550781 176.386719 88.414062 178.765625 88.371094 181.167969 L 89.554688 181.1875 M 90.921875 167.152344 C 91.339844 164.824219 91.847656 162.527344 92.441406 160.257812 L 91.296875 159.957031 C 90.695312 162.253906 90.179688 164.585938 89.757812 166.941406 L 90.921875 167.152344 M 94.507812 153.507812 C 95.285156 151.28125 96.152344 149.089844 97.101562 146.941406 L 96.015625 146.464844 C 95.054688 148.640625 94.175781 150.863281 93.390625 153.117188 L 94.507812 153.507812 M 100.207031 140.605469 C 101.324219 138.53125 102.523438 136.503906 103.800781 134.527344 L 102.804688 133.886719 C 101.511719 135.886719 100.292969 137.941406 99.160156 140.042969 L 100.207031 140.605469 M 107.859375 128.757812 C 109.289062 126.886719 110.792969 125.074219 112.363281 123.324219 L 111.480469 122.53125 C 109.886719 124.304688 108.367188 126.144531 106.917969 128.039062 L 107.859375 128.757812 M 117.28125 118.261719 C 118.984375 116.640625 120.75 115.085938 122.582031 113.601562 L 121.835938 112.679688 C 119.980469 114.1875 118.1875 115.761719 116.464844 117.402344 L 117.28125 118.261719 M 128.234375 109.378906 C 130.167969 108.054688 132.160156 106.796875 134.203125 105.621094 L 133.613281 104.59375 C 131.539062 105.789062 129.523438 107.058594 127.566406 108.40625 L 128.234375 109.378906 M 140.453125 102.347656 C 142.570312 101.347656 144.734375 100.425781 146.945312 99.585938 L 146.523438 98.476562 C 144.28125 99.328125 142.089844 100.265625 139.945312 101.28125 L 140.453125 102.347656 M 153.636719 97.351562 C 155.882812 96.695312 158.164062 96.128906 160.484375 95.648438 L 160.246094 94.488281 C 157.894531 94.976562 155.582031 95.550781 153.308594 96.210938 L 153.636719 97.351562 M 167.449219 94.488281 C 169.804688 94.1875 172.148438 93.984375 174.484375 93.871094 L 174.425781 92.6875 C 172.0625 92.800781 169.683594 93.007812 167.300781 93.3125 L 167.449219 94.488281 M 181.542969 93.816406 C 183.910156 93.890625 186.257812 94.058594 188.585938 94.320312 L 188.714844 93.144531 C 186.359375 92.878906 183.976562 92.707031 181.578125 92.632812 L 181.542969 93.816406 M 195.5625 95.382812 C 197.882812 95.832031 200.171875 96.375 202.433594 97 L 202.75 95.859375 C 200.460938 95.226562 198.136719 94.675781 195.785156 94.222656 L 195.5625 95.382812 M 209.152344 99.160156 C 211.367188 99.972656 213.546875 100.867188 215.679688 101.847656 L 216.175781 100.773438 C 214.011719 99.777344 211.804688 98.871094 209.558594 98.050781 L 209.152344 99.160156 M 221.976562 105.042969 C 224.035156 106.191406 226.042969 107.417969 228 108.722656 L 228.65625 107.738281 C 226.675781 106.414062 224.636719 105.171875 222.554688 104.007812 L 221.976562 105.042969 " fill-opacity="1" fill-rule="nonzero"/><g clip-path="url(#a608192959)"><path fill="#59c7ba" d="M 231.480469 107.433594 C 231.480469 124.65625 217.519531 138.621094 200.292969 138.621094 C 183.066406 138.621094 169.105469 124.65625 169.105469 107.433594 C 169.105469 90.210938 183.066406 76.25 200.292969 76.25 C 217.519531 76.25 231.480469 90.210938 231.480469 107.433594 " fill-opacity="1" fill-rule="nonzero"/></g><path fill="#9dcfd1" d="M 199.242188 87.078125 C 192.195312 92.40625 178.183594 92.078125 178.183594 92.078125 C 178.753906 123.871094 199.242188 132.230469 199.242188 132.230469 C 199.242188 132.230469 219.730469 123.871094 220.304688 92.078125 C 220.304688 92.078125 206.292969 92.40625 199.242188 87.078125 " fill-opacity="1" fill-rule="nonzero"/><path fill="#7eafb0" d="M 178.710938 99.488281 C 182.003906 125.195312 199.242188 132.230469 199.242188 132.230469 C 199.242188 132.230469 209.960938 127.855469 216.109375 113.402344 C 200.824219 117.847656 185.710938 106.101562 178.710938 99.488281 " fill-opacity="1" fill-rule="nonzero"/><path fill="#699fa2" d="M 180.171875 106.972656 C 185.429688 126.59375 199.242188 132.230469 199.242188 132.230469 C 199.242188 132.230469 204.722656 129.996094 210.09375 123.441406 C 196.984375 125.835938 185.511719 113.808594 180.171875 106.972656 " fill-opacity="1" fill-rule="nonzero"/><path fill="#82d3cb" d="M 220.289062 92.757812 C 220.296875 92.53125 220.300781 92.304688 220.304688 92.078125 C 220.300781 92.304688 220.296875 92.53125 220.289062 92.757812 M 178.183594 92.285156 C 178.183594 92.214844 178.183594 92.144531 178.183594 92.078125 C 178.183594 92.144531 178.183594 92.214844 178.183594 92.285156 " fill-opacity="1" fill-rule="nonzero"/><path fill="#acd8da" d="M 219.828125 93.355469 C 217.324219 93.355469 205.523438 93.097656 199.242188 88.351562 C 192.964844 93.097656 181.160156 93.355469 178.65625 93.355469 C 178.429688 93.355469 178.28125 93.355469 178.21875 93.355469 C 178.203125 93 178.191406 92.644531 178.183594 92.285156 C 178.183594 92.214844 178.183594 92.144531 178.183594 92.078125 C 178.183594 92.078125 178.347656 92.078125 178.660156 92.078125 C 181.175781 92.078125 192.96875 91.820312 199.242188 87.078125 C 205.515625 91.820312 217.316406 92.078125 219.828125 92.078125 C 220.136719 92.078125 220.304688 92.078125 220.304688 92.078125 C 220.300781 92.304688 220.296875 92.53125 220.289062 92.757812 C 220.285156 92.957031 220.277344 93.15625 220.273438 93.355469 C 220.210938 93.355469 220.058594 93.355469 219.828125 93.355469 " fill-opacity="1" fill-rule="nonzero"/><path fill="#84d057" d="M 199.242188 90.328125 C 193.210938 94.886719 181.210938 94.605469 181.210938 94.605469 C 181.703125 121.824219 199.242188 128.980469 199.242188 128.980469 C 199.242188 128.980469 216.78125 121.824219 217.273438 94.605469 C 217.273438 94.605469 205.277344 94.886719 199.242188 90.328125 " fill-opacity="1" fill-rule="nonzero"/><path fill="#74b04c" d="M 181.855469 102.296875 C 185.085938 123.207031 199.242188 128.980469 199.242188 128.980469 C 199.242188 128.980469 207.820312 125.480469 213.148438 114.070312 C 200.890625 116.027344 189.085938 108.40625 181.855469 102.296875 " fill-opacity="1" fill-rule="nonzero"/><path fill="#659f44" d="M 199.242188 92.460938 C 204.253906 96.25 212.878906 97.101562 217.167969 97.28125 C 217.21875 96.414062 217.257812 95.519531 217.273438 94.605469 C 217.273438 94.605469 205.277344 94.886719 199.242188 90.328125 C 193.210938 94.886719 181.210938 94.605469 181.210938 94.605469 C 181.230469 95.519531 181.265625 96.414062 181.320312 97.28125 C 185.609375 97.101562 194.234375 96.25 199.242188 92.460938 " fill-opacity="1" fill-rule="nonzero"/><path fill="#699946" d="M 184.40625 111.890625 C 189.589844 125.042969 199.242188 128.980469 199.242188 128.980469 C 199.242188 128.980469 202.625 127.597656 206.457031 123.75 C 197.625 123.65625 189.777344 117.539062 184.40625 111.890625 " fill-opacity="1" fill-rule="nonzero"/><path fill="#405e85" d="M 181.121094 260.242188 L 154.21875 260.242188 L 154.21875 255.535156 L 181.121094 255.535156 L 181.121094 260.242188 " fill-opacity="1" fill-rule="nonzero"/><path fill="#405e85" d="M 264.179688 260.242188 L 237.277344 260.242188 L 237.277344 255.535156 L 264.179688 255.535156 L 264.179688 260.242188 " fill-opacity="1" fill-rule="nonzero"/><path fill="#6c89af" d="M 282.011719 252.757812 C 282.011719 254.753906 280.394531 256.371094 278.398438 256.371094 L 140 256.371094 C 138.003906 256.371094 136.386719 254.753906 136.386719 252.757812 L 136.386719 160.671875 C 136.386719 158.675781 138.003906 157.058594 140 157.058594 L 278.398438 157.058594 C 280.394531 157.058594 282.011719 158.675781 282.011719 160.671875 L 282.011719 252.757812 " fill-opacity="1" fill-rule="nonzero"/><path fill="#38415f" d="M 278.773438 250.710938 C 278.773438 252.617188 277.226562 254.160156 275.320312 254.160156 L 143.078125 254.160156 C 141.171875 254.160156 139.625 252.617188 139.625 250.710938 L 139.625 162.722656 C 139.625 160.8125 141.171875 159.265625 143.078125 159.265625 L 275.320312 159.265625 C 277.226562 159.265625 278.773438 160.8125 278.773438 162.722656 L 278.773438 250.710938 " fill-opacity="1" fill-rule="nonzero"/><path fill="#272d3b" d="M 274.980469 247.347656 C 274.980469 249.109375 273.519531 250.539062 271.714844 250.539062 L 146.683594 250.539062 C 144.878906 250.539062 143.417969 249.109375 143.417969 247.347656 L 143.417969 166.082031 C 143.417969 164.316406 144.878906 162.890625 146.683594 162.890625 L 271.714844 162.890625 C 273.519531 162.890625 274.980469 164.316406 274.980469 166.082031 L 274.980469 247.347656 " fill-opacity="1" fill-rule="nonzero"/><g clip-path="url(#5c8258ea43)"><path fill="#415472" d="M 296.847656 296.605469 C 296.847656 297.671875 296.070312 298.539062 295.117188 298.539062 L 120.8125 298.539062 C 119.859375 298.539062 119.085938 297.671875 119.085938 296.605469 L 119.085938 295.175781 C 119.085938 294.109375 119.859375 293.246094 120.8125 293.246094 L 295.117188 293.246094 C 296.070312 293.246094 296.847656 294.109375 296.847656 295.175781 L 296.847656 296.605469 " fill-opacity="1" fill-rule="nonzero"/></g><path fill="#6c89af" d="M 122.355469 295.480469 C 120.042969 295.480469 118.90625 294.601562 119.714844 293.4375 L 142.171875 261.085938 C 142.980469 259.921875 144.875 259.046875 146.585938 259.046875 L 272.855469 259.046875 C 274.5625 259.046875 276.371094 259.921875 277.0625 261.085938 L 296.304688 293.4375 C 296.992188 294.601562 295.769531 295.480469 293.457031 295.480469 L 122.355469 295.480469 " fill-opacity="1" fill-rule="nonzero"/><path fill="#2b2c3b" d="M 152.890625 264.886719 C 152.839844 264.886719 152.828125 264.832031 152.867188 264.765625 L 155.003906 261.050781 C 155.042969 260.984375 155.113281 260.933594 155.160156 260.933594 L 166.175781 260.933594 C 166.226562 260.933594 166.238281 260.984375 166.207031 261.050781 L 164.46875 264.765625 C 164.4375 264.832031 164.371094 264.886719 164.320312 264.886719 L 152.890625 264.886719 " fill-opacity="1" fill-rule="nonzero"/><path fill="#21212a" d="M 164.375 264.765625 L 152.957031 264.765625 L 153.425781 263.953125 L 164.761719 263.953125 L 164.375 264.765625 " fill-opacity="1" fill-rule="nonzero"/><path fill="#2b2c3b" d="M 150.320312 269.359375 C 150.265625 269.359375 150.257812 269.308594 150.292969 269.242188 L 152.429688 265.527344 C 152.46875 265.457031 152.542969 265.40625 152.589844 265.40625 L 168.269531 265.40625 C 168.320312 265.40625 168.339844 265.457031 168.308594 265.527344 L 166.714844 269.242188 C 166.6875 269.308594 166.621094 269.359375 166.570312 269.359375 L 150.320312 269.359375 " fill-opacity="1" fill-rule="nonzero"/><path fill="#21212a" d="M 166.617188 269.242188 L 150.390625 269.242188 L 150.855469 268.425781 L 166.96875 268.425781 L 166.617188 269.242188 " fill-opacity="1" fill-rule="nonzero"/><path fill="#2b2c3b" d="M 147.636719 274.027344 C 147.578125 274.027344 147.5625 273.96875 147.605469 273.894531 L 149.742188 270.179688 C 149.785156 270.105469 149.867188 270.050781 149.925781 270.050781 L 170.058594 270.050781 C 170.117188 270.050781 170.140625 270.105469 170.113281 270.179688 L 168.640625 273.894531 C 168.609375 273.96875 168.539062 274.027344 168.480469 274.027344 L 147.636719 274.027344 " fill-opacity="1" fill-rule="nonzero"/><path fill="#21212a" d="M 168.53125 273.894531 L 147.714844 273.894531 L 148.179688 273.082031 L 168.851562 273.082031 L 168.53125 273.894531 " fill-opacity="1" fill-rule="nonzero"/><path fill="#2b2c3b" d="M 144.835938 278.902344 C 144.773438 278.902344 144.757812 278.847656 144.796875 278.773438 L 146.9375 275.054688 C 146.976562 274.984375 147.0625 274.921875 147.121094 274.921875 L 168.121094 274.921875 C 168.183594 274.921875 168.207031 274.984375 168.179688 275.054688 L 166.707031 278.773438 C 166.679688 278.847656 166.601562 278.902344 166.542969 278.902344 L 144.835938 278.902344 " fill-opacity="1" fill-rule="nonzero"/><path fill="#21212a" d="M 166.59375 278.773438 L 144.910156 278.773438 L 145.375 277.960938 L 166.914062 277.960938 L 166.59375 278.773438 " fill-opacity="1" fill-rule="nonzero"/><path fill="#2b2c3b" d="M 167.433594 283.550781 C 167.367188 283.550781 167.339844 283.492188 167.367188 283.417969 L 168.765625 279.703125 C 168.792969 279.628906 168.867188 279.570312 168.929688 279.570312 L 252.441406 279.570312 C 252.507812 279.570312 252.574219 279.628906 252.597656 279.703125 L 253.726562 283.417969 C 253.746094 283.492188 253.714844 283.550781 253.644531 283.550781 L 167.433594 283.550781 " fill-opacity="1" fill-rule="nonzero"/><path fill="#21212a" d="M 253.605469 283.417969 L 167.484375 283.417969 L 167.789062 282.605469 L 253.363281 282.605469 L 253.605469 283.417969 " fill-opacity="1" fill-rule="nonzero"/><path fill="#2b2c3b" d="M 142.164062 283.550781 C 142.101562 283.550781 142.082031 283.492188 142.125 283.417969 L 144.261719 279.703125 C 144.304688 279.628906 144.390625 279.570312 144.453125 279.570312 L 154.433594 279.570312 C 154.492188 279.570312 154.515625 279.628906 154.480469 279.703125 L 152.652344 283.417969 C 152.617188 283.492188 152.535156 283.550781 152.46875 283.550781 L 142.164062 283.550781 " fill-opacity="1" fill-rule="nonzero"/><path fill="#21212a" d="M 152.535156 283.417969 L 142.242188 283.417969 L 142.707031 282.605469 L 152.933594 282.605469 L 152.535156 283.417969 " fill-opacity="1" fill-rule="nonzero"/><path fill="#2b2c3b" d="M 168.03125 269.371094 C 167.972656 269.371094 167.949219 269.3125 167.980469 269.242188 L 169.535156 265.527344 C 169.566406 265.449219 169.636719 265.390625 169.691406 265.390625 L 178.523438 265.390625 C 178.578125 265.390625 178.601562 265.449219 178.578125 265.527344 L 177.332031 269.242188 C 177.308594 269.3125 177.242188 269.371094 177.183594 269.371094 L 168.03125 269.371094 " fill-opacity="1" fill-rule="nonzero"/><path fill="#21212a" d="M 177.226562 269.242188 L 168.085938 269.242188 L 168.425781 268.425781 L 177.5 268.425781 L 177.226562 269.242188 " fill-opacity="1" fill-rule="nonzero"/><path fill="#2b2c3b" d="M 179.269531 269.371094 C 179.210938 269.371094 179.183594 269.3125 179.207031 269.242188 L 180.390625 265.527344 C 180.414062 265.449219 180.480469 265.390625 180.535156 265.390625 L 189.363281 265.390625 C 189.421875 265.390625 189.453125 265.449219 189.433594 265.527344 L 188.558594 269.242188 C 188.539062 269.3125 188.480469 269.371094 188.421875 269.371094 L 179.269531 269.371094 " fill-opacity="1" fill-rule="nonzero"/><path fill="#21212a" d="M 188.453125 269.242188 L 179.3125 269.242188 L 179.570312 268.425781 L 188.648438 268.425781 L 188.453125 269.242188 " fill-opacity="1" fill-rule="nonzero"/><path fill="#2b2c3b" d="M 190.507812 269.371094 C 190.449219 269.371094 190.417969 269.3125 190.433594 269.242188 L 191.25 265.527344 C 191.261719 265.449219 191.324219 265.390625 191.378906 265.390625 L 200.207031 265.390625 C 200.261719 265.390625 200.300781 265.449219 200.289062 265.527344 L 199.785156 269.242188 C 199.773438 269.3125 199.71875 269.371094 199.660156 269.371094 L 190.507812 269.371094 " fill-opacity="1" fill-rule="nonzero"/><path fill="#21212a" d="M 199.679688 269.242188 L 190.535156 269.242188 L 190.714844 268.425781 L 199.789062 268.425781 L 199.679688 269.242188 " fill-opacity="1" fill-rule="nonzero"/><path fill="#2b2c3b" d="M 201.75 269.371094 C 201.6875 269.371094 201.648438 269.3125 201.660156 269.242188 L 202.105469 265.527344 C 202.113281 265.449219 202.164062 265.390625 202.222656 265.390625 L 211.050781 265.390625 C 211.105469 265.390625 211.148438 265.449219 211.148438 265.527344 L 211.011719 269.242188 C 211.007812 269.3125 210.957031 269.371094 210.902344 269.371094 L 201.75 269.371094 " fill-opacity="1" fill-rule="nonzero"/><path fill="#21212a" d="M 210.90625 269.242188 L 201.761719 269.242188 L 201.859375 268.425781 L 210.933594 268.425781 L 210.90625 269.242188 " fill-opacity="1" fill-rule="nonzero"/><path fill="#2b2c3b" d="M 212.984375 269.371094 C 212.929688 269.371094 212.882812 269.3125 212.882812 269.242188 L 212.960938 265.527344 C 212.960938 265.449219 213.007812 265.390625 213.066406 265.390625 L 221.894531 265.390625 C 221.953125 265.390625 222 265.449219 222.003906 265.527344 L 222.234375 269.242188 C 222.238281 269.3125 222.195312 269.371094 222.136719 269.371094 L 212.984375 269.371094 " fill-opacity="1" fill-rule="nonzero"/><path fill="#21212a" d="M 222.128906 269.242188 L 212.988281 269.242188 L 213.003906 268.425781 L 222.082031 268.425781 L 222.128906 269.242188 " fill-opacity="1" fill-rule="nonzero"/><path fill="#2b2c3b" d="M 224.226562 269.371094 C 224.167969 269.371094 224.117188 269.3125 224.109375 269.242188 L 223.816406 265.527344 C 223.808594 265.449219 223.847656 265.390625 223.90625 265.390625 L 232.738281 265.390625 C 232.792969 265.390625 232.847656 265.449219 232.859375 265.527344 L 233.460938 269.242188 C 233.472656 269.3125 233.433594 269.371094 233.378906 269.371094 L 224.226562 269.371094 " fill-opacity="1" fill-rule="nonzero"/><path fill="#21212a" d="M 233.355469 269.242188 L 224.214844 269.242188 L 224.148438 268.425781 L 233.226562 268.425781 L 233.355469 269.242188 " fill-opacity="1" fill-rule="nonzero"/><path fill="#2b2c3b" d="M 235.464844 269.371094 C 235.40625 269.371094 235.347656 269.3125 235.335938 269.242188 L 234.671875 265.527344 C 234.660156 265.449219 234.691406 265.390625 234.75 265.390625 L 243.578125 265.390625 C 243.636719 265.390625 243.695312 265.449219 243.714844 265.527344 L 244.6875 269.242188 C 244.707031 269.3125 244.671875 269.371094 244.617188 269.371094 L 235.464844 269.371094 " fill-opacity="1" fill-rule="nonzero"/><path fill="#21212a" d="M 244.582031 269.242188 L 235.441406 269.242188 L 235.292969 268.425781 L 244.367188 268.425781 L 244.582031 269.242188 " fill-opacity="1" fill-rule="nonzero"/><path fill="#2b2c3b" d="M 170.820312 274.105469 C 170.761719 274.105469 170.734375 274.042969 170.761719 273.972656 L 172.167969 270.253906 C 172.195312 270.183594 172.261719 270.125 172.324219 270.125 L 181.539062 270.125 C 181.59375 270.125 181.625 270.183594 181.605469 270.253906 L 180.507812 273.972656 C 180.484375 274.042969 180.417969 274.105469 180.359375 274.105469 L 170.820312 274.105469 " fill-opacity="1" fill-rule="nonzero"/><path fill="#21212a" d="M 180.398438 273.972656 L 170.871094 273.972656 L 171.175781 273.160156 L 180.636719 273.160156 L 180.398438 273.972656 " fill-opacity="1" fill-rule="nonzero"/><path fill="#2b2c3b" d="M 182.53125 274.105469 C 182.472656 274.105469 182.441406 274.042969 182.460938 273.972656 L 183.492188 270.253906 C 183.515625 270.183594 183.578125 270.125 183.636719 270.125 L 192.851562 270.125 C 192.910156 270.125 192.945312 270.183594 192.933594 270.253906 L 192.203125 273.972656 C 192.191406 274.042969 192.128906 274.105469 192.066406 274.105469 L 182.53125 274.105469 " fill-opacity="1" fill-rule="nonzero"/><path fill="#21212a" d="M 192.09375 273.972656 L 182.570312 273.972656 L 182.792969 273.160156 L 192.253906 273.160156 L 192.09375 273.972656 " fill-opacity="1" fill-rule="nonzero"/><path fill="#2b2c3b" d="M 194.242188 274.105469 C 194.179688 274.105469 194.144531 274.042969 194.15625 273.972656 L 194.820312 270.253906 C 194.832031 270.183594 194.894531 270.125 194.949219 270.125 L 204.164062 270.125 C 204.222656 270.125 204.265625 270.183594 204.257812 270.253906 L 203.902344 273.972656 C 203.894531 274.042969 203.839844 274.105469 203.777344 274.105469 L 194.242188 274.105469 " fill-opacity="1" fill-rule="nonzero"/><path fill="#21212a" d="M 203.789062 273.972656 L 194.265625 273.972656 L 194.410156 273.160156 L 203.871094 273.160156 L 203.789062 273.972656 " fill-opacity="1" fill-rule="nonzero"/><path fill="#2b2c3b" d="M 205.949219 274.105469 C 205.890625 274.105469 205.847656 274.042969 205.855469 273.972656 L 206.148438 270.253906 C 206.15625 270.183594 206.203125 270.125 206.265625 270.125 L 215.480469 270.125 C 215.535156 270.125 215.582031 270.183594 215.582031 270.253906 L 215.597656 273.972656 C 215.597656 274.042969 215.550781 274.105469 215.488281 274.105469 L 205.949219 274.105469 " fill-opacity="1" fill-rule="nonzero"/><path fill="#21212a" d="M 215.488281 273.972656 L 205.960938 273.972656 L 206.027344 273.160156 L 215.484375 273.160156 L 215.488281 273.972656 " fill-opacity="1" fill-rule="nonzero"/><path fill="#2b2c3b" d="M 217.660156 274.105469 C 217.601562 274.105469 217.550781 274.042969 217.550781 273.972656 L 217.476562 270.253906 C 217.472656 270.183594 217.519531 270.125 217.578125 270.125 L 226.792969 270.125 C 226.851562 270.125 226.902344 270.183594 226.910156 270.253906 L 227.292969 273.972656 C 227.300781 274.042969 227.257812 274.105469 227.199219 274.105469 L 217.660156 274.105469 " fill-opacity="1" fill-rule="nonzero"/><path fill="#21212a" d="M 227.183594 273.972656 L 217.660156 273.972656 L 217.640625 273.160156 L 227.101562 273.160156 L 227.183594 273.972656 " fill-opacity="1" fill-rule="nonzero"/><path fill="#2b2c3b" d="M 229.371094 274.105469 C 229.308594 274.105469 229.253906 274.042969 229.246094 273.972656 L 228.800781 270.253906 C 228.792969 270.183594 228.835938 270.125 228.890625 270.125 L 238.105469 270.125 C 238.164062 270.125 238.222656 270.183594 238.238281 270.253906 L 238.992188 273.972656 C 239.003906 274.042969 238.96875 274.105469 238.910156 274.105469 L 229.371094 274.105469 " fill-opacity="1" fill-rule="nonzero"/><path fill="#21212a" d="M 238.878906 273.972656 L 229.355469 273.972656 L 229.257812 273.160156 L 238.714844 273.160156 L 238.878906 273.972656 " fill-opacity="1" fill-rule="nonzero"/><path fill="#2b2c3b" d="M 241.082031 274.105469 C 241.019531 274.105469 240.957031 274.042969 240.945312 273.972656 L 240.128906 270.253906 C 240.113281 270.183594 240.144531 270.125 240.207031 270.125 L 249.421875 270.125 C 249.476562 270.125 249.542969 270.183594 249.566406 270.253906 L 250.6875 273.972656 C 250.707031 274.042969 250.675781 274.105469 250.617188 274.105469 L 241.082031 274.105469 " fill-opacity="1" fill-rule="nonzero"/><path fill="#21212a" d="M 250.578125 273.972656 L 241.054688 273.972656 L 240.875 273.160156 L 250.332031 273.160156 L 250.578125 273.972656 " fill-opacity="1" fill-rule="nonzero"/><path fill="#2b2c3b" d="M 253.253906 274.105469 C 253.195312 274.105469 253.125 274.042969 253.101562 273.972656 L 251.90625 270.253906 C 251.878906 270.183594 251.910156 270.125 251.964844 270.125 L 268.585938 270.125 C 268.648438 270.125 268.722656 270.183594 268.757812 270.253906 L 270.503906 273.972656 C 270.539062 274.042969 270.519531 274.105469 270.457031 274.105469 L 253.253906 274.105469 " fill-opacity="1" fill-rule="nonzero"/><path fill="#21212a" d="M 270.394531 273.972656 L 253.210938 273.972656 L 252.949219 273.160156 L 270.011719 273.160156 L 270.394531 273.972656 " fill-opacity="1" fill-rule="nonzero"/><path fill="#2b2c3b" d="M 169.011719 278.902344 C 168.949219 278.902344 168.921875 278.847656 168.949219 278.773438 L 170.351562 275.054688 C 170.378906 274.984375 170.453125 274.921875 170.511719 274.921875 L 180.117188 274.921875 C 180.175781 274.921875 180.207031 274.984375 180.1875 275.054688 L 179.089844 278.773438 C 179.070312 278.847656 179 278.902344 178.9375 278.902344 L 169.011719 278.902344 " fill-opacity="1" fill-rule="nonzero"/><path fill="#21212a" d="M 178.976562 278.773438 L 169.0625 278.773438 L 169.367188 277.960938 L 179.214844 277.960938 L 178.976562 278.773438 " fill-opacity="1" fill-rule="nonzero"/><path fill="#2b2c3b" d="M 181.199219 278.902344 C 181.136719 278.902344 181.101562 278.847656 181.121094 278.773438 L 182.15625 275.054688 C 182.179688 274.984375 182.242188 274.921875 182.304688 274.921875 L 191.910156 274.921875 C 191.96875 274.921875 192.003906 274.984375 191.992188 275.054688 L 191.261719 278.773438 C 191.25 278.847656 191.1875 278.902344 191.125 278.902344 L 181.199219 278.902344 " fill-opacity="1" fill-rule="nonzero"/><path fill="#21212a" d="M 191.152344 278.773438 L 181.234375 278.773438 L 181.460938 277.960938 L 191.308594 277.960938 L 191.152344 278.773438 " fill-opacity="1" fill-rule="nonzero"/><path fill="#2b2c3b" d="M 193.386719 278.902344 C 193.324219 278.902344 193.285156 278.847656 193.296875 278.773438 L 193.960938 275.054688 C 193.972656 274.984375 194.03125 274.921875 194.09375 274.921875 L 203.699219 274.921875 C 203.757812 274.921875 203.804688 274.984375 203.796875 275.054688 L 203.441406 278.773438 C 203.433594 278.847656 203.375 278.902344 203.3125 278.902344 L 193.386719 278.902344 " fill-opacity="1" fill-rule="nonzero"/><path fill="#21212a" d="M 203.324219 278.773438 L 193.410156 278.773438 L 193.554688 277.960938 L 203.40625 277.960938 L 203.324219 278.773438 " fill-opacity="1" fill-rule="nonzero"/><path fill="#2b2c3b" d="M 205.574219 278.902344 C 205.511719 278.902344 205.464844 278.847656 205.46875 278.773438 L 205.765625 275.054688 C 205.769531 274.984375 205.824219 274.921875 205.886719 274.921875 L 215.488281 274.921875 C 215.550781 274.921875 215.601562 274.984375 215.601562 275.054688 L 215.613281 278.773438 C 215.613281 278.847656 215.5625 278.902344 215.5 278.902344 L 205.574219 278.902344 " fill-opacity="1" fill-rule="nonzero"/><path fill="#21212a" d="M 215.5 278.773438 L 205.585938 278.773438 L 205.648438 277.960938 L 215.496094 277.960938 L 215.5 278.773438 " fill-opacity="1" fill-rule="nonzero"/><path fill="#2b2c3b" d="M 217.761719 278.902344 C 217.699219 278.902344 217.648438 278.847656 217.648438 278.773438 L 217.570312 275.054688 C 217.570312 274.984375 217.617188 274.921875 217.679688 274.921875 L 227.28125 274.921875 C 227.34375 274.921875 227.398438 274.984375 227.402344 275.054688 L 227.789062 278.773438 C 227.796875 278.847656 227.75 278.902344 227.6875 278.902344 L 217.761719 278.902344 " fill-opacity="1" fill-rule="nonzero"/><path fill="#21212a" d="M 227.671875 278.773438 L 217.757812 278.773438 L 217.742188 277.960938 L 227.589844 277.960938 L 227.671875 278.773438 " fill-opacity="1" fill-rule="nonzero"/><path fill="#2b2c3b" d="M 229.949219 278.902344 C 229.886719 278.902344 229.828125 278.847656 229.820312 278.773438 L 229.375 275.054688 C 229.367188 274.984375 229.410156 274.921875 229.46875 274.921875 L 239.074219 274.921875 C 239.132812 274.921875 239.195312 274.984375 239.210938 275.054688 L 239.960938 278.773438 C 239.976562 278.847656 239.9375 278.902344 239.875 278.902344 L 229.949219 278.902344 " fill-opacity="1" fill-rule="nonzero"/><path fill="#21212a" d="M 239.847656 278.773438 L 229.933594 278.773438 L 229.835938 277.960938 L 239.683594 277.960938 L 239.847656 278.773438 " fill-opacity="1" fill-rule="nonzero"/><path fill="#2b2c3b" d="M 242.136719 278.902344 C 242.074219 278.902344 242.007812 278.847656 241.992188 278.773438 L 241.179688 275.054688 C 241.164062 274.984375 241.199219 274.921875 241.261719 274.921875 L 250.863281 274.921875 C 250.925781 274.921875 250.992188 274.984375 251.015625 275.054688 L 252.136719 278.773438 C 252.160156 278.847656 252.125 278.902344 252.0625 278.902344 L 242.136719 278.902344 " fill-opacity="1" fill-rule="nonzero"/><path fill="#21212a" d="M 252.023438 278.773438 L 242.105469 278.773438 L 241.925781 277.960938 L 251.777344 277.960938 L 252.023438 278.773438 " fill-opacity="1" fill-rule="nonzero"/><path fill="#2b2c3b" d="M 255.433594 278.902344 C 255.371094 278.902344 255.300781 278.847656 255.277344 278.773438 L 254.0625 275.054688 C 254.035156 274.984375 254.066406 274.921875 254.128906 274.921875 L 270.84375 274.921875 C 270.902344 274.921875 270.980469 274.984375 271.015625 275.054688 L 272.761719 278.773438 C 272.796875 278.847656 272.773438 278.902344 272.710938 278.902344 L 255.433594 278.902344 " fill-opacity="1" fill-rule="nonzero"/><path fill="#21212a" d="M 272.652344 278.773438 L 255.390625 278.773438 L 255.125 277.960938 L 272.269531 277.960938 L 272.652344 278.773438 " fill-opacity="1" fill-rule="nonzero"/><path fill="#2b2c3b" d="M 154.390625 283.550781 C 154.328125 283.550781 154.300781 283.492188 154.335938 283.417969 L 156.117188 279.703125 C 156.152344 279.628906 156.234375 279.570312 156.296875 279.570312 L 166.273438 279.570312 C 166.339844 279.570312 166.367188 279.628906 166.335938 279.703125 L 164.863281 283.417969 C 164.835938 283.492188 164.761719 283.550781 164.695312 283.550781 L 154.390625 283.550781 " fill-opacity="1" fill-rule="nonzero"/><path fill="#21212a" d="M 164.746094 283.417969 L 154.453125 283.417969 L 154.84375 282.605469 L 165.070312 282.605469 L 164.746094 283.417969 " fill-opacity="1" fill-rule="nonzero"/><path fill="#2b2c3b" d="M 246.988281 269.375 C 246.933594 269.375 246.863281 269.3125 246.84375 269.242188 L 245.800781 265.527344 C 245.78125 265.449219 245.8125 265.386719 245.867188 265.386719 L 266.367188 265.386719 C 266.421875 265.386719 266.496094 265.449219 266.53125 265.527344 L 268.28125 269.242188 C 268.316406 269.3125 268.296875 269.375 268.234375 269.375 L 246.988281 269.375 " fill-opacity="1" fill-rule="nonzero"/><path fill="#21212a" d="M 268.175781 269.242188 L 246.953125 269.242188 L 246.722656 268.425781 L 267.792969 268.425781 L 268.175781 269.242188 " fill-opacity="1" fill-rule="nonzero"/><path fill="#2b2c3b" d="M 165.617188 264.886719 C 165.566406 264.886719 165.550781 264.832031 165.578125 264.765625 L 167.28125 261.050781 C 167.3125 260.984375 167.375 260.933594 167.421875 260.933594 L 178.4375 260.933594 C 178.484375 260.933594 178.507812 260.984375 178.484375 261.050781 L 177.179688 264.765625 C 177.15625 264.832031 177.097656 264.886719 177.046875 264.886719 L 165.617188 264.886719 " fill-opacity="1" fill-rule="nonzero"/><path fill="#21212a" d="M 177.089844 264.765625 L 165.667969 264.765625 L 166.039062 263.953125 L 177.375 263.953125 L 177.089844 264.765625 " fill-opacity="1" fill-rule="nonzero"/><path fill="#2b2c3b" d="M 178.339844 264.886719 C 178.292969 264.886719 178.269531 264.832031 178.292969 264.765625 L 179.558594 261.050781 C 179.578125 260.984375 179.636719 260.933594 179.683594 260.933594 L 190.699219 260.933594 C 190.746094 260.933594 190.773438 260.984375 190.761719 261.050781 L 189.890625 264.765625 C 189.875 264.832031 189.824219 264.886719 189.773438 264.886719 L 178.339844 264.886719 " fill-opacity="1" fill-rule="nonzero"/><path fill="#21212a" d="M 189.800781 264.765625 L 178.382812 264.765625 L 178.65625 263.953125 L 189.992188 263.953125 L 189.800781 264.765625 " fill-opacity="1" fill-rule="nonzero"/><path fill="#2b2c3b" d="M 191.070312 264.886719 C 191.015625 264.886719 190.988281 264.832031 191.003906 264.765625 L 191.832031 261.050781 C 191.847656 260.984375 191.898438 260.933594 191.949219 260.933594 L 202.960938 260.933594 C 203.011719 260.933594 203.042969 260.984375 203.035156 261.050781 L 202.601562 264.765625 C 202.597656 264.832031 202.550781 264.886719 202.496094 264.886719 L 191.070312 264.886719 " fill-opacity="1" fill-rule="nonzero"/><path fill="#21212a" d="M 202.511719 264.765625 L 191.09375 264.765625 L 191.277344 263.953125 L 202.609375 263.953125 L 202.511719 264.765625 " fill-opacity="1" fill-rule="nonzero"/><path fill="#2b2c3b" d="M 203.792969 264.886719 C 203.742188 264.886719 203.707031 264.832031 203.714844 264.765625 L 204.109375 261.050781 C 204.117188 260.984375 204.160156 260.933594 204.210938 260.933594 L 215.226562 260.933594 C 215.273438 260.933594 215.3125 260.984375 215.3125 261.050781 L 215.316406 264.765625 C 215.316406 264.832031 215.273438 264.886719 215.226562 264.886719 L 203.792969 264.886719 " fill-opacity="1" fill-rule="nonzero"/><path fill="#21212a" d="M 215.226562 264.765625 L 203.804688 264.765625 L 203.890625 263.953125 L 215.226562 263.953125 L 215.226562 264.765625 " fill-opacity="1" fill-rule="nonzero"/><path fill="#2b2c3b" d="M 216.519531 264.886719 C 216.46875 264.886719 216.425781 264.832031 216.425781 264.765625 L 216.382812 261.050781 C 216.382812 260.984375 216.421875 260.933594 216.472656 260.933594 L 227.488281 260.933594 C 227.535156 260.933594 227.578125 260.984375 227.589844 261.050781 L 228.027344 264.765625 C 228.035156 264.832031 228.003906 264.886719 227.953125 264.886719 L 216.519531 264.886719 " fill-opacity="1" fill-rule="nonzero"/><path fill="#21212a" d="M 227.9375 264.765625 L 216.519531 264.765625 L 216.507812 263.953125 L 227.839844 263.953125 L 227.9375 264.765625 " fill-opacity="1" fill-rule="nonzero"/><path fill="#2b2c3b" d="M 229.246094 264.886719 C 229.195312 264.886719 229.148438 264.832031 229.136719 264.765625 L 228.664062 261.050781 C 228.652344 260.984375 228.683594 260.933594 228.730469 260.933594 L 239.746094 260.933594 C 239.796875 260.933594 239.847656 260.984375 239.863281 261.050781 L 240.738281 264.765625 C 240.753906 264.832031 240.726562 264.886719 240.675781 264.886719 L 229.246094 264.886719 " fill-opacity="1" fill-rule="nonzero"/><path fill="#21212a" d="M 240.648438 264.765625 L 229.230469 264.765625 L 229.125 263.953125 L 240.457031 263.953125 L 240.648438 264.765625 " fill-opacity="1" fill-rule="nonzero"/><path fill="#2b2c3b" d="M 241.96875 264.886719 C 241.921875 264.886719 241.867188 264.832031 241.851562 264.765625 L 240.9375 261.050781 C 240.921875 260.984375 240.945312 260.933594 240.992188 260.933594 L 252.007812 260.933594 C 252.058594 260.933594 252.117188 260.984375 252.136719 261.050781 L 253.453125 264.765625 C 253.472656 264.832031 253.453125 264.886719 253.402344 264.886719 L 241.96875 264.886719 " fill-opacity="1" fill-rule="nonzero"/><path fill="#21212a" d="M 253.363281 264.765625 L 241.941406 264.765625 L 241.742188 263.953125 L 253.074219 263.953125 L 253.363281 264.765625 " fill-opacity="1" fill-rule="nonzero"/><path fill="#2b2c3b" d="M 254.695312 264.886719 C 254.648438 264.886719 254.585938 264.832031 254.5625 264.765625 L 253.210938 261.050781 C 253.191406 260.984375 253.207031 260.933594 253.257812 260.933594 L 264.269531 260.933594 C 264.320312 260.933594 264.386719 260.984375 264.414062 261.050781 L 266.164062 264.765625 C 266.195312 264.832031 266.179688 264.886719 266.128906 264.886719 L 254.695312 264.886719 " fill-opacity="1" fill-rule="nonzero"/><path fill="#21212a" d="M 266.070312 264.765625 L 254.652344 264.765625 L 254.359375 263.953125 L 265.691406 263.953125 L 266.070312 264.765625 " fill-opacity="1" fill-rule="nonzero"/><path fill="#2b2c3b" d="M 256.304688 283.539062 C 256.246094 283.539062 256.183594 283.484375 256.160156 283.417969 L 254.960938 279.703125 C 254.9375 279.636719 254.96875 279.582031 255.027344 279.582031 L 263.257812 279.582031 C 263.316406 279.582031 263.382812 279.636719 263.410156 279.703125 L 264.863281 283.417969 C 264.886719 283.484375 264.859375 283.539062 264.804688 283.539062 L 256.304688 283.539062 " fill-opacity="1" fill-rule="nonzero"/><path fill="#21212a" d="M 264.757812 283.417969 L 256.265625 283.417969 L 256.003906 282.605469 L 264.441406 282.605469 L 264.757812 283.417969 " fill-opacity="1" fill-rule="nonzero"/><path fill="#2b2c3b" d="M 266.390625 283.539062 C 266.332031 283.539062 266.261719 283.484375 266.234375 283.417969 L 264.742188 279.703125 C 264.714844 279.636719 264.738281 279.582031 264.796875 279.582031 L 273.027344 279.582031 C 273.085938 279.582031 273.160156 279.636719 273.1875 279.703125 L 274.9375 283.417969 C 274.96875 283.484375 274.949219 283.539062 274.886719 283.539062 L 266.390625 283.539062 " fill-opacity="1" fill-rule="nonzero"/><path fill="#21212a" d="M 274.832031 283.417969 L 266.34375 283.417969 L 266.015625 282.605469 L 274.449219 282.605469 L 274.832031 283.417969 " fill-opacity="1" fill-rule="nonzero"/><path fill="#3f4a5c" d="M 183.753906 293.957031 C 182.671875 293.957031 181.671875 293.566406 181.855469 292.820312 L 183.652344 285.460938 C 183.835938 284.71875 184.949219 284.328125 185.957031 284.328125 L 231.019531 284.328125 C 232.027344 284.328125 233.101562 284.71875 233.203125 285.460938 L 234.230469 292.820312 C 234.335938 293.566406 233.292969 293.957031 232.210938 293.957031 L 183.753906 293.957031 " fill-opacity="1" fill-rule="nonzero"/><path fill="#303e4d" d="M 274.980469 211.992188 L 143.417969 175.488281 L 143.417969 166.082031 C 143.417969 164.316406 144.878906 162.890625 146.683594 162.890625 L 271.714844 162.890625 C 273.519531 162.890625 274.980469 164.316406 274.980469 166.082031 L 274.980469 211.992188 " fill-opacity="1" fill-rule="nonzero"/><g clip-path="url(#9861453f9a)"><path fill="#d1eaf9" d="M 303.269531 209.484375 C 303.269531 209.84375 302.976562 210.136719 302.617188 210.136719 L 217.207031 210.136719 C 216.847656 210.136719 216.554688 209.84375 216.554688 209.484375 L 216.554688 177.46875 C 216.554688 177.109375 216.847656 176.816406 217.207031 176.816406 L 302.617188 176.816406 C 302.976562 176.816406 303.269531 177.109375 303.269531 177.46875 L 303.269531 209.484375 " fill-opacity="1" fill-rule="nonzero"/></g><g clip-path="url(#a9e1a98f39)"><path fill="#61a6cc" d="M 302.617188 176.816406 L 217.207031 176.816406 C 216.847656 176.816406 216.554688 177.109375 216.554688 177.46875 L 216.554688 185.652344 L 303.269531 185.652344 L 303.269531 177.46875 C 303.269531 177.109375 302.976562 176.816406 302.617188 176.816406 " fill-opacity="1" fill-rule="nonzero"/></g><path fill="#ffffff" d="M 285.433594 180.878906 C 285.433594 182.035156 284.496094 182.972656 283.339844 182.972656 C 282.183594 182.972656 281.246094 182.035156 281.246094 180.878906 C 281.246094 179.726562 282.183594 178.789062 283.339844 178.789062 C 284.496094 178.789062 285.433594 179.726562 285.433594 180.878906 " fill-opacity="1" fill-rule="nonzero"/><path fill="#ffffff" d="M 292.820312 180.878906 C 292.820312 182.035156 291.882812 182.972656 290.730469 182.972656 C 289.574219 182.972656 288.636719 182.035156 288.636719 180.878906 C 288.636719 179.726562 289.574219 178.789062 290.730469 178.789062 C 291.882812 178.789062 292.820312 179.726562 292.820312 180.878906 " fill-opacity="1" fill-rule="nonzero"/><path fill="#ffffff" d="M 300.210938 180.878906 C 300.210938 182.035156 299.273438 182.972656 298.121094 182.972656 C 296.964844 182.972656 296.027344 182.035156 296.027344 180.878906 C 296.027344 179.726562 296.964844 178.789062 298.121094 178.789062 C 299.273438 178.789062 300.210938 179.726562 300.210938 180.878906 " fill-opacity="1" fill-rule="nonzero"/><path fill="#ffffff" d="M 295.917969 201.335938 C 295.917969 201.695312 295.625 201.988281 295.265625 201.988281 L 224.558594 201.988281 C 224.199219 201.988281 223.910156 201.695312 223.910156 201.335938 L 223.910156 191.554688 C 223.910156 191.195312 224.199219 190.902344 224.558594 190.902344 L 295.265625 190.902344 C 295.625 190.902344 295.917969 191.195312 295.917969 191.554688 L 295.917969 201.335938 " fill-opacity="1" fill-rule="nonzero"/><path fill="#3a3248" d="M 232.566406 192.425781 L 232.566406 200.464844 C 232.566406 200.644531 232.710938 200.792969 232.890625 200.792969 C 233.070312 200.792969 233.21875 200.644531 233.21875 200.464844 L 233.21875 192.425781 C 233.21875 192.246094 233.070312 192.097656 232.890625 192.097656 C 232.710938 192.097656 232.566406 192.246094 232.566406 192.425781 " fill-opacity="1" fill-rule="nonzero"/><path fill="#3a3248" d="M 228.871094 196.773438 L 236.910156 196.773438 C 237.089844 196.773438 237.238281 196.625 237.238281 196.445312 C 237.238281 196.265625 237.089844 196.117188 236.910156 196.117188 L 228.871094 196.117188 C 228.691406 196.117188 228.546875 196.265625 228.546875 196.445312 C 228.546875 196.625 228.691406 196.773438 228.871094 196.773438 " fill-opacity="1" fill-rule="nonzero"/><path fill="#3a3248" d="M 230.277344 199.519531 L 235.964844 193.832031 C 236.089844 193.707031 236.089844 193.5 235.964844 193.371094 C 235.835938 193.246094 235.628906 193.246094 235.503906 193.371094 L 229.816406 199.058594 C 229.691406 199.183594 229.691406 199.390625 229.816406 199.519531 C 229.945312 199.644531 230.152344 199.644531 230.277344 199.519531 " fill-opacity="1" fill-rule="nonzero"/><path fill="#3a3248" d="M 229.816406 193.832031 L 235.503906 199.519531 C 235.628906 199.644531 235.835938 199.644531 235.964844 199.519531 C 236.089844 199.390625 236.089844 199.183594 235.964844 199.058594 L 230.277344 193.371094 C 230.152344 193.246094 229.945312 193.246094 229.816406 193.371094 C 229.691406 193.5 229.691406 193.707031 229.816406 193.832031 " fill-opacity="1" fill-rule="nonzero"/><path fill="#3a3248" d="M 242.5625 192.425781 L 242.5625 200.464844 C 242.5625 200.644531 242.710938 200.792969 242.890625 200.792969 C 243.070312 200.792969 243.214844 200.644531 243.214844 200.464844 L 243.214844 192.425781 C 243.214844 192.246094 243.070312 192.097656 242.890625 192.097656 C 242.710938 192.097656 242.5625 192.246094 242.5625 192.425781 " fill-opacity="1" fill-rule="nonzero"/><path fill="#3a3248" d="M 238.867188 196.773438 L 246.910156 196.773438 C 247.089844 196.773438 247.234375 196.625 247.234375 196.445312 C 247.234375 196.265625 247.089844 196.117188 246.910156 196.117188 L 238.867188 196.117188 C 238.6875 196.117188 238.542969 196.265625 238.542969 196.445312 C 238.542969 196.625 238.6875 196.773438 238.867188 196.773438 " fill-opacity="1" fill-rule="nonzero"/><path fill="#3a3248" d="M 240.277344 199.519531 L 245.964844 193.832031 C 246.089844 193.707031 246.089844 193.5 245.964844 193.371094 C 245.832031 193.246094 245.625 193.246094 245.5 193.371094 L 239.816406 199.058594 C 239.6875 199.183594 239.6875 199.390625 239.816406 199.519531 C 239.941406 199.644531 240.148438 199.644531 240.277344 199.519531 " fill-opacity="1" fill-rule="nonzero"/><path fill="#3a3248" d="M 239.816406 193.832031 L 245.5 199.519531 C 245.625 199.644531 245.832031 199.644531 245.964844 199.519531 C 246.089844 199.390625 246.089844 199.183594 245.964844 199.058594 L 240.277344 193.371094 C 240.148438 193.246094 239.941406 193.246094 239.816406 193.371094 C 239.6875 193.5 239.6875 193.707031 239.816406 193.832031 " fill-opacity="1" fill-rule="nonzero"/><path fill="#3a3248" d="M 252.558594 192.425781 L 252.558594 200.464844 C 252.558594 200.644531 252.707031 200.792969 252.886719 200.792969 C 253.066406 200.792969 253.210938 200.644531 253.210938 200.464844 L 253.210938 192.425781 C 253.210938 192.246094 253.066406 192.097656 252.886719 192.097656 C 252.707031 192.097656 252.558594 192.246094 252.558594 192.425781 " fill-opacity="1" fill-rule="nonzero"/><path fill="#3a3248" d="M 248.867188 196.773438 L 256.910156 196.773438 C 257.089844 196.773438 257.234375 196.625 257.234375 196.445312 C 257.234375 196.265625 257.089844 196.117188 256.910156 196.117188 L 248.867188 196.117188 C 248.6875 196.117188 248.539062 196.265625 248.539062 196.445312 C 248.539062 196.625 248.6875 196.773438 248.867188 196.773438 " fill-opacity="1" fill-rule="nonzero"/><path fill="#3a3248" d="M 250.273438 199.519531 L 255.957031 193.832031 C 256.085938 193.707031 256.085938 193.5 255.957031 193.371094 C 255.832031 193.246094 255.625 193.246094 255.496094 193.371094 L 249.8125 199.058594 C 249.683594 199.183594 249.683594 199.390625 249.8125 199.519531 C 249.9375 199.644531 250.144531 199.644531 250.273438 199.519531 " fill-opacity="1" fill-rule="nonzero"/><path fill="#3a3248" d="M 249.8125 193.832031 L 255.496094 199.519531 C 255.625 199.644531 255.832031 199.644531 255.957031 199.519531 C 256.085938 199.390625 256.085938 199.183594 255.957031 199.058594 L 250.273438 193.371094 C 250.144531 193.246094 249.9375 193.246094 249.8125 193.371094 C 249.683594 193.5 249.683594 193.707031 249.8125 193.832031 " fill-opacity="1" fill-rule="nonzero"/><path fill="#3a3248" d="M 262.558594 192.425781 L 262.558594 200.464844 C 262.558594 200.644531 262.703125 200.792969 262.886719 200.792969 C 263.066406 200.792969 263.210938 200.644531 263.210938 200.464844 L 263.210938 192.425781 C 263.210938 192.246094 263.066406 192.097656 262.886719 192.097656 C 262.703125 192.097656 262.558594 192.246094 262.558594 192.425781 " fill-opacity="1" fill-rule="nonzero"/><path fill="#3a3248" d="M 258.863281 196.773438 L 266.902344 196.773438 C 267.085938 196.773438 267.230469 196.625 267.230469 196.445312 C 267.230469 196.265625 267.085938 196.117188 266.902344 196.117188 L 258.863281 196.117188 C 258.679688 196.117188 258.535156 196.265625 258.535156 196.445312 C 258.535156 196.625 258.679688 196.773438 258.863281 196.773438 " fill-opacity="1" fill-rule="nonzero"/><path fill="#3a3248" d="M 260.273438 199.519531 L 265.957031 193.832031 C 266.082031 193.707031 266.082031 193.5 265.957031 193.371094 C 265.828125 193.246094 265.621094 193.246094 265.496094 193.371094 L 259.8125 199.058594 C 259.683594 199.183594 259.683594 199.390625 259.8125 199.519531 C 259.9375 199.644531 260.144531 199.644531 260.273438 199.519531 " fill-opacity="1" fill-rule="nonzero"/><path fill="#3a3248" d="M 259.8125 193.832031 L 265.496094 199.519531 C 265.621094 199.644531 265.828125 199.644531 265.957031 199.519531 C 266.082031 199.390625 266.082031 199.183594 265.957031 199.058594 L 260.273438 193.371094 C 260.144531 193.246094 259.9375 193.246094 259.8125 193.371094 C 259.683594 193.5 259.683594 193.707031 259.8125 193.832031 " fill-opacity="1" fill-rule="nonzero"/><path fill="#3a3248" d="M 268.785156 200.792969 L 276.828125 200.792969 C 277.007812 200.792969 277.15625 200.644531 277.15625 200.464844 C 277.15625 200.285156 277.007812 200.140625 276.828125 200.140625 L 268.785156 200.140625 C 268.605469 200.140625 268.460938 200.285156 268.460938 200.464844 C 268.460938 200.644531 268.605469 200.792969 268.785156 200.792969 " fill-opacity="1" fill-rule="nonzero"/><path fill="#3a3248" d="M 278.640625 200.792969 L 286.679688 200.792969 C 286.859375 200.792969 287.007812 200.644531 287.007812 200.464844 C 287.007812 200.285156 286.859375 200.140625 286.679688 200.140625 L 278.640625 200.140625 C 278.460938 200.140625 278.3125 200.285156 278.3125 200.464844 C 278.3125 200.644531 278.460938 200.792969 278.640625 200.792969 " fill-opacity="1" fill-rule="nonzero"/><path fill="#59c7ba" d="M 141.65625 137.53125 C 141.65625 154.261719 128.09375 167.824219 111.363281 167.824219 C 94.632812 167.824219 81.066406 154.261719 81.066406 137.53125 C 81.066406 120.800781 94.632812 107.238281 111.363281 107.238281 C 128.09375 107.238281 141.65625 120.800781 141.65625 137.53125 " fill-opacity="1" fill-rule="nonzero"/><path fill="#a2e1f0" d="M 104.394531 129.652344 L 104.394531 121.5625 C 104.394531 117.71875 107.523438 114.59375 111.363281 114.59375 C 115.207031 114.59375 118.335938 117.71875 118.335938 121.5625 L 118.335938 129.652344 L 122.484375 129.652344 L 122.484375 121.5625 C 122.484375 115.433594 117.492188 110.445312 111.363281 110.445312 C 105.230469 110.445312 100.242188 115.433594 100.242188 121.5625 L 100.242188 129.652344 L 104.394531 129.652344 " fill-opacity="1" fill-rule="nonzero"/><path fill="#75c0ce" d="M 111.5 112.957031 C 106.085938 112.957031 101.683594 117.355469 101.683594 122.769531 L 101.683594 129.652344 L 104.394531 129.652344 L 104.394531 121.5625 C 104.394531 117.71875 107.523438 114.59375 111.363281 114.59375 C 115.207031 114.59375 118.335938 117.71875 118.335938 121.5625 L 118.335938 129.652344 L 121.3125 129.652344 L 121.3125 122.769531 C 121.3125 117.355469 116.90625 112.957031 111.5 112.957031 " fill-opacity="1" fill-rule="nonzero"/><path fill="#f7a849" d="M 106.289062 129.441406 C 106.289062 129.820312 105.980469 130.128906 105.601562 130.128906 L 99.894531 130.128906 C 99.515625 130.128906 99.207031 129.820312 99.207031 129.441406 L 99.207031 128.171875 C 99.207031 127.792969 99.515625 127.480469 99.894531 127.480469 L 105.601562 127.480469 C 105.980469 127.480469 106.289062 127.792969 106.289062 128.171875 L 106.289062 129.441406 " fill-opacity="1" fill-rule="nonzero"/><path fill="#f7a849" d="M 123.523438 129.441406 C 123.523438 129.820312 123.214844 130.128906 122.832031 130.128906 L 117.125 130.128906 C 116.742188 130.128906 116.433594 129.820312 116.433594 129.441406 L 116.433594 128.171875 C 116.433594 127.792969 116.742188 127.480469 117.125 127.480469 L 122.832031 127.480469 C 123.214844 127.480469 123.523438 127.792969 123.523438 128.171875 L 123.523438 129.441406 " fill-opacity="1" fill-rule="nonzero"/><path fill="#ee9d2b" d="M 127.09375 159.167969 C 127.09375 159.546875 126.785156 159.859375 126.402344 159.859375 L 96.324219 159.859375 C 95.941406 159.859375 95.632812 159.546875 95.632812 159.167969 L 95.632812 129.089844 C 95.632812 128.707031 95.941406 128.398438 96.324219 128.398438 L 126.402344 128.398438 C 126.785156 128.398438 127.09375 128.707031 127.09375 129.089844 L 127.09375 159.167969 " fill-opacity="1" fill-rule="nonzero"/><path fill="#dd8e2a" d="M 95.632812 159.167969 L 95.632812 133.773438 C 101.628906 138.828125 114.515625 148.523438 127.09375 150.339844 L 127.09375 156.851562 C 110.214844 154.933594 100.617188 147.835938 95.632812 142.453125 L 95.632812 159.167969 " fill-opacity="1" fill-rule="nonzero"/><path fill="#d1852a" d="M 126.402344 159.859375 L 96.324219 159.859375 C 95.941406 159.859375 95.632812 159.546875 95.632812 159.167969 L 95.632812 142.453125 C 100.617188 147.835938 110.214844 154.933594 127.09375 156.851562 L 127.09375 159.167969 C 127.09375 159.546875 126.785156 159.859375 126.402344 159.859375 " fill-opacity="1" fill-rule="nonzero"/><path fill="#b8712a" d="M 120.40625 145.570312 C 120.40625 150.5625 116.359375 154.613281 111.363281 154.613281 C 106.367188 154.613281 102.316406 150.5625 102.316406 145.570312 C 102.316406 140.574219 106.367188 136.523438 111.363281 136.523438 C 116.359375 136.523438 120.40625 140.574219 120.40625 145.570312 " fill-opacity="1" fill-rule="nonzero"/><path fill="#f7a849" d="M 120.40625 144.128906 C 120.40625 149.125 116.359375 153.171875 111.363281 153.171875 C 106.367188 153.171875 102.316406 149.125 102.316406 144.128906 C 102.316406 139.132812 106.367188 135.085938 111.363281 135.085938 C 116.359375 135.085938 120.40625 139.132812 120.40625 144.128906 " fill-opacity="1" fill-rule="nonzero"/><path fill="#281d19" d="M 113.675781 142.160156 C 113.675781 140.878906 112.640625 139.84375 111.363281 139.84375 C 110.085938 139.84375 109.046875 140.878906 109.046875 142.160156 C 109.046875 143.136719 109.652344 143.96875 110.507812 144.308594 L 110.507812 148.410156 L 112.21875 148.410156 L 112.21875 144.308594 C 113.070312 143.96875 113.675781 143.136719 113.675781 142.160156 " fill-opacity="1" fill-rule="nonzero"/><g clip-path="url(#8ed3d84898)"><path fill="#59c7ba" d="M 131.84375 226.566406 C 131.84375 243.21875 118.34375 256.722656 101.6875 256.722656 C 85.027344 256.722656 71.527344 243.21875 71.527344 226.566406 C 71.527344 209.910156 85.027344 196.410156 101.6875 196.410156 C 118.34375 196.410156 131.84375 209.910156 131.84375 226.566406 " fill-opacity="1" fill-rule="nonzero"/></g><path fill="#a4e0d7" d="M 105.019531 254.175781 C 105.019531 254.429688 104.8125 254.636719 104.558594 254.636719 L 98.914062 254.636719 C 98.660156 254.636719 98.453125 254.429688 98.453125 254.175781 L 98.453125 253.140625 C 98.453125 252.890625 98.660156 252.683594 98.914062 252.683594 L 104.558594 252.683594 C 104.8125 252.683594 105.019531 252.890625 105.019531 253.140625 L 105.019531 254.175781 " fill-opacity="1" fill-rule="nonzero"/><path fill="#699fa2" d="M 108.324219 243.796875 L 101.738281 244.015625 L 95.152344 243.796875 C 95.152344 243.796875 93.105469 251.453125 99.4375 251.96875 L 104.035156 251.96875 C 110.367188 251.453125 108.324219 243.796875 108.324219 243.796875 " fill-opacity="1" fill-rule="nonzero"/><path fill="#e8b22c" d="M 118.128906 215.203125 C 118.128906 206.125 110.765625 198.765625 101.6875 198.765625 C 92.605469 198.765625 85.242188 206.125 85.242188 215.203125 C 85.242188 217.714844 85.804688 220.097656 86.816406 222.226562 C 87.746094 224.691406 91.78125 230.625 91.78125 236.367188 C 91.78125 242.109375 96.375 243.796875 96.375 243.796875 L 106.996094 243.796875 C 106.996094 243.796875 111.59375 242.109375 111.59375 236.367188 C 111.59375 230.625 115.628906 224.691406 116.558594 222.226562 C 117.566406 220.097656 118.128906 217.714844 118.128906 215.203125 " fill-opacity="1" fill-rule="nonzero"/><path fill="#ee9d2b" d="M 112.671875 230.707031 C 107.933594 228.527344 101.691406 226.910156 96.734375 223.988281 C 89.699219 219.835938 89.929688 209.605469 91.03125 202.679688 C 87.492188 205.695312 85.242188 210.1875 85.242188 215.203125 C 85.242188 217.714844 85.804688 220.097656 86.816406 222.226562 C 87.746094 224.691406 91.78125 230.625 91.78125 236.367188 C 91.78125 242.109375 96.375 243.796875 96.375 243.796875 L 106.996094 243.796875 C 106.996094 243.796875 111.59375 242.109375 111.59375 236.367188 C 111.59375 234.453125 112.039062 232.519531 112.671875 230.707031 " fill-opacity="1" fill-rule="nonzero"/><path fill="#94a46b" d="M 106.996094 243.796875 L 96.375 243.796875 C 96.375 243.796875 91.78125 242.109375 91.78125 236.367188 C 91.78125 230.625 87.746094 224.691406 86.816406 222.226562 C 85.804688 220.097656 85.242188 217.714844 85.242188 215.203125 C 85.242188 217.714844 85.804688 220.097656 86.816406 222.226562 C 87.746094 224.691406 91.78125 230.625 91.78125 236.367188 C 91.78125 242.109375 96.375 243.796875 96.375 243.796875 L 106.996094 243.796875 M 85.242188 215.148438 L 85.242188 215.148438 M 85.242188 215.121094 L 85.242188 215.121094 M 85.242188 215.097656 C 85.242188 215.09375 85.242188 215.09375 85.242188 215.09375 C 85.242188 215.09375 85.242188 215.09375 85.242188 215.097656 " fill-opacity="1" fill-rule="nonzero"/><path fill="#d7942a" d="M 85.242188 215.203125 C 85.242188 215.195312 85.242188 215.1875 85.242188 215.175781 C 85.242188 215.183594 85.242188 215.195312 85.242188 215.203125 M 85.242188 215.164062 C 85.242188 215.160156 85.242188 215.15625 85.242188 215.148438 C 85.242188 215.15625 85.242188 215.160156 85.242188 215.164062 M 85.242188 215.132812 C 85.242188 215.132812 85.242188 215.128906 85.242188 215.121094 C 85.242188 215.125 85.242188 215.128906 85.242188 215.132812 M 85.242188 215.105469 C 85.242188 215.101562 85.242188 215.101562 85.242188 215.097656 C 85.242188 215.09375 85.242188 215.09375 85.242188 215.09375 C 85.242188 215.09375 85.242188 215.09375 85.242188 215.089844 C 85.242188 215.097656 85.242188 215.101562 85.242188 215.105469 M 85.242188 215.078125 C 85.242188 215.074219 85.242188 215.074219 85.242188 215.070312 C 85.242188 215.066406 85.242188 215.066406 85.242188 215.0625 C 85.242188 215.066406 85.242188 215.074219 85.242188 215.078125 M 85.242188 215.050781 C 85.242188 215.046875 85.242188 215.039062 85.242188 215.035156 C 85.242188 215.039062 85.242188 215.046875 85.242188 215.050781 M 85.242188 215.019531 C 85.242188 215.015625 85.242188 215.011719 85.242188 215.007812 C 85.242188 215.011719 85.242188 215.015625 85.242188 215.019531 M 85.242188 214.992188 C 85.242188 214.988281 85.246094 214.984375 85.246094 214.984375 C 85.246094 214.984375 85.242188 214.988281 85.242188 214.992188 M 85.246094 214.960938 C 85.246094 214.960938 85.246094 214.957031 85.246094 214.957031 C 85.246094 214.957031 85.246094 214.960938 85.246094 214.960938 M 85.246094 214.933594 L 85.246094 214.933594 M 86.539062 208.796875 C 86.550781 208.773438 86.5625 208.746094 86.570312 208.726562 C 86.5625 208.746094 86.550781 208.773438 86.539062 208.796875 " fill-opacity="1" fill-rule="nonzero"/><path fill="#da8a2a" d="M 106.996094 243.796875 L 96.375 243.796875 C 96.375 243.796875 91.78125 242.109375 91.78125 236.367188 C 91.78125 230.625 87.746094 224.691406 86.816406 222.226562 C 85.804688 220.097656 85.242188 217.714844 85.242188 215.203125 C 85.242188 215.195312 85.242188 215.183594 85.242188 215.175781 C 85.242188 215.171875 85.242188 215.167969 85.242188 215.164062 C 85.242188 215.160156 85.242188 215.15625 85.242188 215.148438 C 85.242188 215.140625 85.242188 215.140625 85.242188 215.132812 C 85.242188 215.128906 85.242188 215.125 85.242188 215.121094 C 85.242188 215.113281 85.242188 215.109375 85.242188 215.105469 C 85.242188 215.101562 85.242188 215.097656 85.242188 215.089844 C 85.242188 215.085938 85.242188 215.082031 85.242188 215.078125 C 85.242188 215.074219 85.242188 215.066406 85.242188 215.0625 C 85.242188 215.058594 85.242188 215.050781 85.242188 215.050781 C 85.242188 215.046875 85.242188 215.039062 85.242188 215.035156 C 85.242188 215.03125 85.242188 215.023438 85.242188 215.019531 C 85.242188 215.015625 85.242188 215.011719 85.242188 215.007812 C 85.242188 215.003906 85.242188 214.996094 85.242188 214.992188 C 85.242188 214.988281 85.246094 214.984375 85.246094 214.984375 C 85.246094 214.976562 85.246094 214.96875 85.246094 214.960938 C 85.246094 214.960938 85.246094 214.957031 85.246094 214.957031 C 85.246094 214.949219 85.246094 214.941406 85.246094 214.933594 C 85.28125 212.761719 85.738281 210.6875 86.539062 208.796875 C 86.550781 208.773438 86.5625 208.746094 86.570312 208.726562 C 87.324219 216.300781 89.851562 228.039062 98.214844 231.542969 C 104.359375 234.121094 108.773438 235.351562 111.585938 236.695312 C 111.414062 242.152344 107.027344 243.789062 106.996094 243.796875 " fill-opacity="1" fill-rule="nonzero"/><path fill="#a4e0d7" d="M 109.140625 245.378906 C 109.140625 245.636719 108.914062 245.839844 108.632812 245.839844 L 94.738281 245.839844 C 94.457031 245.839844 94.230469 245.636719 94.230469 245.378906 L 94.230469 243.03125 C 94.230469 242.777344 94.457031 242.570312 94.738281 242.570312 L 108.632812 242.570312 C 108.914062 242.570312 109.140625 242.777344 109.140625 243.03125 L 109.140625 245.378906 " fill-opacity="1" fill-rule="nonzero"/><path fill="#a4e0d7" d="M 109.140625 249.464844 C 109.140625 249.71875 108.914062 249.925781 108.632812 249.925781 L 94.738281 249.925781 C 94.457031 249.925781 94.230469 249.71875 94.230469 249.464844 L 94.230469 247.117188 C 94.230469 246.859375 94.457031 246.65625 94.738281 246.65625 L 108.632812 246.65625 C 108.914062 246.65625 109.140625 246.859375 109.140625 247.117188 L 109.140625 249.464844 " fill-opacity="1" fill-rule="nonzero"/><path fill="#a4e0d7" d="M 106.476562 253.011719 C 106.476562 253.1875 106.332031 253.332031 106.152344 253.332031 L 97.316406 253.332031 C 97.140625 253.332031 96.996094 253.1875 96.996094 253.011719 L 96.996094 251.355469 C 96.996094 251.179688 97.140625 251.035156 97.316406 251.035156 L 106.152344 251.035156 C 106.332031 251.035156 106.476562 251.179688 106.476562 251.355469 L 106.476562 253.011719 " fill-opacity="1" fill-rule="nonzero"/><path fill="#f8db99" d="M 101.6875 200.265625 C 94.925781 200.265625 89.1875 204.636719 87.140625 210.703125 C 89.890625 206.550781 94.597656 203.8125 99.949219 203.8125 C 108.425781 203.8125 115.292969 210.683594 115.292969 219.15625 C 115.292969 221.5 114.769531 223.722656 113.828125 225.707031 L 113.820312 225.722656 C 114.570312 224.226562 115.25 222.984375 115.566406 222.160156 C 116.503906 220.175781 117.03125 217.953125 117.03125 215.609375 C 117.03125 207.136719 110.164062 200.265625 101.6875 200.265625 " fill-opacity="1" fill-rule="nonzero"/></svg>