<svg xmlns="http://www.w3.org/2000/svg" xmlns:xlink="http://www.w3.org/1999/xlink" width="500" zoomAndPan="magnify" viewBox="0 0 375 374.999991" height="500" preserveAspectRatio="xMidYMid meet" version="1.0"><defs><clipPath id="8ca461de4d"><path d="M 71.332031 92 L 192 92 L 192 191 L 71.332031 191 Z M 71.332031 92 " clip-rule="nonzero"/></clipPath><clipPath id="60909bb252"><path d="M 71.332031 107 L 187 107 L 187 185 L 71.332031 185 Z M 71.332031 107 " clip-rule="nonzero"/></clipPath><clipPath id="6a8ae6cf86"><path d="M 280 202 L 303.832031 202 L 303.832031 276 L 280 276 Z M 280 202 " clip-rule="nonzero"/></clipPath><clipPath id="3fe6416ad4"><path d="M 257 188 L 303.832031 188 L 303.832031 216 L 257 216 Z M 257 188 " clip-rule="nonzero"/></clipPath><clipPath id="e8e40c0f6c"><path d="M 208 210 L 232 210 L 232 283.976562 L 208 283.976562 Z M 208 210 " clip-rule="nonzero"/></clipPath><clipPath id="6feeb9e51a"><path d="M 231 210 L 255 210 L 255 283.976562 L 231 283.976562 Z M 231 210 " clip-rule="nonzero"/></clipPath></defs><g clip-path="url(#8ca461de4d)"><path fill="#6f6ab2" d="M 87.828125 147.878906 C 88.386719 147.59375 88.941406 147.339844 89.488281 147.121094 C 92.179688 133.320312 100.699219 115.507812 112.992188 109.179688 C 118.234375 106.484375 123.109375 105.671875 127.191406 106.480469 C 131.273438 101.472656 136.105469 97.179688 141.390625 94.570312 C 147.082031 91.765625 164.988281 91.203125 169.390625 102.25 C 170.414062 101.507812 171.082031 101.40625 172.164062 100.855469 C 181.082031 96.289062 191.933594 105.421875 191.933594 115.195312 C 191.933594 124.96875 178.789062 132.523438 169.875 137.046875 L 88.878906 182.296875 L 88.875 182.257812 C 88.527344 182.457031 90.90625 190.292969 90.511719 190.324219 C 77.4375 191.371094 71.683594 183.214844 71.683594 173.582031 C 71.683594 163.949219 78.910156 152.441406 87.828125 147.878906 " fill-opacity="1" fill-rule="nonzero"/></g><g clip-path="url(#60909bb252)"><path fill="#6f6ab2" d="M 87.828125 174.378906 C 88.179688 174.199219 88.527344 174.003906 88.875 173.804688 L 88.878906 173.84375 L 169.875 128.507812 C 177.441406 124.660156 183.792969 115.71875 185.539062 107.125 C 185.851562 108.339844 186.019531 109.683594 186.019531 111.160156 C 186.019531 120.933594 178.789062 132.523438 169.875 137.046875 L 88.878906 182.296875 L 88.875 182.257812 C 88.527344 182.457031 88.179688 182.652344 87.828125 182.828125 C 78.910156 187.355469 71.683594 183.214844 71.683594 173.582031 C 71.683594 172.128906 71.851562 170.628906 72.160156 169.121094 C 73.90625 175.828125 80.257812 178.226562 87.828125 174.378906 " fill-opacity="1" fill-rule="nonzero"/></g><path fill="#d7ceeb" d="M 93.8125 153.542969 C 94.375 153.253906 94.925781 153.003906 95.472656 152.785156 C 98.160156 138.980469 106.683594 121.171875 118.976562 114.84375 C 124.21875 112.148438 129.097656 111.332031 133.175781 112.144531 C 137.257812 107.136719 142.132812 102.929688 147.375 100.234375 C 159.75 93.867188 170.097656 98.011719 172.703125 109.34375 C 173.726562 108.597656 174.777344 107.941406 175.859375 107.386719 C 184.773438 102.828125 192.003906 107.050781 192.003906 116.824219 C 192.003906 126.597656 184.773438 138.1875 175.859375 142.710938 L 94.863281 187.960938 L 94.859375 187.921875 C 94.511719 188.121094 94.164062 188.3125 93.8125 188.492188 C 84.894531 193.015625 77.667969 188.875 77.667969 179.246094 C 77.667969 169.613281 84.894531 158.105469 93.8125 153.542969 " fill-opacity="1" fill-rule="nonzero"/><path fill="#baaede" d="M 86.957031 190.324219 C 81.464844 190.324219 77.667969 186.226562 77.667969 179.246094 C 77.667969 179.234375 77.667969 179.222656 77.667969 179.210938 C 77.667969 179.207031 77.667969 179.207031 77.667969 179.203125 C 77.667969 179.195312 77.667969 179.1875 77.667969 179.179688 C 77.667969 179.179688 77.667969 179.171875 77.667969 179.171875 C 77.667969 179.160156 77.667969 179.15625 77.667969 179.144531 C 77.667969 179.140625 77.667969 179.140625 77.667969 179.140625 C 77.671875 177.71875 77.839844 176.257812 78.144531 174.78125 C 79.324219 179.3125 82.605469 181.878906 86.945312 181.878906 C 89.03125 181.878906 91.359375 181.289062 93.8125 180.042969 C 94.164062 179.863281 94.511719 179.667969 94.859375 179.46875 L 94.863281 179.507812 L 175.859375 134.167969 C 183.425781 130.320312 189.777344 121.382812 191.527344 112.789062 C 191.828125 113.980469 192 115.304688 192.003906 116.753906 C 192.003906 116.761719 192.003906 116.765625 192.003906 116.769531 C 192.003906 116.773438 192.003906 116.773438 192.003906 116.773438 C 192.003906 116.777344 192.003906 116.785156 192.003906 116.785156 C 192.003906 116.789062 192.003906 116.792969 192.003906 116.796875 C 192.003906 116.800781 192.003906 116.800781 192.003906 116.804688 C 192.003906 116.8125 192.003906 116.816406 192.003906 116.824219 C 192.003906 126.597656 184.773438 138.1875 175.859375 142.710938 L 94.863281 187.960938 L 94.859375 187.921875 C 94.511719 188.121094 94.164062 188.3125 93.8125 188.492188 C 91.359375 189.734375 89.035156 190.324219 86.957031 190.324219 " fill-opacity="1" fill-rule="nonzero"/><path fill="#d7ceeb" d="M 227.300781 246.527344 L 204.148438 233.15625 L 204.148438 172.921875 L 227.300781 186.367188 L 227.300781 246.527344 " fill-opacity="1" fill-rule="nonzero"/><path fill="#bcb2df" d="M 208.398438 231.851562 L 205.59375 230.230469 L 205.59375 177.519531 L 225.851562 189.28125 L 225.851562 220.464844 L 208.398438 210.328125 L 208.398438 213.71875 L 206.941406 212.875 L 206.941406 215.660156 L 208.398438 216.5 L 208.398438 218.894531 L 206.9375 218.046875 L 206.9375 220.832031 L 208.398438 221.675781 L 208.398438 224.070312 L 206.933594 223.21875 L 206.933594 226.007812 L 208.398438 226.851562 L 208.398438 231.851562 " fill-opacity="1" fill-rule="nonzero"/><path fill="#9284ca" d="M 250.449219 233.296875 L 227.300781 246.527344 L 227.300781 186.367188 L 250.449219 172.921875 L 250.449219 233.296875 " fill-opacity="1" fill-rule="nonzero"/><path fill="#eee8f6" d="M 204.148438 172.921875 L 227.300781 159.628906 L 250.449219 172.921875 L 227.300781 186.367188 L 204.148438 172.921875 " fill-opacity="1" fill-rule="nonzero"/><path fill="#3c3673" d="M 224.496094 194.753906 L 206.953125 184.621094 L 206.953125 181.835938 L 224.496094 192.023438 L 224.496094 194.753906 " fill-opacity="1" fill-rule="nonzero"/><path fill="#3c3673" d="M 224.496094 199.925781 L 206.949219 189.796875 L 206.949219 187.007812 L 224.496094 197.195312 L 224.496094 199.925781 " fill-opacity="1" fill-rule="nonzero"/><path fill="#3c3673" d="M 224.492188 205.101562 L 206.945312 194.96875 L 206.945312 192.179688 L 224.492188 202.367188 L 224.492188 205.101562 " fill-opacity="1" fill-rule="nonzero"/><path fill="#3c3673" d="M 224.488281 210.273438 L 206.945312 200.140625 L 206.945312 197.355469 L 224.488281 207.542969 L 224.488281 210.273438 " fill-opacity="1" fill-rule="nonzero"/><path fill="#3c3673" d="M 224.488281 215.445312 L 206.945312 205.316406 L 206.945312 202.527344 L 224.488281 212.714844 L 224.488281 215.445312 " fill-opacity="1" fill-rule="nonzero"/><path fill="#3c3673" d="M 224.488281 220.621094 L 206.941406 210.488281 L 206.941406 207.699219 L 224.488281 217.886719 L 224.488281 220.621094 " fill-opacity="1" fill-rule="nonzero"/><path fill="#3c3673" d="M 224.484375 225.792969 L 206.941406 215.660156 L 206.941406 212.875 L 224.484375 223.058594 L 224.484375 225.792969 " fill-opacity="1" fill-rule="nonzero"/><path fill="#3c3673" d="M 224.484375 230.964844 L 206.9375 220.832031 L 206.9375 218.046875 L 224.484375 228.230469 L 224.484375 230.964844 " fill-opacity="1" fill-rule="nonzero"/><path fill="#3c3673" d="M 224.480469 236.140625 L 206.933594 226.007812 L 206.933594 223.21875 L 224.480469 233.40625 L 224.480469 236.140625 " fill-opacity="1" fill-rule="nonzero"/><path fill="#3c3673" d="M 248.679688 215.394531 L 248.679688 232.105469 L 247.234375 232.941406 L 247.234375 216.230469 L 248.679688 215.394531 " fill-opacity="1" fill-rule="nonzero"/><path fill="#3c3673" d="M 246.191406 216.664062 L 246.191406 233.375 L 244.746094 234.210938 L 244.746094 217.5 L 246.191406 216.664062 " fill-opacity="1" fill-rule="nonzero"/><path fill="#3c3673" d="M 243.613281 217.917969 L 243.613281 234.628906 L 242.171875 235.460938 L 242.171875 218.75 L 243.613281 217.917969 " fill-opacity="1" fill-rule="nonzero"/><path fill="#3c3673" d="M 241.445312 219.167969 L 241.445312 235.882812 L 240 236.714844 L 240 220.003906 L 241.445312 219.167969 " fill-opacity="1" fill-rule="nonzero"/><path fill="#d7ceeb" d="M 280.273438 275.832031 L 257.125 262.460938 L 257.125 202.226562 L 280.273438 215.667969 L 280.273438 275.832031 " fill-opacity="1" fill-rule="nonzero"/><path fill="#bcb2df" d="M 278.828125 271.234375 L 258.570312 259.535156 L 258.570312 206.824219 L 278.828125 218.585938 L 278.828125 271.234375 " fill-opacity="1" fill-rule="nonzero"/><g clip-path="url(#6a8ae6cf86)"><path fill="#9284ca" d="M 303.425781 262.597656 L 280.273438 275.832031 L 280.273438 215.667969 L 303.425781 202.226562 L 303.425781 262.597656 " fill-opacity="1" fill-rule="nonzero"/></g><g clip-path="url(#3fe6416ad4)"><path fill="#eee8f6" d="M 257.125 202.226562 L 280.273438 188.929688 L 303.425781 202.226562 L 280.273438 215.667969 L 257.125 202.226562 " fill-opacity="1" fill-rule="nonzero"/></g><path fill="#3c3673" d="M 277.472656 224.058594 L 259.929688 213.925781 L 259.929688 211.136719 L 277.472656 221.324219 L 277.472656 224.058594 " fill-opacity="1" fill-rule="nonzero"/><path fill="#3c3673" d="M 277.472656 229.230469 L 259.925781 219.097656 L 259.925781 216.3125 L 277.472656 226.496094 L 277.472656 229.230469 " fill-opacity="1" fill-rule="nonzero"/><path fill="#3c3673" d="M 277.46875 234.402344 L 259.925781 224.269531 L 259.925781 221.484375 L 277.46875 231.667969 L 277.46875 234.402344 " fill-opacity="1" fill-rule="nonzero"/><path fill="#3c3673" d="M 277.464844 239.578125 L 259.921875 229.441406 L 259.921875 226.65625 L 277.464844 236.84375 L 277.464844 239.578125 " fill-opacity="1" fill-rule="nonzero"/><path fill="#3c3673" d="M 277.464844 244.75 L 259.917969 234.617188 L 259.917969 231.832031 L 277.464844 242.015625 L 277.464844 244.75 " fill-opacity="1" fill-rule="nonzero"/><path fill="#3c3673" d="M 277.460938 249.921875 L 259.917969 239.789062 L 259.917969 237.003906 L 277.460938 247.191406 L 277.460938 249.921875 " fill-opacity="1" fill-rule="nonzero"/><path fill="#3c3673" d="M 277.460938 255.09375 L 259.917969 244.960938 L 259.917969 242.175781 L 277.460938 252.363281 L 277.460938 255.09375 " fill-opacity="1" fill-rule="nonzero"/><path fill="#3c3673" d="M 277.460938 260.269531 L 259.914062 250.136719 L 259.914062 247.347656 L 277.460938 257.539062 L 277.460938 260.269531 " fill-opacity="1" fill-rule="nonzero"/><path fill="#3c3673" d="M 277.457031 265.441406 L 259.910156 255.308594 L 259.910156 252.523438 L 277.457031 262.710938 L 277.457031 265.441406 " fill-opacity="1" fill-rule="nonzero"/><path fill="#3c3673" d="M 301.65625 244.699219 L 301.65625 261.410156 L 300.210938 262.246094 L 300.210938 245.53125 L 301.65625 244.699219 " fill-opacity="1" fill-rule="nonzero"/><path fill="#3c3673" d="M 299.167969 245.964844 L 299.167969 262.679688 L 297.722656 263.511719 L 297.722656 246.800781 L 299.167969 245.964844 " fill-opacity="1" fill-rule="nonzero"/><path fill="#3c3673" d="M 296.59375 247.21875 L 296.59375 263.929688 L 295.148438 264.765625 L 295.148438 248.054688 L 296.59375 247.21875 " fill-opacity="1" fill-rule="nonzero"/><path fill="#3c3673" d="M 294.421875 248.476562 L 294.421875 265.1875 L 292.976562 266.019531 L 292.976562 249.308594 L 294.421875 248.476562 " fill-opacity="1" fill-rule="nonzero"/><g clip-path="url(#e8e40c0f6c)"><path fill="#d7ceeb" d="M 231.546875 283.933594 L 208.398438 270.5625 L 208.398438 210.328125 L 231.546875 223.769531 L 231.546875 283.933594 " fill-opacity="1" fill-rule="nonzero"/></g><path fill="#bcb2df" d="M 230.101562 279.335938 L 209.84375 267.636719 L 209.84375 214.925781 L 230.101562 226.6875 L 230.101562 279.335938 " fill-opacity="1" fill-rule="nonzero"/><g clip-path="url(#6feeb9e51a)"><path fill="#9284ca" d="M 254.695312 270.699219 L 231.546875 283.933594 L 231.546875 223.769531 L 254.695312 210.328125 L 254.695312 270.699219 " fill-opacity="1" fill-rule="nonzero"/></g><path fill="#eee8f6" d="M 208.398438 210.328125 L 231.546875 197.03125 L 254.695312 210.328125 L 231.546875 223.769531 L 208.398438 210.328125 " fill-opacity="1" fill-rule="nonzero"/><path fill="#3c3673" d="M 228.746094 232.160156 L 211.199219 222.027344 L 211.199219 219.238281 L 228.746094 229.425781 L 228.746094 232.160156 " fill-opacity="1" fill-rule="nonzero"/><path fill="#3c3673" d="M 228.742188 237.332031 L 211.195312 227.199219 L 211.195312 224.414062 L 228.742188 234.601562 L 228.742188 237.332031 " fill-opacity="1" fill-rule="nonzero"/><path fill="#3c3673" d="M 228.738281 242.503906 L 211.195312 232.371094 L 211.195312 229.585938 L 228.738281 239.773438 L 228.738281 242.503906 " fill-opacity="1" fill-rule="nonzero"/><path fill="#3c3673" d="M 228.738281 247.675781 L 211.195312 237.542969 L 211.195312 234.761719 L 228.738281 244.945312 L 228.738281 247.675781 " fill-opacity="1" fill-rule="nonzero"/><path fill="#3c3673" d="M 228.738281 252.851562 L 211.191406 242.71875 L 211.191406 239.933594 L 228.738281 250.121094 L 228.738281 252.851562 " fill-opacity="1" fill-rule="nonzero"/><path fill="#3c3673" d="M 228.734375 258.023438 L 211.191406 247.890625 L 211.191406 245.105469 L 228.734375 255.292969 L 228.734375 258.023438 " fill-opacity="1" fill-rule="nonzero"/><path fill="#3c3673" d="M 228.734375 263.199219 L 211.191406 253.0625 L 211.191406 250.277344 L 228.734375 260.464844 L 228.734375 263.199219 " fill-opacity="1" fill-rule="nonzero"/><path fill="#3c3673" d="M 228.730469 268.371094 L 211.183594 258.238281 L 211.183594 255.453125 L 228.730469 265.640625 L 228.730469 268.371094 " fill-opacity="1" fill-rule="nonzero"/><path fill="#3c3673" d="M 228.730469 273.542969 L 211.183594 263.410156 L 211.183594 260.625 L 228.730469 270.8125 L 228.730469 273.542969 " fill-opacity="1" fill-rule="nonzero"/><path fill="#3c3673" d="M 252.929688 252.800781 L 252.929688 269.511719 L 251.484375 270.347656 L 251.484375 253.636719 L 252.929688 252.800781 " fill-opacity="1" fill-rule="nonzero"/><path fill="#3c3673" d="M 250.441406 254.070312 L 250.441406 270.78125 L 248.996094 271.613281 L 248.996094 254.902344 L 250.441406 254.070312 " fill-opacity="1" fill-rule="nonzero"/><path fill="#3c3673" d="M 247.863281 255.320312 L 247.863281 272.03125 L 246.417969 272.867188 L 246.417969 256.15625 L 247.863281 255.320312 " fill-opacity="1" fill-rule="nonzero"/><path fill="#3c3673" d="M 245.695312 256.578125 L 245.695312 273.289062 L 244.25 274.121094 L 244.25 257.410156 L 245.695312 256.578125 " fill-opacity="1" fill-rule="nonzero"/><path fill="#9284ca" d="M 239.449219 126.9375 C 237.132812 126.191406 235.253906 123.730469 235.253906 121.441406 C 235.253906 119.148438 237.132812 117.933594 239.449219 118.722656 C 241.765625 119.511719 243.640625 121.972656 243.640625 124.21875 C 243.640625 126.460938 241.765625 127.679688 239.449219 126.9375 M 233.851562 131.636719 L 236.652344 144.367188 L 239.449219 143.292969 C 239.449219 143.292969 247.324219 136.566406 248.199219 128.019531 C 248.25 127.675781 248.273438 127.316406 248.273438 126.945312 C 248.273438 122.191406 244.414062 117.324219 239.449219 115.59375 C 234.484375 113.863281 227.277344 117.183594 227.824219 121.945312 C 227.867188 122.332031 230.484375 122.234375 230.535156 122.621094 L 233.851562 131.636719 " fill-opacity="1" fill-rule="nonzero"/><path fill="#7772b1" d="M 239.449219 126.9375 C 237.132812 126.191406 235.253906 123.730469 235.253906 121.441406 C 235.253906 120.085938 235.914062 119.113281 236.929688 118.703125 L 236.371094 117.902344 L 231.175781 117.902344 L 230.777344 118.828125 L 232.105469 126.898438 L 232.738281 128.613281 C 234.121094 128.957031 239.046875 130.167969 239.566406 130.058594 C 239.957031 129.976562 240.84375 128.285156 241.429688 127.085938 C 240.839844 127.207031 240.164062 127.167969 239.449219 126.9375 " fill-opacity="1" fill-rule="nonzero"/><path fill="#7772b1" d="M 239.449219 143.292969 C 239.449219 143.292969 247.324219 136.566406 248.199219 128.019531 C 248.210938 127.9375 248.21875 127.851562 248.226562 127.769531 C 246.316406 129.222656 244.359375 128.824219 244.359375 128.824219 L 234.644531 135.230469 L 236.652344 144.367188 L 239.449219 143.292969 " fill-opacity="1" fill-rule="nonzero"/><path fill="#d7ceeb" d="M 236.652344 128.011719 C 234.332031 127.265625 232.457031 124.808594 232.457031 122.515625 C 232.457031 120.226562 234.332031 119.007812 236.652344 119.796875 C 238.964844 120.589844 240.84375 123.046875 240.84375 125.292969 C 240.84375 127.535156 238.964844 128.753906 236.652344 128.011719 M 236.652344 116.667969 C 231.6875 114.9375 227.664062 117.558594 227.664062 122.527344 C 227.664062 122.914062 227.6875 123.304688 227.734375 123.699219 C 228.613281 133.164062 236.652344 144.367188 236.652344 144.367188 C 236.652344 144.367188 244.691406 138.027344 245.566406 129.484375 C 245.617188 129.140625 245.640625 128.78125 245.640625 128.410156 C 245.640625 123.65625 241.613281 118.398438 236.652344 116.667969 " fill-opacity="1" fill-rule="nonzero"/><path fill="#c1b6e1" d="M 236.652344 144.367188 C 236.652344 144.367188 228.613281 133.164062 227.734375 123.699219 C 227.6875 123.304688 227.664062 122.914062 227.664062 122.527344 C 227.664062 122.519531 227.664062 122.515625 227.664062 122.507812 C 227.664062 122.503906 227.664062 122.503906 227.664062 122.503906 C 227.664062 122.496094 227.664062 122.492188 227.664062 122.488281 C 227.664062 121.996094 227.707031 121.527344 227.789062 121.085938 C 229.058594 126.464844 232.535156 135.007812 241.988281 138.5 C 239.546875 142.050781 236.761719 144.28125 236.652344 144.367188 " fill-opacity="1" fill-rule="nonzero"/><path fill="#3c3673" d="M 241.832031 185.984375 L 244.207031 185.984375 C 247.28125 184.054688 252.664062 183.117188 257.417969 183.859375 C 259.875 184.246094 261.839844 185.015625 263.132812 185.984375 L 264.835938 185.984375 L 264.835938 188.734375 C 264.851562 189.304688 264.667969 189.894531 264.269531 190.46875 C 262.355469 193.226562 255.753906 194.742188 249.523438 193.855469 C 244.929688 193.195312 242.054688 191.417969 241.84375 189.421875 L 241.832031 189.421875 L 241.832031 185.984375 " fill-opacity="1" fill-rule="nonzero"/><path fill="#6763a2" d="M 242.671875 184.375 C 240.226562 187.132812 243.292969 190.09375 249.523438 190.980469 C 255.753906 191.871094 262.355469 190.351562 264.269531 187.59375 C 266.179688 184.835938 263.117188 181.878906 257.417969 180.988281 C 251.722656 180.097656 245.121094 181.617188 242.671875 184.375 " fill-opacity="1" fill-rule="nonzero"/><path fill="#d7ceeb" d="M 263.4375 186.566406 C 263.542969 186.277344 263.628906 185.988281 263.703125 185.695312 C 264.949219 181.355469 265.042969 177.34375 261.285156 174.363281 C 257.914062 171.675781 257.765625 167.03125 257.765625 167.03125 C 257.765625 167.03125 257.175781 165.21875 260.480469 162.570312 C 263.59375 160.074219 265.410156 154.308594 264.222656 150.179688 L 254.367188 148.25 L 244.511719 146.375 C 244.347656 146.996094 244.214844 147.589844 244.101562 148.160156 L 243.03125 147.953125 C 241.675781 153.199219 242.800781 157.53125 246.578125 161.046875 C 249.4375 163.703125 249.488281 167.097656 249.488281 167.097656 C 249.488281 167.097656 249.09375 171.109375 246.359375 173.152344 C 240.859375 177.269531 242.101562 182.734375 242.960938 185.371094 C 242.960938 185.371094 244.125 188.097656 250.445312 188.859375 C 253.945312 189.277344 258.523438 189.128906 263.4375 186.566406 " fill-opacity="1" fill-rule="nonzero"/><path fill="#9284ca" d="M 246.78125 157.304688 C 245.007812 159.066406 249.183594 163.703125 252.128906 164.554688 C 256.226562 165.746094 259.839844 162.203125 261.253906 160.417969 C 262.671875 158.636719 260.722656 156.503906 256.90625 155.652344 C 253.09375 154.804688 248.558594 155.542969 246.78125 157.304688 " fill-opacity="1" fill-rule="nonzero"/><path fill="#9284ca" d="M 249.117188 162.753906 C 249.117188 162.753906 254.570312 167.707031 247.132812 176.40625 L 259.214844 176.414062 C 259.214844 176.414062 252.71875 172.144531 257.84375 163.507812 L 249.117188 162.753906 " fill-opacity="1" fill-rule="nonzero"/><path fill="#ffffff" d="M 243.628906 153.261719 C 243.628906 153.261719 245.738281 157.75 247.839844 160.285156 C 249.941406 162.824219 252.886719 167.285156 251.285156 171.199219 C 251.285156 171.199219 254.085938 166.859375 251.285156 160.046875 C 248.492188 153.234375 249.101562 152.363281 249.015625 151.28125 L 243.628906 153.261719 " fill-opacity="1" fill-rule="nonzero"/><path fill="#9284ca" d="M 243.71875 182.296875 C 243.1875 185.320312 245.042969 187.253906 250.222656 187.992188 C 255.40625 188.730469 260.898438 187.472656 262.488281 185.175781 C 264.082031 182.882812 260.609375 174.707031 253.925781 173.855469 C 249.171875 173.246094 244.472656 177.992188 243.71875 182.296875 " fill-opacity="1" fill-rule="nonzero"/><path fill="#3c3673" d="M 241.832031 148.414062 L 244.207031 148.414062 C 247.28125 146.476562 252.664062 145.546875 257.417969 146.289062 C 259.875 146.671875 261.839844 147.441406 263.132812 148.414062 L 264.835938 148.414062 L 264.835938 151.160156 C 264.851562 151.734375 264.667969 152.316406 264.269531 152.894531 C 262.355469 155.652344 255.753906 157.167969 249.523438 156.277344 C 244.929688 155.625 242.054688 153.84375 241.84375 151.847656 L 241.832031 151.847656 L 241.832031 148.414062 " fill-opacity="1" fill-rule="nonzero"/><path fill="#6763a2" d="M 242.671875 146.800781 C 240.226562 149.5625 243.292969 152.519531 249.523438 153.40625 C 255.753906 154.296875 262.355469 152.78125 264.269531 150.023438 C 266.179688 147.265625 263.117188 144.304688 257.417969 143.417969 C 251.722656 142.527344 245.121094 144.039062 242.671875 146.800781 " fill-opacity="1" fill-rule="nonzero"/><path fill="#ffffff" d="M 249.351562 186.664062 C 249.351562 186.664062 245.984375 187.015625 243.628906 184.007812 C 243.628906 184.007812 241.867188 178.949219 249.941406 173.855469 C 249.941406 173.855469 246.402344 182.105469 249.351562 186.664062 " fill-opacity="1" fill-rule="nonzero"/><path fill="#7a74b8" d="M 211.660156 129.019531 L 213.339844 129.964844 L 213.339844 132.550781 L 211.660156 131.605469 Z M 214.894531 130.84375 L 216.578125 131.789062 L 216.578125 134.378906 L 214.894531 133.429688 Z M 218.132812 132.664062 L 219.8125 133.609375 L 219.8125 136.203125 L 218.132812 135.253906 Z M 221.371094 134.488281 L 223.050781 135.433594 L 223.050781 138.03125 L 221.371094 137.082031 Z M 224.605469 136.308594 L 226.285156 137.257812 L 226.285156 139.855469 L 224.605469 138.910156 Z M 226.285156 168.832031 L 224.605469 167.863281 L 224.605469 165.265625 L 226.285156 166.230469 Z M 223.050781 166.96875 L 221.371094 165.996094 L 221.371094 163.402344 L 223.050781 164.367188 Z M 219.8125 165.101562 L 218.132812 164.128906 L 218.132812 161.539062 L 219.8125 162.503906 Z M 216.578125 163.230469 L 214.894531 162.261719 L 214.894531 159.675781 L 216.578125 160.640625 Z M 213.339844 161.363281 L 211.660156 160.394531 L 211.660156 157.8125 L 213.339844 158.777344 Z M 228.835938 138.691406 L 228.835938 137.855469 L 209.109375 126.753906 L 209.109375 127.582031 L 210.101562 128.144531 L 210.101562 130.726562 L 209.109375 130.167969 L 209.109375 156.34375 L 210.101562 156.914062 L 210.101562 159.496094 L 209.109375 158.921875 L 209.109375 160.03125 L 228.835938 171.421875 L 228.835938 170.304688 L 227.84375 169.734375 L 227.84375 167.609375 L 228.835938 167.703125 L 228.835938 141.292969 L 227.84375 140.738281 L 227.84375 138.132812 L 228.835938 138.691406 " fill-opacity="1" fill-rule="nonzero"/><path fill="#4a4893" d="M 207.359375 159.945312 L 227.082031 171.324219 L 228.835938 170.304688 L 209.109375 158.921875 L 207.359375 159.945312 " fill-opacity="1" fill-rule="nonzero"/><path fill="#302a57" d="M 222.855469 168.886719 L 224.570312 167.832031 L 224.570312 166.816406 L 222.828125 166.230469 L 222.855469 168.886719 " fill-opacity="1" fill-rule="nonzero"/><path fill="#302a57" d="M 219.625 167.019531 L 221.339844 165.964844 L 221.339844 164.949219 L 219.59375 164.363281 L 219.625 167.019531 " fill-opacity="1" fill-rule="nonzero"/><path fill="#302a57" d="M 216.378906 165.167969 L 218.09375 164.113281 L 218.09375 163.097656 L 216.347656 162.507812 L 216.378906 165.167969 " fill-opacity="1" fill-rule="nonzero"/><path fill="#302a57" d="M 213.136719 163.300781 L 214.855469 162.246094 L 214.855469 161.230469 L 213.109375 160.640625 L 213.136719 163.300781 " fill-opacity="1" fill-rule="nonzero"/><path fill="#302a57" d="M 209.90625 161.425781 L 211.625 160.371094 L 211.625 159.355469 L 209.878906 158.769531 L 209.90625 161.425781 " fill-opacity="1" fill-rule="nonzero"/><path fill="#262242" d="M 226.089844 170.753906 L 227.84375 169.734375 L 227.847656 167.742188 L 226.089844 168.148438 L 226.089844 170.753906 " fill-opacity="1" fill-rule="nonzero"/><path fill="#4a4893" d="M 207.359375 131.1875 L 209.109375 130.167969 L 228.835938 141.292969 L 227.082031 142.316406 L 207.359375 131.1875 " fill-opacity="1" fill-rule="nonzero"/><path fill="#302a57" d="M 209.910156 132.625 L 211.652344 131.574219 L 211.652344 130.558594 L 209.910156 129.96875 L 209.910156 132.625 " fill-opacity="1" fill-rule="nonzero"/><path fill="#302a57" d="M 213.144531 134.449219 L 214.921875 133.441406 L 214.921875 132.421875 L 213.140625 131.835938 L 213.144531 134.449219 " fill-opacity="1" fill-rule="nonzero"/><path fill="#302a57" d="M 216.382812 136.277344 L 218.15625 135.1875 L 218.15625 134.171875 L 216.28125 132.972656 L 216.382812 136.277344 " fill-opacity="1" fill-rule="nonzero"/><path fill="#302a57" d="M 219.617188 138.085938 L 221.359375 137.035156 L 221.359375 136.019531 L 219.617188 135.429688 L 219.617188 138.085938 " fill-opacity="1" fill-rule="nonzero"/><path fill="#302a57" d="M 222.855469 139.929688 L 224.566406 138.859375 L 224.566406 137.84375 L 222.820312 137.257812 L 222.855469 139.929688 " fill-opacity="1" fill-rule="nonzero"/><path fill="#302a57" d="M 226.089844 141.757812 L 227.84375 140.734375 L 227.84375 138.875 L 226.089844 139.152344 L 226.089844 141.757812 " fill-opacity="1" fill-rule="nonzero"/><path fill="#ffffff" d="M 227.082031 167.886719 L 207.359375 156.535156 L 207.359375 132.292969 L 227.082031 143.429688 L 227.082031 167.886719 " fill-opacity="1" fill-rule="nonzero"/><path fill="#3c3673" d="M 224.535156 140.875 L 222.855469 139.929688 L 222.855469 137.332031 L 224.535156 138.277344 Z M 221.296875 139.050781 L 219.617188 138.105469 L 219.617188 135.507812 L 221.296875 136.453125 Z M 218.0625 137.226562 L 216.382812 136.277344 L 216.382812 133.6875 L 218.0625 134.632812 Z M 214.824219 135.398438 L 213.144531 134.449219 L 213.144531 131.863281 L 214.824219 132.8125 Z M 211.589844 133.574219 L 209.910156 132.625 L 209.910156 130.039062 L 211.589844 130.988281 Z M 226.089844 141.757812 L 226.089844 139.152344 L 227.082031 139.710938 L 227.082031 138.875 L 207.359375 127.777344 L 207.359375 128.605469 L 208.351562 129.164062 L 208.351562 131.746094 L 207.359375 131.1875 L 207.359375 132.292969 L 227.082031 143.429688 L 227.082031 142.316406 L 226.089844 141.757812 " fill-opacity="1" fill-rule="nonzero"/><path fill="#3c3673" d="M 224.535156 169.855469 L 222.855469 168.886719 L 222.855469 166.285156 L 224.535156 167.253906 Z M 221.296875 167.988281 L 219.617188 167.019531 L 219.617188 164.421875 L 221.296875 165.390625 Z M 218.0625 166.121094 L 216.382812 165.152344 L 216.382812 162.558594 L 218.0625 163.527344 Z M 214.824219 164.253906 L 213.144531 163.285156 L 213.144531 160.695312 L 214.824219 161.664062 Z M 211.589844 162.386719 L 209.910156 161.414062 L 209.910156 158.832031 L 211.589844 159.800781 Z M 226.089844 170.753906 L 226.089844 168.148438 L 227.082031 168.722656 L 227.082031 167.886719 L 207.359375 156.535156 L 207.359375 157.363281 L 208.351562 157.9375 L 208.351562 160.519531 L 207.359375 159.945312 L 207.359375 161.050781 L 227.082031 172.441406 L 227.082031 171.324219 L 226.089844 170.753906 " fill-opacity="1" fill-rule="nonzero"/><path fill="#302a57" d="M 213.496094 153.550781 L 212.683594 142.761719 L 213.496094 142.273438 L 220.945312 152.160156 L 220.136719 152.648438 L 213.496094 153.550781 " fill-opacity="1" fill-rule="nonzero"/><path fill="#3c3673" d="M 212.683594 154.039062 L 212.683594 142.761719 L 220.136719 152.648438 Z M 212.683594 154.039062 " fill-opacity="1" fill-rule="nonzero"/><path fill="#4a4893" d="M 207.359375 127.777344 L 209.109375 126.753906 L 228.835938 137.855469 L 227.082031 138.875 L 207.359375 127.777344 " fill-opacity="1" fill-rule="nonzero"/><path fill="#302a57" d="M 227.082031 139.710938 L 228.835938 138.691406 L 228.835938 137.855469 L 227.082031 138.875 L 227.082031 139.710938 " fill-opacity="1" fill-rule="nonzero"/><path fill="#302a57" d="M 227.082031 142.316406 L 227.082031 143.429688 L 228.835938 142.410156 L 228.835938 141.292969 L 227.082031 142.316406 " fill-opacity="1" fill-rule="nonzero"/><path fill="#302a57" d="M 227.082031 167.886719 L 227.082031 168.722656 L 228.835938 167.730469 L 228.835938 166.863281 L 227.082031 167.886719 " fill-opacity="1" fill-rule="nonzero"/><path fill="#302a57" d="M 227.082031 171.324219 L 227.082031 172.441406 L 228.835938 171.421875 L 228.835938 170.304688 L 227.082031 171.324219 " fill-opacity="1" fill-rule="nonzero"/><path fill="#302b57" d="M 177.421875 179.636719 L 177.417969 180.828125 L 177.398438 187.894531 L 177.273438 207.34375 C 176.246094 206.378906 174.886719 205.53125 173.460938 205.054688 C 170.734375 204.128906 168.8125 204.886719 169.171875 206.753906 C 169.535156 208.625 172.035156 210.917969 174.761719 211.867188 C 177.320312 212.753906 179.171875 212.121094 179.097656 210.472656 L 179.097656 210.476562 L 179.296875 189.710938 L 196.878906 199.5625 L 196.671875 217.808594 C 195.671875 216.917969 194.390625 216.160156 193.0625 215.734375 C 190.324219 214.847656 188.390625 215.679688 188.738281 217.597656 C 189.089844 219.519531 191.585938 221.824219 194.320312 222.738281 C 196.917969 223.59375 198.792969 222.867188 198.683594 221.128906 L 198.695312 221.136719 L 198.945312 200.382812 L 199.019531 192.652344 L 199.027344 191.832031 L 177.421875 179.636719 " fill-opacity="1" fill-rule="nonzero"/><path fill="#302b57" d="M 170.0625 204.898438 L 166.929688 206.324219 L 168 207.191406 L 169.898438 206.386719 L 170.0625 204.898438 " fill-opacity="1" fill-rule="nonzero"/><path fill="#302b57" d="M 178.125 212.042969 L 175.453125 213.210938 L 176.074219 210.042969 Z M 178.125 212.042969 " fill-opacity="1" fill-rule="nonzero"/><path fill="#302b57" d="M 186.570312 217.058594 L 189.703125 215.632812 L 190.484375 215.992188 L 188.796875 217.8125 L 186.570312 217.058594 " fill-opacity="1" fill-rule="nonzero"/><path fill="#302b57" d="M 174.378906 181.023438 L 177.421875 179.636719 L 178.863281 192.308594 L 177.5625 209.226562 L 175.277344 206.34375 L 174.378906 181.023438 " fill-opacity="1" fill-rule="nonzero"/><path fill="#302b57" d="M 197.769531 222.792969 L 194.476562 224.289062 L 195.660156 222.03125 Z M 197.769531 222.792969 " fill-opacity="1" fill-rule="nonzero"/><path fill="#3c3673" d="M 174.378906 181.023438 L 174.378906 182.210938 L 174.359375 189.277344 L 174.234375 208.726562 C 173.203125 207.761719 171.84375 206.917969 170.417969 206.4375 C 167.691406 205.511719 165.769531 206.269531 166.132812 208.136719 C 166.496094 210.007812 168.992188 212.300781 171.71875 213.253906 C 174.277344 214.136719 176.128906 213.503906 176.050781 211.855469 L 176.058594 211.859375 L 176.257812 191.09375 L 193.839844 200.945312 L 193.628906 219.191406 C 192.628906 218.304688 191.351562 217.542969 190.019531 217.117188 C 187.28125 216.230469 185.347656 217.0625 185.699219 218.980469 C 186.050781 220.90625 188.589844 223.097656 191.277344 224.117188 C 195.359375 225.667969 195.65625 222.519531 195.65625 222.519531 L 195.90625 201.765625 L 195.980469 194.039062 L 195.988281 193.214844 L 174.378906 181.023438 " fill-opacity="1" fill-rule="nonzero"/><path fill="#302b57" d="M 195.988281 193.214844 L 199.027344 191.832031 L 198.683594 221.425781 L 195.671875 220.773438 L 195.988281 193.214844 " fill-opacity="1" fill-rule="nonzero"/><path fill="#9284ca" d="M 190.5625 181.054688 L 169.976562 169.164062 L 169.976562 145.3125 L 190.5625 157.179688 L 190.5625 181.054688 " fill-opacity="1" fill-rule="nonzero"/><path fill="#6d69ab" d="M 197.421875 177.113281 L 190.5625 181.054688 L 190.5625 155.253906 L 197.421875 153.199219 L 197.421875 177.113281 " fill-opacity="1" fill-rule="nonzero"/><path fill="#b6aede" d="M 190.5625 157.179688 L 169.976562 145.3125 L 176.839844 141.300781 L 197.421875 153.1875 L 190.5625 157.179688 " fill-opacity="1" fill-rule="nonzero"/><path fill="#a598d3" d="M 180.507812 146.515625 L 180.519531 138.105469 C 180.527344 134.109375 182.609375 131.878906 185.164062 133.132812 C 187.71875 134.390625 189.164062 139.152344 189.132812 143.234375 L 189.675781 152.09375 L 189.832031 154.402344 L 192.402344 153.546875 L 192.480469 144.210938 C 192.542969 137.660156 189.269531 130.734375 185.1875 128.773438 C 181.101562 126.8125 175.410156 129.804688 175.410156 136.136719 L 177.777344 145.0625 L 177.933594 147.375 L 180.507812 146.515625 " fill-opacity="1" fill-rule="nonzero"/><path fill="#d7ceeb" d="M 177.933594 147.375 L 177.949219 138.964844 C 177.957031 134.964844 180.039062 132.734375 182.59375 133.992188 C 185.144531 135.246094 187.199219 139.585938 187.167969 143.667969 L 187.101562 152.953125 L 189.832031 154.402344 L 189.910156 145.066406 C 189.972656 138.519531 186.695312 131.59375 182.613281 129.632812 C 178.53125 127.667969 175.207031 131.226562 175.207031 137.5625 L 175.207031 145.921875 L 177.933594 147.375 " fill-opacity="1" fill-rule="nonzero"/><path fill="#6d69ab" d="M 187.417969 165.277344 C 187.417969 169.277344 184.429688 171.417969 180.746094 170.0625 C 177.0625 168.707031 174.078125 164.445312 174.078125 160.546875 C 174.078125 156.648438 177.0625 154.507812 180.746094 155.761719 C 184.429688 157.019531 187.417969 161.28125 187.417969 165.277344 " fill-opacity="1" fill-rule="nonzero"/><path fill="#a598d3" d="M 186.273438 165.566406 C 186.273438 169.5625 183.289062 171.707031 179.605469 170.351562 C 175.917969 168.992188 172.933594 164.730469 172.933594 160.832031 C 172.933594 156.933594 175.917969 154.792969 179.605469 156.050781 C 183.289062 157.308594 186.273438 161.566406 186.273438 165.566406 " fill-opacity="1" fill-rule="nonzero"/><path fill="#3c3673" d="M 181.304688 163.414062 C 181.304688 162.195312 180.332031 160.628906 179.128906 159.917969 C 177.921875 159.207031 176.945312 159.597656 176.945312 160.785156 C 176.945312 161.695312 177.515625 162.820312 178.320312 163.636719 L 178.320312 167.488281 L 179.933594 168.511719 L 179.933594 164.621094 C 180.738281 164.792969 181.304688 164.347656 181.304688 163.414062 " fill-opacity="1" fill-rule="nonzero"/><path fill="#171418" d="M 136.269531 264.429688 L 138.183594 263.878906 L 136.535156 262.609375 L 136.03125 263.75 L 136.269531 264.429688 " fill-opacity="1" fill-rule="nonzero"/><path fill="#292447" d="M 136.257812 264.003906 L 136.269531 264.429688 L 133.011719 263.234375 C 133.011719 263.234375 132.269531 258.277344 133.386719 255.734375 L 139.742188 256.339844 L 140.671875 258.882812 C 140.671875 258.882812 144.585938 262.101562 147.238281 263.765625 C 147.238281 263.765625 148.992188 264.773438 148.835938 266.121094 C 148.835938 266.121094 148.324219 268.585938 144.316406 267.277344 C 144.316406 267.277344 141.476562 266.28125 139.476562 265.445312 C 139.476562 265.445312 137.308594 263.84375 136.257812 264.003906 " fill-opacity="1" fill-rule="nonzero"/><path fill="#1f1c30" d="M 136.257812 264.003906 C 137.308594 263.84375 139.476562 265.445312 139.476562 265.445312 C 141.476562 266.28125 144.316406 267.277344 144.316406 267.277344 C 148.324219 268.585938 148.835938 266.121094 148.835938 266.121094 C 148.867188 265.820312 148.800781 265.539062 148.683594 265.277344 C 147.199219 267.402344 135.054688 260.460938 137.027344 260.460938 C 138.171875 260.460938 139.785156 259.804688 141.050781 259.191406 C 140.8125 258.996094 140.671875 258.882812 140.671875 258.882812 L 139.742188 256.339844 L 133.386719 255.734375 C 132.269531 258.277344 133.011719 263.234375 133.011719 263.234375 L 136.269531 264.429688 L 136.257812 264.003906 " fill-opacity="1" fill-rule="nonzero"/><path fill="#171418" d="M 127.246094 271.417969 L 129.160156 270.867188 L 127.515625 269.597656 L 127.011719 270.738281 L 127.246094 271.417969 " fill-opacity="1" fill-rule="nonzero"/><path fill="#292447" d="M 127.238281 270.996094 L 127.246094 271.417969 L 123.988281 270.222656 C 123.988281 270.222656 123.246094 265.265625 124.363281 262.722656 L 130.714844 263.328125 L 131.648438 265.871094 C 131.648438 265.871094 135.5625 269.089844 138.21875 270.753906 C 138.21875 270.753906 139.96875 271.761719 139.8125 273.113281 C 139.8125 273.113281 139.304688 275.578125 135.292969 274.265625 C 135.292969 274.265625 132.449219 273.273438 130.453125 272.4375 C 130.453125 272.4375 128.285156 270.832031 127.238281 270.996094 " fill-opacity="1" fill-rule="nonzero"/><path fill="#1f1c30" d="M 127.238281 270.996094 C 128.285156 270.832031 130.453125 272.4375 130.453125 272.4375 C 132.449219 273.273438 135.292969 274.265625 135.292969 274.265625 C 139.304688 275.578125 139.8125 273.113281 139.8125 273.113281 C 139.847656 272.808594 139.777344 272.527344 139.660156 272.265625 C 138.175781 274.394531 126.03125 267.449219 128 267.449219 C 129.148438 267.449219 130.761719 266.796875 132.027344 266.179688 C 131.785156 265.984375 131.648438 265.871094 131.648438 265.871094 L 130.714844 263.328125 L 124.363281 262.722656 C 123.246094 265.265625 123.988281 270.222656 123.988281 270.222656 L 127.246094 271.417969 L 127.238281 270.996094 " fill-opacity="1" fill-rule="nonzero"/><path fill="#3c3673" d="M 144.140625 198.039062 C 144.140625 198.039062 142.804688 226.785156 142.046875 231.300781 C 142.046875 231.300781 140.585938 254.742188 140.628906 257.652344 C 140.628906 257.652344 139.367188 259.835938 133.210938 256.050781 C 133.210938 256.050781 132.175781 207.207031 132.167969 204.921875 C 132.152344 202.628906 144.140625 198.039062 144.140625 198.039062 " fill-opacity="1" fill-rule="nonzero"/><path fill="#302b57" d="M 144.140625 198.039062 C 144.140625 198.039062 132.152344 202.628906 132.167969 204.921875 C 132.175781 207.207031 133.210938 256.050781 133.210938 256.050781 C 134.269531 256.707031 135.179688 257.171875 135.96875 257.507812 C 136.601562 254.222656 137.414062 235.867188 137.082031 233.121094 C 136.71875 230.136719 139.160156 206.554688 139.5625 205.609375 C 139.890625 204.832031 142.839844 203.171875 143.878906 202.605469 C 144.039062 199.871094 144.140625 198.039062 144.140625 198.039062 " fill-opacity="1" fill-rule="nonzero"/><path fill="#3c3673" d="M 123.648438 196.722656 C 123.648438 196.722656 123.167969 200.800781 123.980469 210.117188 C 124.789062 219.4375 125.203125 232.3125 125.222656 233.042969 C 125.222656 233.042969 123.699219 236.097656 123.398438 241.632812 C 123.097656 247.164062 124.007812 259.933594 123.660156 263.570312 C 123.660156 263.570312 128.132812 267.402344 131.453125 264.78125 C 131.453125 264.78125 135.832031 207.933594 137.226562 205.605469 C 137.226562 205.605469 140.054688 198.179688 139.214844 195.703125 C 138.375 193.226562 124.527344 194.644531 123.648438 196.722656 " fill-opacity="1" fill-rule="nonzero"/><path fill="#302b57" d="M 125.941406 264.992188 C 124.179688 246.484375 129.0625 236.171875 128.648438 232.132812 C 128.21875 227.984375 128.164062 204.660156 128.164062 204.660156 C 131.3125 205.40625 135.484375 204.582031 137.796875 203.984375 C 138.398438 202.1875 139.261719 199.28125 139.355469 197.242188 L 123.644531 196.773438 C 123.636719 196.820312 123.632812 196.898438 123.625 197 C 123.617188 197.042969 123.617188 197.085938 123.613281 197.144531 L 123.601562 197.273438 C 123.597656 197.335938 123.59375 197.394531 123.589844 197.46875 C 123.585938 197.523438 123.582031 197.585938 123.578125 197.644531 C 123.574219 197.726562 123.570312 197.804688 123.566406 197.898438 C 123.5625 197.964844 123.558594 198.042969 123.554688 198.113281 C 123.550781 198.210938 123.546875 198.308594 123.542969 198.417969 C 123.539062 198.5 123.539062 198.59375 123.535156 198.683594 C 123.53125 198.800781 123.527344 198.914062 123.523438 199.039062 C 123.523438 199.140625 123.519531 199.246094 123.519531 199.355469 C 123.515625 199.484375 123.515625 199.621094 123.511719 199.761719 C 123.511719 199.878906 123.511719 200.003906 123.511719 200.128906 C 123.507812 200.273438 123.507812 200.425781 123.507812 200.582031 C 123.507812 200.714844 123.511719 200.859375 123.511719 201.007812 C 123.511719 201.167969 123.511719 201.339844 123.515625 201.511719 C 123.519531 201.664062 123.519531 201.816406 123.523438 201.980469 C 123.527344 202.164062 123.53125 202.359375 123.535156 202.554688 C 123.539062 202.71875 123.546875 202.890625 123.546875 203.0625 C 123.554688 203.269531 123.566406 203.484375 123.570312 203.699219 C 123.578125 203.882812 123.585938 204.0625 123.59375 204.257812 C 123.601562 204.484375 123.613281 204.726562 123.625 204.972656 C 123.636719 205.164062 123.644531 205.351562 123.65625 205.550781 C 123.667969 205.816406 123.6875 206.097656 123.703125 206.375 C 123.714844 206.570312 123.726562 206.761719 123.738281 206.960938 C 123.757812 207.28125 123.78125 207.613281 123.808594 207.949219 C 123.820312 208.128906 123.832031 208.300781 123.847656 208.484375 C 123.886719 209.011719 123.929688 209.554688 123.980469 210.117188 C 124.789062 219.4375 125.203125 232.3125 125.222656 233.042969 C 125.222656 233.042969 123.699219 236.097656 123.398438 241.632812 C 123.097656 247.164062 124.007812 259.933594 123.660156 263.570312 C 123.660156 263.570312 124.605469 264.375 125.941406 264.992188 " fill-opacity="1" fill-rule="nonzero"/><path fill="#3c3673" d="M 122.378906 161.035156 C 122.378906 161.035156 125.3125 158.371094 132.777344 154.53125 C 134.214844 153.789062 139.136719 154.277344 142.429688 154.203125 C 144.363281 154.160156 148.105469 163.273438 146.191406 173.917969 C 146.191406 173.917969 146.234375 194.882812 145.597656 198.328125 C 145.597656 198.328125 142.003906 202.84375 134.109375 202.839844 C 134.109375 202.839844 128.855469 202.839844 122.773438 198.804688 C 122.773438 198.804688 120.929688 191.066406 123.257812 184.515625 C 123.257812 184.515625 124.785156 178.007812 123.441406 174.246094 C 122.535156 171.71875 119.363281 162.453125 122.378906 161.035156 " fill-opacity="1" fill-rule="nonzero"/><path fill="#f38a60" d="M 138.074219 153.980469 C 138.074219 153.980469 137.816406 156.382812 138.191406 158.761719 C 138.191406 158.761719 137.582031 160.664062 136.875 161.035156 C 136.875 161.035156 131.414062 159.714844 129.152344 156.148438 C 129.152344 156.148438 130.585938 152.628906 129.332031 146.761719 L 130.347656 146.289062 L 138.074219 153.980469 " fill-opacity="1" fill-rule="nonzero"/><path fill="#d06b47" d="M 129.152344 156.148438 C 129.78125 157.144531 130.664062 157.957031 131.605469 158.621094 C 131.054688 156.894531 130.847656 152.8125 130.847656 152.8125 C 133.320312 154.878906 136.476562 155.808594 137.988281 156.15625 C 137.976562 154.898438 138.074219 153.980469 138.074219 153.980469 L 130.347656 146.289062 L 129.332031 146.761719 C 130.585938 152.628906 129.152344 156.148438 129.152344 156.148438 " fill-opacity="1" fill-rule="nonzero"/><path fill="#f89e76" d="M 141.472656 139.3125 L 142.074219 143.882812 C 142.074219 143.882812 142.101562 148.34375 141.742188 150.339844 C 141.742188 150.339844 140.59375 154.5625 140.472656 154.925781 C 140.472656 154.925781 139.269531 155.6875 137.644531 155.28125 C 136.445312 154.984375 132.964844 153.761719 131.640625 151.707031 C 131.640625 151.707031 129.960938 148.824219 129.984375 147.925781 C 129.984375 147.925781 129.617188 148.777344 129.003906 147.699219 C 128.390625 146.625 128.144531 144.558594 128.324219 143.925781 C 128.503906 143.300781 129.339844 143.566406 129.535156 143.566406 C 129.730469 143.566406 130.03125 143.835938 130.195312 144.46875 C 130.355469 145.097656 129.53125 140.199219 130.832031 138.535156 C 132.726562 136.109375 138.5625 135.03125 141.472656 139.3125 " fill-opacity="1" fill-rule="nonzero"/><path fill="#e28158" d="M 141.472656 139.3125 C 138.5625 135.03125 132.726562 136.109375 130.832031 138.535156 C 129.53125 140.199219 130.355469 145.097656 130.195312 144.46875 C 130.03125 143.835938 129.730469 143.566406 129.535156 143.566406 C 129.339844 143.566406 128.503906 143.300781 128.324219 143.925781 C 128.144531 144.558594 128.390625 146.625 129.003906 147.699219 C 129.617188 148.777344 129.984375 147.925781 129.984375 147.925781 C 129.960938 148.824219 131.640625 151.707031 131.640625 151.707031 C 132.964844 153.761719 136.445312 154.984375 137.644531 155.28125 C 139.269531 155.6875 140.472656 154.925781 140.472656 154.925781 C 140.496094 154.855469 140.558594 154.640625 140.640625 154.339844 C 136.550781 154.929688 133.515625 150.714844 133.011719 150.222656 C 132.511719 149.734375 132.226562 146.109375 132.113281 145.324219 C 131.992188 144.539062 134 142.703125 134 142.703125 C 136.386719 143.863281 140.167969 142.140625 141.734375 141.316406 L 141.472656 139.3125 " fill-opacity="1" fill-rule="nonzero"/><path fill="#421f1b" d="M 129.984375 144.125 C 129.984375 144.125 130.226562 145.824219 130.523438 145.96875 C 130.820312 146.117188 131.191406 145.394531 131.085938 144.921875 C 130.976562 144.453125 132.742188 142.738281 132.941406 140.726562 C 132.941406 140.726562 133.734375 141.414062 135.695312 141.558594 C 137.652344 141.707031 140.144531 140.191406 141.410156 139.949219 C 142.675781 139.703125 142.714844 136.445312 141.734375 135.707031 C 141.734375 135.707031 137.308594 131.339844 130.277344 133.652344 C 130.277344 133.652344 125.320312 134.976562 126.210938 143.457031 C 126.210938 143.457031 127.175781 146.953125 128.355469 148.226562 C 128.355469 148.226562 129.726562 150.535156 129.953125 151.609375 C 129.953125 151.609375 130.371094 149.691406 129.984375 147.925781 C 129.984375 147.925781 129.265625 149.441406 128.4375 146.042969 C 128.4375 146.042969 128.019531 143.820312 128.8125 143.527344 C 128.8125 143.527344 129.664062 143.34375 129.984375 144.125 " fill-opacity="1" fill-rule="nonzero"/><path fill="#302b57" d="M 123.742188 199.414062 C 124.003906 199.574219 124.265625 199.726562 124.523438 199.871094 L 124.597656 199.910156 C 124.851562 200.050781 125.105469 200.191406 125.359375 200.316406 L 125.425781 200.351562 C 125.699219 200.492188 125.96875 200.625 126.238281 200.746094 L 126.242188 200.75 C 127.339844 201.261719 128.375 201.644531 129.308594 201.9375 C 128.65625 199.234375 126.921875 191.011719 128.425781 185.332031 C 130.242188 178.453125 126.328125 164.199219 123.414062 161.441406 C 123.058594 161.109375 122.617188 161.003906 122.191406 161.144531 C 120.480469 162.238281 121.09375 166.242188 121.996094 169.648438 C 122.589844 171.75 123.171875 173.492188 123.441406 174.246094 C 124.785156 178.007812 123.257812 184.515625 123.257812 184.515625 C 120.929688 191.066406 122.773438 198.804688 122.773438 198.804688 C 123.042969 198.980469 123.3125 199.148438 123.578125 199.3125 C 123.632812 199.347656 123.6875 199.382812 123.742188 199.414062 " fill-opacity="1" fill-rule="nonzero"/><path fill="#d7ceeb" d="M 129.425781 154.203125 C 129.425781 154.203125 131.8125 158.292969 137.027344 160.257812 C 137.027344 160.257812 137.910156 158.488281 138.121094 156.828125 C 138.121094 156.828125 141.675781 161.171875 142.410156 164.847656 C 142.410156 164.847656 142.628906 173.46875 141.558594 178.601562 C 141.558594 178.601562 132.976562 162.988281 127.730469 157.199219 L 128.605469 154.605469 L 129.425781 154.203125 " fill-opacity="1" fill-rule="nonzero"/><path fill="#302b57" d="M 142.25 172.84375 C 141.5625 171.253906 139.414062 163.21875 139.027344 162.660156 L 137.582031 163.097656 L 138.519531 170.152344 C 138.519531 170.152344 139.007812 172.976562 139.5 174.960938 C 140.757812 177.144531 141.558594 178.601562 141.558594 178.601562 C 142.058594 176.207031 142.160156 175.527344 142.25 172.84375 " fill-opacity="1" fill-rule="nonzero"/><path fill="#302b57" d="M 136.390625 161.808594 L 137.671875 163.75 L 139.269531 163.386719 L 139.238281 161.035156 C 139.238281 161.035156 138.210938 160.109375 137.027344 160.257812 L 136.390625 161.808594 " fill-opacity="1" fill-rule="nonzero"/><path fill="#e8e5f5" d="M 135.59375 163.75 L 137.027344 160.257812 C 131.8125 158.292969 129.425781 154.203125 129.425781 154.203125 L 128.605469 154.605469 L 127.730469 157.199219 C 129.429688 158.945312 135.59375 163.75 135.59375 163.75 " fill-opacity="1" fill-rule="nonzero"/><path fill="#e8e5f5" d="M 138.121094 156.828125 C 137.910156 158.488281 137.027344 160.257812 137.027344 160.257812 C 137.996094 160.402344 141.390625 161.988281 141.402344 161.992188 C 140.09375 159.242188 138.121094 156.828125 138.121094 156.828125 " fill-opacity="1" fill-rule="nonzero"/><path fill="#f89e76" d="M 123.667969 214.515625 C 123.515625 213.789062 123.050781 212.496094 122.835938 212.054688 C 122.621094 211.613281 121.875 208.574219 121.875 208.574219 L 118.707031 208.816406 C 117.496094 211.363281 117.476562 212.464844 117.476562 212.464844 C 117.652344 215.191406 118.675781 218.765625 119.089844 219.472656 C 119.503906 220.183594 120.707031 220.261719 120.707031 220.261719 C 121.105469 220.804688 121.160156 221.367188 121.6875 221.214844 C 122.210938 221.058594 121.496094 218.492188 121.347656 217.875 C 121.199219 217.257812 121.574219 214.671875 121.574219 214.671875 C 121.574219 214.671875 122.175781 214.558594 122.484375 215.144531 C 122.796875 215.730469 123.414062 217.390625 124.058594 217.019531 C 124.058594 217.019531 123.742188 214.863281 123.667969 214.515625 " fill-opacity="1" fill-rule="nonzero"/><path fill="#e28158" d="M 119.386719 219.796875 L 119.503906 219.890625 C 119.570312 219.925781 119.636719 219.960938 119.707031 219.992188 L 119.757812 220.023438 C 119.84375 220.058594 119.929688 220.09375 120.011719 220.121094 C 118.898438 216.957031 119.011719 212.761719 119.011719 212.761719 C 120.058594 212.960938 121.773438 212.308594 122.761719 211.867188 L 122.761719 211.863281 C 122.488281 211.074219 121.875 208.574219 121.875 208.574219 L 118.707031 208.816406 C 117.496094 211.363281 117.476562 212.464844 117.476562 212.464844 C 117.652344 215.191406 118.675781 218.765625 119.089844 219.472656 C 119.140625 219.5625 119.199219 219.636719 119.273438 219.707031 L 119.386719 219.796875 " fill-opacity="1" fill-rule="nonzero"/><path fill="#302b57" d="M 123.183594 161.035156 C 123.183594 161.035156 118.160156 160.914062 117.097656 165.941406 C 116.367188 169.398438 114.769531 188.132812 114.769531 188.132812 C 114.769531 188.132812 116.933594 206.070312 117.519531 208.496094 C 117.519531 208.496094 120.613281 209.78125 122.953125 208.078125 C 122.953125 208.078125 121.976562 189.179688 122.363281 186.980469 C 122.363281 186.980469 125.945312 172.714844 125.03125 168.222656 C 124.121094 163.726562 123.886719 161.207031 123.183594 161.035156 " fill-opacity="1" fill-rule="nonzero"/></svg>