<svg xmlns="http://www.w3.org/2000/svg" xmlns:xlink="http://www.w3.org/1999/xlink" width="500" zoomAndPan="magnify" viewBox="0 0 375 374.999991" height="500" preserveAspectRatio="xMidYMid meet" version="1.0"><defs><clipPath id="45c6d55a7d"><path d="M 73 92.597656 L 266 92.597656 L 266 212 L 73 212 Z M 73 92.597656 " clip-rule="nonzero"/></clipPath><clipPath id="1e72e34c5f"><path d="M 71.585938 243 L 267 243 L 267 280 L 71.585938 280 Z M 71.585938 243 " clip-rule="nonzero"/></clipPath><clipPath id="43b6442cfd"><path d="M 71.585938 279 L 267 279 L 267 282.347656 L 71.585938 282.347656 Z M 71.585938 279 " clip-rule="nonzero"/></clipPath></defs><path fill="#c992e3" d="M 196 227.257812 C 191.148438 225.296875 188.230469 220.050781 188.019531 215.535156 C 187.902344 213.085938 188.234375 211.277344 188.234375 211.277344 L 149.277344 211.277344 C 149.277344 211.277344 149.609375 213.085938 149.492188 215.535156 C 149.277344 220.050781 146.359375 225.296875 141.511719 227.257812 C 141.484375 227.269531 141.453125 227.28125 141.425781 227.292969 L 168.753906 227.285156 L 196.085938 227.292969 C 196.054688 227.28125 196.027344 227.269531 196 227.257812 Z M 196 227.257812 " fill-opacity="1" fill-rule="nonzero"/><g clip-path="url(#45c6d55a7d)"><path fill="#c992e3" d="M 260.992188 211.277344 L 77.445312 211.277344 C 76.335938 211.277344 75.324219 210.851562 74.566406 210.15625 C 73.722656 209.378906 73.195312 208.265625 73.195312 207.027344 L 73.195312 96.875 C 73.195312 95.640625 73.71875 94.53125 74.5625 93.753906 C 75.320312 93.054688 76.332031 92.625 77.445312 92.625 L 260.992188 92.625 C 262.164062 92.625 263.226562 93.101562 263.996094 93.871094 C 264.765625 94.640625 265.242188 95.703125 265.242188 96.875 L 265.242188 207.027344 C 265.242188 208.171875 264.789062 209.210938 264.054688 209.976562 C 263.28125 210.777344 262.195312 211.277344 260.992188 211.277344 Z M 260.992188 211.277344 " fill-opacity="1" fill-rule="nonzero"/></g><path stroke-linecap="butt" transform="matrix(0.472092, 0, 0, 0.472119, 69.227138, 69.442049)" fill-opacity="1" fill="#fcebde" fill-rule="nonzero" stroke-linejoin="miter" d="M 388.934126 285.918882 L 34.676539 285.918882 C 32.185962 285.918882 29.935342 284.909469 28.305297 283.279516 C 26.675252 281.649563 25.674057 279.39907 25.674057 276.916907 L 25.674057 72.618425 C 25.674057 70.177633 26.642155 67.968509 28.206005 66.355103 C 29.844324 64.667233 32.136316 63.616451 34.676539 63.616451 L 388.934126 63.616451 C 391.408154 63.616451 393.642225 64.609316 395.27227 66.222721 C 396.918864 67.852674 397.936608 70.119716 397.936608 72.618425 L 397.936608 276.916907 C 397.936608 279.39907 396.927138 281.649563 395.297093 283.279516 C 393.667048 284.909469 391.416428 285.918882 388.934126 285.918882 Z M 388.934126 285.918882 " stroke="#262420" stroke-width="0.75" stroke-opacity="1" stroke-miterlimit="10"/><g clip-path="url(#1e72e34c5f)"><path fill="#c992e3" d="M 266.847656 279.253906 L 71.585938 279.253906 L 94.671875 245.019531 C 94.972656 244.570312 95.355469 244.195312 95.796875 243.902344 C 96.457031 243.460938 97.242188 243.214844 98.0625 243.214844 L 240.371094 243.214844 C 240.953125 243.214844 241.519531 243.339844 242.035156 243.570312 C 242.726562 243.878906 243.328125 244.375 243.765625 245.019531 Z M 266.847656 279.253906 " fill-opacity="1" fill-rule="nonzero"/></g><path fill="#262420" d="M 215.207031 275.519531 L 88.914062 275.519531 C 88.742188 275.519531 88.578125 275.425781 88.492188 275.273438 C 88.40625 275.125 88.410156 274.9375 88.5 274.789062 L 104.90625 247.1875 C 104.992188 247.042969 105.148438 246.953125 105.320312 246.953125 L 205.808594 246.953125 C 206.015625 246.953125 206.203125 247.082031 206.269531 247.277344 L 215.664062 274.878906 C 215.714844 275.027344 215.691406 275.191406 215.597656 275.316406 C 215.507812 275.445312 215.363281 275.519531 215.207031 275.519531 Z M 89.765625 274.550781 L 214.527344 274.550781 L 205.464844 247.917969 L 105.597656 247.917969 Z M 89.765625 274.550781 " fill-opacity="1" fill-rule="nonzero"/><path fill="#262420" d="M 108.34375 275.519531 C 108.277344 275.519531 108.210938 275.507812 108.144531 275.476562 C 107.902344 275.367188 107.792969 275.082031 107.902344 274.835938 L 120.339844 247.234375 C 120.449219 246.992188 120.734375 246.886719 120.980469 246.992188 C 121.222656 247.105469 121.332031 247.390625 121.222656 247.636719 L 108.785156 275.234375 C 108.703125 275.414062 108.527344 275.519531 108.34375 275.519531 Z M 108.34375 275.519531 " fill-opacity="1" fill-rule="nonzero"/><path fill="#262420" d="M 98.628906 275.519531 C 98.554688 275.519531 98.476562 275.503906 98.40625 275.464844 C 98.167969 275.339844 98.078125 275.046875 98.199219 274.8125 L 112.621094 247.210938 C 112.746094 246.972656 113.039062 246.882812 113.277344 247.007812 C 113.511719 247.128906 113.605469 247.421875 113.480469 247.660156 L 99.058594 275.261719 C 98.972656 275.425781 98.804688 275.519531 98.628906 275.519531 Z M 98.628906 275.519531 " fill-opacity="1" fill-rule="nonzero"/><path fill="#262420" d="M 118.058594 275.519531 C 118 275.519531 117.945312 275.511719 117.886719 275.488281 C 117.636719 275.394531 117.511719 275.113281 117.605469 274.863281 L 128.058594 247.265625 C 128.152344 247.015625 128.429688 246.890625 128.683594 246.984375 C 128.933594 247.078125 129.058594 247.355469 128.964844 247.605469 L 118.511719 275.207031 C 118.4375 275.402344 118.253906 275.519531 118.058594 275.519531 Z M 118.058594 275.519531 " fill-opacity="1" fill-rule="nonzero"/><path fill="#262420" d="M 127.773438 275.519531 C 127.726562 275.519531 127.679688 275.511719 127.632812 275.5 C 127.375 275.421875 127.230469 275.148438 127.3125 274.894531 L 135.777344 247.292969 C 135.855469 247.039062 136.125 246.894531 136.382812 246.972656 C 136.640625 247.050781 136.78125 247.320312 136.703125 247.578125 L 128.234375 275.175781 C 128.171875 275.386719 127.980469 275.519531 127.773438 275.519531 Z M 127.773438 275.519531 " fill-opacity="1" fill-rule="nonzero"/><path fill="#262420" d="M 139.265625 267.960938 C 139.226562 267.960938 139.191406 267.957031 139.152344 267.949219 C 138.890625 267.886719 138.730469 267.625 138.792969 267.367188 L 143.5 247.324219 C 143.558594 247.066406 143.820312 246.902344 144.082031 246.964844 C 144.34375 247.023438 144.503906 247.285156 144.441406 247.546875 L 139.734375 267.589844 C 139.683594 267.8125 139.484375 267.960938 139.265625 267.960938 Z M 139.265625 267.960938 " fill-opacity="1" fill-rule="nonzero"/><path fill="#262420" d="M 148.433594 267.960938 C 148.410156 267.960938 148.382812 267.960938 148.355469 267.953125 C 148.09375 267.914062 147.914062 267.664062 147.957031 267.398438 L 151.222656 247.355469 C 151.265625 247.09375 151.507812 246.910156 151.777344 246.957031 C 152.042969 247 152.222656 247.25 152.179688 247.515625 L 148.914062 267.554688 C 148.875 267.792969 148.667969 267.960938 148.433594 267.960938 Z M 148.433594 267.960938 " fill-opacity="1" fill-rule="nonzero"/><path fill="#262420" d="M 157.605469 267.960938 C 157.59375 267.960938 157.578125 267.960938 157.5625 267.960938 C 157.296875 267.933594 157.101562 267.699219 157.125 267.433594 L 158.949219 247.390625 C 158.972656 247.125 159.191406 246.925781 159.476562 246.953125 C 159.742188 246.976562 159.9375 247.214844 159.914062 247.480469 L 158.089844 267.519531 C 158.066406 267.773438 157.855469 267.960938 157.605469 267.960938 Z M 157.605469 267.960938 " fill-opacity="1" fill-rule="nonzero"/><path fill="#262420" d="M 157.605469 267.960938 C 157.59375 267.960938 157.578125 267.960938 157.5625 267.960938 C 157.296875 267.933594 157.101562 267.699219 157.125 267.433594 L 158.949219 247.390625 C 158.972656 247.125 159.191406 246.925781 159.476562 246.953125 C 159.742188 246.976562 159.9375 247.214844 159.914062 247.480469 L 158.089844 267.519531 C 158.066406 267.773438 157.855469 267.960938 157.605469 267.960938 Z M 157.605469 267.960938 " fill-opacity="1" fill-rule="nonzero"/><path fill="#262420" d="M 166.777344 267.960938 C 166.773438 267.960938 166.769531 267.960938 166.769531 267.960938 C 166.5 267.957031 166.289062 267.734375 166.292969 267.46875 L 166.675781 247.425781 C 166.679688 247.160156 166.910156 246.929688 167.171875 246.953125 C 167.4375 246.957031 167.648438 247.175781 167.644531 247.445312 L 167.261719 267.488281 C 167.257812 267.75 167.039062 267.960938 166.777344 267.960938 Z M 166.777344 267.960938 " fill-opacity="1" fill-rule="nonzero"/><path fill="#262420" d="M 176.347656 275.519531 C 176.089844 275.519531 175.878906 275.320312 175.863281 275.0625 L 174.40625 247.460938 C 174.394531 247.195312 174.597656 246.964844 174.863281 246.953125 C 175.113281 246.9375 175.359375 247.144531 175.375 247.410156 L 176.832031 275.011719 C 176.84375 275.277344 176.640625 275.503906 176.371094 275.519531 C 176.363281 275.519531 176.355469 275.519531 176.347656 275.519531 Z M 176.347656 275.519531 " fill-opacity="1" fill-rule="nonzero"/><path fill="#262420" d="M 186.0625 275.519531 C 185.820312 275.519531 185.613281 275.339844 185.582031 275.09375 L 182.140625 247.496094 C 182.105469 247.230469 182.296875 246.988281 182.5625 246.953125 C 182.828125 246.925781 183.070312 247.109375 183.101562 247.375 L 186.542969 274.976562 C 186.574219 275.242188 186.386719 275.484375 186.121094 275.515625 C 186.101562 275.519531 186.082031 275.519531 186.0625 275.519531 Z M 186.0625 275.519531 " fill-opacity="1" fill-rule="nonzero"/><path fill="#262420" d="M 195.777344 275.519531 C 195.550781 275.519531 195.347656 275.359375 195.300781 275.128906 L 189.875 247.527344 C 189.824219 247.265625 189.996094 247.011719 190.257812 246.960938 C 190.519531 246.914062 190.773438 247.082031 190.824219 247.34375 L 196.25 274.941406 C 196.304688 275.203125 196.132812 275.460938 195.871094 275.511719 C 195.839844 275.515625 195.804688 275.519531 195.777344 275.519531 Z M 195.777344 275.519531 " fill-opacity="1" fill-rule="nonzero"/><path fill="#262420" d="M 205.492188 275.519531 C 205.277344 275.519531 205.082031 275.378906 205.023438 275.160156 L 197.613281 247.5625 C 197.542969 247.304688 197.695312 247.035156 197.953125 246.96875 C 198.21875 246.898438 198.480469 247.054688 198.546875 247.308594 L 205.957031 274.910156 C 206.027344 275.167969 205.875 275.433594 205.617188 275.503906 C 205.574219 275.515625 205.53125 275.519531 205.492188 275.519531 Z M 205.492188 275.519531 " fill-opacity="1" fill-rule="nonzero"/><path fill="#262420" d="M 215.207031 275.519531 C 215.003906 275.519531 214.816406 275.394531 214.746094 275.191406 L 205.351562 247.59375 C 205.265625 247.339844 205.402344 247.0625 205.652344 246.976562 C 205.90625 246.890625 206.183594 247.027344 206.269531 247.277344 L 215.664062 274.878906 C 215.75 275.132812 215.613281 275.40625 215.363281 275.492188 C 215.308594 275.511719 215.257812 275.519531 215.207031 275.519531 Z M 215.207031 275.519531 " fill-opacity="1" fill-rule="nonzero"/><path fill="#262420" d="M 210.648438 262.136719 L 96.871094 262.136719 C 96.605469 262.136719 96.386719 261.917969 96.386719 261.652344 C 96.386719 261.382812 96.605469 261.167969 96.871094 261.167969 L 210.648438 261.167969 C 210.917969 261.167969 211.132812 261.382812 211.132812 261.652344 C 211.132812 261.917969 210.917969 262.136719 210.648438 262.136719 Z M 210.648438 262.136719 " fill-opacity="1" fill-rule="nonzero"/><path fill="#262420" d="M 212.632812 267.960938 L 93.40625 267.960938 C 93.140625 267.960938 92.921875 267.746094 92.921875 267.476562 C 92.921875 267.210938 93.140625 266.992188 93.40625 266.992188 L 212.632812 266.992188 C 212.898438 266.992188 213.117188 267.210938 213.117188 267.476562 C 213.117188 267.746094 212.898438 267.960938 212.632812 267.960938 Z M 212.632812 267.960938 " fill-opacity="1" fill-rule="nonzero"/><path fill="#262420" d="M 208.839844 256.816406 L 100.03125 256.816406 C 99.765625 256.816406 99.546875 256.601562 99.546875 256.332031 C 99.546875 256.066406 99.765625 255.847656 100.03125 255.847656 L 208.839844 255.847656 C 209.105469 255.847656 209.324219 256.066406 209.324219 256.332031 C 209.324219 256.601562 209.105469 256.816406 208.839844 256.816406 Z M 208.839844 256.816406 " fill-opacity="1" fill-rule="nonzero"/><path fill="#262420" d="M 207.179688 251.945312 L 102.929688 251.945312 C 102.660156 251.945312 102.445312 251.726562 102.445312 251.460938 C 102.445312 251.191406 102.660156 250.976562 102.929688 250.976562 L 207.179688 250.976562 C 207.449219 250.976562 207.664062 251.191406 207.664062 251.460938 C 207.664062 251.726562 207.449219 251.945312 207.179688 251.945312 Z M 207.179688 251.945312 " fill-opacity="1" fill-rule="nonzero"/><path fill="#262420" d="M 249.519531 275.519531 L 220.375 275.519531 C 220.175781 275.519531 219.996094 275.394531 219.925781 275.207031 L 209.472656 247.605469 C 209.414062 247.457031 209.4375 247.292969 209.527344 247.160156 C 209.617188 247.03125 209.765625 246.953125 209.925781 246.953125 L 233.113281 246.953125 C 233.285156 246.953125 233.445312 247.042969 233.53125 247.1875 L 249.9375 274.789062 C 250.027344 274.9375 250.027344 275.125 249.941406 275.273438 C 249.855469 275.425781 249.695312 275.519531 249.519531 275.519531 Z M 220.710938 274.550781 L 248.671875 274.550781 L 232.839844 247.917969 L 210.625 247.917969 Z M 220.710938 274.550781 " fill-opacity="1" fill-rule="nonzero"/><path fill="#262420" d="M 239.808594 275.519531 C 239.632812 275.519531 239.464844 275.425781 239.375 275.261719 L 224.957031 247.660156 C 224.832031 247.421875 224.921875 247.128906 225.160156 247.007812 C 225.398438 246.882812 225.691406 246.972656 225.8125 247.210938 L 240.234375 274.8125 C 240.359375 275.046875 240.269531 275.339844 240.03125 275.464844 C 239.957031 275.503906 239.882812 275.519531 239.808594 275.519531 Z M 239.808594 275.519531 " fill-opacity="1" fill-rule="nonzero"/><path fill="#262420" d="M 230.089844 275.519531 C 229.90625 275.519531 229.730469 275.414062 229.648438 275.234375 L 217.214844 247.636719 C 217.105469 247.390625 217.210938 247.105469 217.457031 246.992188 C 217.699219 246.886719 217.984375 246.992188 218.097656 247.234375 L 230.53125 274.835938 C 230.640625 275.082031 230.535156 275.367188 230.289062 275.476562 C 230.226562 275.507812 230.15625 275.519531 230.089844 275.519531 Z M 230.089844 275.519531 " fill-opacity="1" fill-rule="nonzero"/><path fill="#262420" d="M 249.523438 275.519531 C 249.355469 275.519531 249.195312 275.433594 249.105469 275.28125 L 232.699219 247.683594 C 232.5625 247.453125 232.636719 247.15625 232.867188 247.019531 C 233.097656 246.882812 233.394531 246.957031 233.53125 247.1875 L 249.9375 274.789062 C 250.074219 275.019531 250 275.316406 249.769531 275.453125 C 249.691406 275.496094 249.605469 275.519531 249.523438 275.519531 Z M 249.523438 275.519531 " fill-opacity="1" fill-rule="nonzero"/><path fill="#262420" d="M 241.566406 262.136719 L 215.308594 262.136719 C 215.039062 262.136719 214.824219 261.917969 214.824219 261.652344 C 214.824219 261.382812 215.039062 261.167969 215.308594 261.167969 L 241.566406 261.167969 C 241.832031 261.167969 242.050781 261.382812 242.050781 261.652344 C 242.050781 261.917969 241.832031 262.136719 241.566406 262.136719 Z M 241.566406 262.136719 " fill-opacity="1" fill-rule="nonzero"/><path fill="#262420" d="M 245.027344 267.960938 L 217.515625 267.960938 C 217.246094 267.960938 217.03125 267.746094 217.03125 267.476562 C 217.03125 267.210938 217.246094 266.992188 217.515625 266.992188 L 245.027344 266.992188 C 245.296875 266.992188 245.511719 267.210938 245.511719 267.476562 C 245.511719 267.746094 245.296875 267.960938 245.027344 267.960938 Z M 245.027344 267.960938 " fill-opacity="1" fill-rule="nonzero"/><path fill="#262420" d="M 238.402344 256.816406 L 213.292969 256.816406 C 213.027344 256.816406 212.808594 256.601562 212.808594 256.332031 C 212.808594 256.066406 213.027344 255.847656 213.292969 255.847656 L 238.402344 255.847656 C 238.671875 255.847656 238.886719 256.066406 238.886719 256.332031 C 238.886719 256.601562 238.671875 256.816406 238.402344 256.816406 Z M 238.402344 256.816406 " fill-opacity="1" fill-rule="nonzero"/><path fill="#262420" d="M 235.507812 251.945312 L 211.449219 251.945312 C 211.179688 251.945312 210.964844 251.726562 210.964844 251.460938 C 210.964844 251.191406 211.179688 250.976562 211.449219 250.976562 L 235.507812 250.976562 C 235.773438 250.976562 235.992188 251.191406 235.992188 251.460938 C 235.992188 251.726562 235.773438 251.945312 235.507812 251.945312 Z M 235.507812 251.945312 " fill-opacity="1" fill-rule="nonzero"/><path fill="#c992e3" d="M 194.722656 232.246094 L 142.789062 232.246094 C 142.429688 232.246094 142.101562 232.109375 141.859375 231.878906 C 141.589844 231.632812 141.425781 231.277344 141.425781 230.886719 L 141.425781 227.292969 L 196.085938 227.292969 L 196.085938 230.886719 C 196.085938 231.277344 195.921875 231.628906 195.65625 231.878906 C 195.410156 232.109375 195.082031 232.246094 194.722656 232.246094 Z M 194.722656 232.246094 " fill-opacity="1" fill-rule="nonzero"/><path fill="#262420" d="M 188.234375 211.761719 L 149.277344 211.761719 C 149.007812 211.761719 148.792969 211.546875 148.792969 211.277344 C 148.792969 211.011719 149.007812 210.792969 149.277344 210.792969 L 188.234375 210.792969 C 188.503906 210.792969 188.71875 211.011719 188.71875 211.277344 C 188.71875 211.546875 188.503906 211.761719 188.234375 211.761719 Z M 188.234375 211.761719 " fill-opacity="1" fill-rule="nonzero"/><path fill="#262420" d="M 196 227.777344 L 141.511719 227.777344 C 141.246094 227.777344 141.027344 227.558594 141.027344 227.292969 C 141.027344 227.027344 141.246094 226.808594 141.511719 226.808594 L 196 226.808594 C 196.265625 226.808594 196.484375 227.027344 196.484375 227.292969 C 196.484375 227.558594 196.265625 227.777344 196 227.777344 Z M 196 227.777344 " fill-opacity="1" fill-rule="nonzero"/><g clip-path="url(#43b6442cfd)"><path fill="#262420" d="M 71.589844 279.253906 L 71.589844 280.167969 C 71.589844 280.796875 71.859375 281.363281 72.289062 281.753906 C 72.671875 282.105469 73.179688 282.316406 73.738281 282.316406 L 264.699219 282.316406 C 265.351562 282.316406 265.9375 282.027344 266.332031 281.5625 C 266.652344 281.1875 266.847656 280.699219 266.847656 280.167969 L 266.847656 279.253906 Z M 71.589844 279.253906 " fill-opacity="1" fill-rule="nonzero"/></g><path fill="#c992e3" d="M 271.546875 255.832031 C 268.675781 258.117188 264.371094 264.683594 277.046875 272.769531 C 284.535156 277.550781 290.066406 279.253906 295.675781 278.46875 C 299.257812 277.964844 301.648438 275.953125 302.511719 273.417969 C 303.332031 271.015625 302.867188 268.457031 301.34375 265.984375 C 299.175781 262.472656 294.859375 259.132812 289.035156 256.65625 C 278.90625 252.355469 273.527344 254.253906 271.546875 255.832031 Z M 271.546875 255.832031 " fill-opacity="1" fill-rule="nonzero"/><path fill="#262420" d="M 274.425781 270.773438 C 274.367188 270.773438 274.308594 270.761719 274.253906 270.742188 C 274.003906 270.644531 273.878906 270.363281 273.972656 270.113281 C 274.179688 269.578125 279.109375 256.984375 288.65625 256.304688 C 288.929688 256.289062 289.152344 256.484375 289.171875 256.75 C 289.191406 257.019531 288.992188 257.25 288.722656 257.269531 C 279.792969 257.90625 274.925781 270.335938 274.878906 270.460938 C 274.804688 270.652344 274.621094 270.773438 274.425781 270.773438 Z M 274.425781 270.773438 " fill-opacity="1" fill-rule="nonzero"/><path fill="#262420" d="M 281.542969 260.277344 C 281.445312 260.277344 281.347656 260.25 281.261719 260.1875 C 276.175781 256.605469 271.355469 256.90625 271.308594 256.910156 C 271.046875 256.929688 270.808594 256.726562 270.792969 256.460938 C 270.773438 256.195312 270.972656 255.960938 271.238281 255.941406 C 271.445312 255.925781 276.453125 255.617188 281.820312 259.398438 C 282.039062 259.550781 282.089844 259.851562 281.9375 260.070312 C 281.84375 260.207031 281.695312 260.277344 281.542969 260.277344 Z M 281.542969 260.277344 " fill-opacity="1" fill-rule="nonzero"/><path fill="#262420" d="M 288.226562 277.804688 C 288.113281 277.804688 287.996094 277.765625 287.902344 277.679688 C 282.753906 273.011719 279.546875 272.15625 275.109375 270.972656 L 274.15625 270.691406 C 274.082031 270.640625 272.300781 269.453125 270.875 267.789062 C 270.703125 267.585938 270.726562 267.28125 270.929688 267.109375 C 271.132812 266.933594 271.4375 266.957031 271.613281 267.160156 C 272.804688 268.550781 274.304688 269.617188 274.628906 269.839844 L 275.359375 270.035156 C 279.929688 271.257812 283.230469 272.136719 288.554688 276.964844 C 288.75 277.144531 288.765625 277.449219 288.585938 277.648438 C 288.492188 277.753906 288.359375 277.804688 288.226562 277.804688 Z M 288.226562 277.804688 " fill-opacity="1" fill-rule="nonzero"/><path fill="#f97046" d="M 116.890625 116.609375 C 116.890625 117.015625 116.851562 117.417969 116.769531 117.820312 C 116.691406 118.21875 116.574219 118.605469 116.417969 118.984375 C 116.261719 119.359375 116.070312 119.71875 115.84375 120.054688 C 115.617188 120.394531 115.359375 120.707031 115.074219 120.996094 C 114.785156 121.285156 114.472656 121.542969 114.132812 121.769531 C 113.792969 121.996094 113.4375 122.1875 113.058594 122.339844 C 112.683594 122.496094 112.296875 122.617188 111.894531 122.695312 C 111.496094 122.773438 111.09375 122.8125 110.683594 122.8125 C 110.277344 122.8125 109.875 122.773438 109.472656 122.695312 C 109.074219 122.617188 108.6875 122.496094 108.308594 122.339844 C 107.933594 122.1875 107.578125 121.996094 107.238281 121.769531 C 106.898438 121.542969 106.585938 121.285156 106.296875 120.996094 C 106.007812 120.707031 105.75 120.394531 105.527344 120.054688 C 105.300781 119.71875 105.109375 119.359375 104.953125 118.984375 C 104.796875 118.605469 104.679688 118.21875 104.597656 117.820312 C 104.519531 117.417969 104.480469 117.015625 104.480469 116.609375 C 104.480469 116.199219 104.519531 115.796875 104.597656 115.398438 C 104.679688 115 104.796875 114.609375 104.953125 114.234375 C 105.109375 113.855469 105.300781 113.5 105.527344 113.160156 C 105.75 112.820312 106.007812 112.507812 106.296875 112.21875 C 106.585938 111.933594 106.898438 111.675781 107.238281 111.449219 C 107.578125 111.222656 107.933594 111.03125 108.308594 110.875 C 108.6875 110.71875 109.074219 110.601562 109.472656 110.523438 C 109.875 110.441406 110.277344 110.402344 110.683594 110.402344 C 111.09375 110.402344 111.496094 110.441406 111.894531 110.523438 C 112.296875 110.601562 112.683594 110.71875 113.058594 110.875 C 113.4375 111.03125 113.792969 111.222656 114.132812 111.449219 C 114.472656 111.675781 114.785156 111.933594 115.074219 112.21875 C 115.359375 112.507812 115.617188 112.820312 115.84375 113.160156 C 116.070312 113.5 116.261719 113.855469 116.417969 114.234375 C 116.574219 114.609375 116.691406 115 116.769531 115.398438 C 116.851562 115.796875 116.890625 116.199219 116.890625 116.609375 Z M 116.890625 116.609375 " fill-opacity="1" fill-rule="nonzero"/><path fill="#f97046" d="M 124.472656 110.335938 L 167.472656 110.335938 L 167.472656 122.882812 L 124.472656 122.882812 Z M 124.472656 110.335938 " fill-opacity="1" fill-rule="nonzero"/><path fill="#ff8fd3" d="M 98.273438 129.640625 L 239.234375 129.640625 L 239.234375 142.050781 L 98.273438 142.050781 Z M 98.273438 129.640625 " fill-opacity="1" fill-rule="nonzero"/><path fill="#60b3e3" d="M 98.273438 149.277344 L 165.59375 149.277344 L 165.59375 166.816406 L 98.273438 166.816406 Z M 98.273438 149.277344 " fill-opacity="1" fill-rule="nonzero"/><path fill="#ff8fd3" d="M 98.273438 174.042969 L 165.59375 174.042969 L 165.59375 191.578125 L 98.273438 191.578125 Z M 98.273438 174.042969 " fill-opacity="1" fill-rule="nonzero"/><path fill="#ffce53" d="M 171.917969 149.277344 L 239.238281 149.277344 L 239.238281 166.816406 L 171.917969 166.816406 Z M 171.917969 149.277344 " fill-opacity="1" fill-rule="nonzero"/><path fill="#ff8a59" d="M 171.917969 174.042969 L 239.238281 174.042969 L 239.238281 191.578125 L 171.917969 191.578125 Z M 171.917969 174.042969 " fill-opacity="1" fill-rule="nonzero"/><path fill="#262420" d="M 158.769531 155.351562 L 105.097656 155.351562 C 104.832031 155.351562 104.613281 155.136719 104.613281 154.867188 C 104.613281 154.601562 104.832031 154.382812 105.097656 154.382812 L 158.769531 154.382812 C 159.035156 154.382812 159.253906 154.601562 159.253906 154.867188 C 159.253906 155.136719 159.035156 155.351562 158.769531 155.351562 Z M 158.769531 155.351562 " fill-opacity="1" fill-rule="nonzero"/><path fill="#262420" d="M 124.472656 136.332031 L 105.097656 136.332031 C 104.832031 136.332031 104.613281 136.113281 104.613281 135.847656 C 104.613281 135.578125 104.832031 135.363281 105.097656 135.363281 L 124.472656 135.363281 C 124.738281 135.363281 124.957031 135.578125 124.957031 135.847656 C 124.957031 136.113281 124.738281 136.332031 124.472656 136.332031 Z M 124.472656 136.332031 " fill-opacity="1" fill-rule="nonzero"/><path fill="#262420" d="M 232.414062 136.332031 L 207.933594 136.332031 C 207.664062 136.332031 207.449219 136.113281 207.449219 135.847656 C 207.449219 135.578125 207.664062 135.363281 207.933594 135.363281 L 232.414062 135.363281 C 232.679688 135.363281 232.898438 135.578125 232.898438 135.847656 C 232.898438 136.113281 232.679688 136.332031 232.414062 136.332031 Z M 232.414062 136.332031 " fill-opacity="1" fill-rule="nonzero"/><path fill="#262420" d="M 184.402344 136.332031 L 130.730469 136.332031 C 130.464844 136.332031 130.246094 136.113281 130.246094 135.847656 C 130.246094 135.578125 130.464844 135.363281 130.730469 135.363281 L 184.402344 135.363281 C 184.667969 135.363281 184.886719 135.578125 184.886719 135.847656 C 184.886719 136.113281 184.667969 136.332031 184.402344 136.332031 Z M 184.402344 136.332031 " fill-opacity="1" fill-rule="nonzero"/><path fill="#262420" d="M 201.050781 136.332031 L 190.714844 136.332031 C 190.445312 136.332031 190.230469 136.113281 190.230469 135.847656 C 190.230469 135.578125 190.445312 135.363281 190.714844 135.363281 L 201.050781 135.363281 C 201.316406 135.363281 201.535156 135.578125 201.535156 135.847656 C 201.535156 136.113281 201.316406 136.332031 201.050781 136.332031 Z M 201.050781 136.332031 " fill-opacity="1" fill-rule="nonzero"/><path fill="#262420" d="M 158.769531 161.207031 L 105.097656 161.207031 C 104.832031 161.207031 104.613281 160.992188 104.613281 160.722656 C 104.613281 160.457031 104.832031 160.238281 105.097656 160.238281 L 158.769531 160.238281 C 159.035156 160.238281 159.253906 160.457031 159.253906 160.722656 C 159.253906 160.992188 159.035156 161.207031 158.769531 161.207031 Z M 158.769531 161.207031 " fill-opacity="1" fill-rule="nonzero"/><path fill="#262420" d="M 232.414062 155.351562 L 178.742188 155.351562 C 178.476562 155.351562 178.257812 155.136719 178.257812 154.867188 C 178.257812 154.601562 178.476562 154.382812 178.742188 154.382812 L 232.414062 154.382812 C 232.679688 154.382812 232.898438 154.601562 232.898438 154.867188 C 232.898438 155.136719 232.679688 155.351562 232.414062 155.351562 Z M 232.414062 155.351562 " fill-opacity="1" fill-rule="nonzero"/><path fill="#262420" d="M 232.414062 161.207031 L 178.742188 161.207031 C 178.476562 161.207031 178.257812 160.992188 178.257812 160.722656 C 178.257812 160.457031 178.476562 160.238281 178.742188 160.238281 L 232.414062 160.238281 C 232.679688 160.238281 232.898438 160.457031 232.898438 160.722656 C 232.898438 160.992188 232.679688 161.207031 232.414062 161.207031 Z M 232.414062 161.207031 " fill-opacity="1" fill-rule="nonzero"/><path fill="#262420" d="M 202.683594 180.976562 L 178.742188 180.976562 C 178.476562 180.976562 178.257812 180.757812 178.257812 180.492188 C 178.257812 180.226562 178.476562 180.007812 178.742188 180.007812 L 202.683594 180.007812 C 202.953125 180.007812 203.167969 180.226562 203.167969 180.492188 C 203.167969 180.757812 202.953125 180.976562 202.683594 180.976562 Z M 202.683594 180.976562 " fill-opacity="1" fill-rule="nonzero"/><path fill="#262420" d="M 202.683594 186.832031 L 178.742188 186.832031 C 178.476562 186.832031 178.257812 186.617188 178.257812 186.347656 C 178.257812 186.082031 178.476562 185.863281 178.742188 185.863281 L 202.683594 185.863281 C 202.953125 185.863281 203.167969 186.082031 203.167969 186.347656 C 203.167969 186.617188 202.953125 186.832031 202.683594 186.832031 Z M 202.683594 186.832031 " fill-opacity="1" fill-rule="nonzero"/><path fill="#262420" d="M 232.414062 180.976562 L 208.46875 180.976562 C 208.203125 180.976562 207.984375 180.757812 207.984375 180.492188 C 207.984375 180.226562 208.203125 180.007812 208.46875 180.007812 L 232.414062 180.007812 C 232.679688 180.007812 232.898438 180.226562 232.898438 180.492188 C 232.898438 180.757812 232.679688 180.976562 232.414062 180.976562 Z M 232.414062 180.976562 " fill-opacity="1" fill-rule="nonzero"/><path fill="#262420" d="M 232.414062 186.832031 L 208.46875 186.832031 C 208.203125 186.832031 207.984375 186.617188 207.984375 186.347656 C 207.984375 186.082031 208.203125 185.863281 208.46875 185.863281 L 232.414062 185.863281 C 232.679688 185.863281 232.898438 186.082031 232.898438 186.347656 C 232.898438 186.617188 232.679688 186.832031 232.414062 186.832031 Z M 232.414062 186.832031 " fill-opacity="1" fill-rule="nonzero"/><path fill="#262420" d="M 158.769531 180.976562 L 105.097656 180.976562 C 104.832031 180.976562 104.613281 180.757812 104.613281 180.492188 C 104.613281 180.226562 104.832031 180.007812 105.097656 180.007812 L 158.769531 180.007812 C 159.035156 180.007812 159.253906 180.226562 159.253906 180.492188 C 159.253906 180.757812 159.035156 180.976562 158.769531 180.976562 Z M 158.769531 180.976562 " fill-opacity="1" fill-rule="nonzero"/><path fill="#262420" d="M 135.910156 186.832031 L 105.097656 186.832031 C 104.832031 186.832031 104.613281 186.617188 104.613281 186.347656 C 104.613281 186.082031 104.832031 185.863281 105.097656 185.863281 L 135.910156 185.863281 C 136.179688 185.863281 136.394531 186.082031 136.394531 186.347656 C 136.394531 186.617188 136.179688 186.832031 135.910156 186.832031 Z M 135.910156 186.832031 " fill-opacity="1" fill-rule="nonzero"/></svg>