<svg xmlns="http://www.w3.org/2000/svg" xmlns:xlink="http://www.w3.org/1999/xlink" width="500" zoomAndPan="magnify" viewBox="0 0 375 374.999991" height="500" preserveAspectRatio="xMidYMid meet" version="1.0"><defs><clipPath id="c5848cc06e"><path d="M 146.453125 127 L 300 127 L 300 303.023438 L 146.453125 303.023438 Z M 146.453125 127 " clip-rule="nonzero"/></clipPath></defs><path fill="#ffffff" d="M 221.550781 97.722656 L 221.550781 106.449219 C 221.550781 106.75 221.792969 106.992188 222.09375 106.992188 C 222.390625 106.992188 222.636719 106.75 222.636719 106.449219 L 222.636719 97.722656 C 222.636719 97.417969 222.390625 97.179688 222.09375 97.179688 C 221.792969 97.179688 221.550781 97.417969 221.550781 97.722656 " fill-opacity="1" fill-rule="nonzero"/><path fill="#ffffff" d="M 226.453125 101.542969 L 217.722656 101.542969 C 217.425781 101.542969 217.179688 101.785156 217.179688 102.085938 C 217.179688 102.386719 217.425781 102.628906 217.722656 102.628906 L 226.453125 102.628906 C 226.753906 102.628906 226.996094 102.386719 226.996094 102.085938 C 226.996094 101.785156 226.753906 101.542969 226.453125 101.542969 " fill-opacity="1" fill-rule="nonzero"/><path fill="#ffffff" d="M 278.167969 181.808594 L 278.167969 190.535156 C 278.167969 190.835938 278.40625 191.078125 278.710938 191.078125 C 279.011719 191.078125 279.253906 190.835938 279.253906 190.535156 L 279.253906 181.808594 C 279.253906 181.503906 279.011719 181.265625 278.710938 181.265625 C 278.40625 181.265625 278.167969 181.503906 278.167969 181.808594 " fill-opacity="1" fill-rule="nonzero"/><path fill="#ffffff" d="M 283.074219 185.628906 L 274.34375 185.628906 C 274.046875 185.628906 273.800781 185.871094 273.800781 186.171875 C 273.800781 186.46875 274.046875 186.714844 274.34375 186.714844 L 283.074219 186.714844 C 283.375 186.714844 283.617188 186.46875 283.617188 186.171875 C 283.617188 185.871094 283.375 185.628906 283.074219 185.628906 " fill-opacity="1" fill-rule="nonzero"/><path fill="#ffffff" d="M 229.359375 145.277344 L 229.359375 154.007812 C 229.359375 154.308594 229.601562 154.550781 229.90625 154.550781 C 230.203125 154.550781 230.449219 154.308594 230.449219 154.007812 L 230.449219 145.277344 C 230.449219 144.972656 230.203125 144.734375 229.90625 144.734375 C 229.601562 144.734375 229.359375 144.972656 229.359375 145.277344 " fill-opacity="1" fill-rule="nonzero"/><path fill="#ffffff" d="M 234.265625 149.097656 L 225.535156 149.097656 C 225.238281 149.097656 224.992188 149.34375 224.992188 149.640625 C 224.992188 149.945312 225.238281 150.183594 225.535156 150.183594 L 234.265625 150.183594 C 234.570312 150.183594 234.808594 149.945312 234.808594 149.640625 C 234.808594 149.34375 234.570312 149.097656 234.265625 149.097656 " fill-opacity="1" fill-rule="nonzero"/><path fill="#ffffff" d="M 194.601562 205.925781 L 194.601562 214.65625 C 194.601562 214.953125 194.847656 215.199219 195.144531 215.199219 C 195.445312 215.199219 195.6875 214.953125 195.6875 214.65625 L 195.6875 205.925781 C 195.6875 205.625 195.445312 205.382812 195.144531 205.382812 C 194.847656 205.382812 194.601562 205.625 194.601562 205.925781 " fill-opacity="1" fill-rule="nonzero"/><path fill="#ffffff" d="M 199.507812 209.75 L 190.777344 209.75 C 190.480469 209.75 190.234375 209.988281 190.234375 210.292969 C 190.234375 210.589844 190.480469 210.835938 190.777344 210.835938 L 199.507812 210.835938 C 199.808594 210.835938 200.050781 210.589844 200.050781 210.292969 C 200.050781 209.988281 199.808594 209.75 199.507812 209.75 " fill-opacity="1" fill-rule="nonzero"/><path fill="#ffffff" d="M 124.003906 126.796875 L 124.003906 135.527344 C 124.003906 135.824219 124.246094 136.070312 124.546875 136.070312 C 124.847656 136.070312 125.089844 135.824219 125.089844 135.527344 L 125.089844 126.796875 C 125.089844 126.496094 124.847656 126.25 124.546875 126.25 C 124.246094 126.25 124.003906 126.496094 124.003906 126.796875 " fill-opacity="1" fill-rule="nonzero"/><path fill="#ffffff" d="M 128.910156 130.617188 L 120.179688 130.617188 C 119.878906 130.617188 119.636719 130.859375 119.636719 131.160156 C 119.636719 131.457031 119.878906 131.703125 120.179688 131.703125 L 128.910156 131.703125 C 129.207031 131.703125 129.453125 131.457031 129.453125 131.160156 C 129.453125 130.859375 129.207031 130.617188 128.910156 130.617188 " fill-opacity="1" fill-rule="nonzero"/><path fill="#ffffff" d="M 95.792969 235.558594 L 95.792969 244.296875 C 95.792969 244.59375 96.039062 244.839844 96.335938 244.839844 C 96.640625 244.839844 96.878906 244.59375 96.878906 244.296875 L 96.878906 235.558594 C 96.878906 235.261719 96.640625 235.015625 96.335938 235.015625 C 96.039062 235.015625 95.792969 235.261719 95.792969 235.558594 " fill-opacity="1" fill-rule="nonzero"/><path fill="#ffffff" d="M 100.703125 239.382812 L 91.972656 239.382812 C 91.671875 239.382812 91.429688 239.628906 91.429688 239.929688 C 91.429688 240.226562 91.671875 240.472656 91.972656 240.472656 L 100.703125 240.472656 C 101.003906 240.472656 101.25 240.226562 101.25 239.929688 C 101.25 239.628906 101.003906 239.382812 100.703125 239.382812 " fill-opacity="1" fill-rule="nonzero"/><path fill="#ffffff" d="M 219.566406 242.742188 L 219.566406 251.472656 C 219.566406 251.769531 219.808594 252.015625 220.109375 252.015625 C 220.40625 252.015625 220.652344 251.769531 220.652344 251.472656 L 220.652344 242.742188 C 220.652344 242.441406 220.40625 242.199219 220.109375 242.199219 C 219.808594 242.199219 219.566406 242.441406 219.566406 242.742188 " fill-opacity="1" fill-rule="nonzero"/><path fill="#ffffff" d="M 224.476562 246.5625 L 215.746094 246.5625 C 215.449219 246.5625 215.203125 246.804688 215.203125 247.105469 C 215.203125 247.402344 215.449219 247.648438 215.746094 247.648438 L 224.476562 247.648438 C 224.777344 247.648438 225.019531 247.402344 225.019531 247.105469 C 225.019531 246.804688 224.777344 246.5625 224.476562 246.5625 " fill-opacity="1" fill-rule="nonzero"/><path fill="#ffffff" d="M 280.097656 150.371094 C 280.097656 150.890625 279.675781 151.308594 279.15625 151.308594 C 278.636719 151.308594 278.21875 150.890625 278.21875 150.371094 C 278.21875 149.851562 278.636719 149.429688 279.15625 149.429688 C 279.675781 149.429688 280.097656 149.851562 280.097656 150.371094 " fill-opacity="1" fill-rule="nonzero"/><path fill="#ffffff" d="M 97.277344 190.535156 C 97.277344 191.054688 96.855469 191.480469 96.335938 191.480469 C 95.820312 191.480469 95.398438 191.054688 95.398438 190.535156 C 95.398438 190.015625 95.820312 189.59375 96.335938 189.59375 C 96.855469 189.59375 97.277344 190.015625 97.277344 190.535156 " fill-opacity="1" fill-rule="nonzero"/><path fill="#ffffff" d="M 150.671875 276.386719 C 150.671875 276.902344 150.253906 277.328125 149.734375 277.328125 C 149.21875 277.328125 148.792969 276.902344 148.792969 276.386719 C 148.792969 275.867188 149.21875 275.445312 149.734375 275.445312 C 150.253906 275.445312 150.671875 275.867188 150.671875 276.386719 " fill-opacity="1" fill-rule="nonzero"/><path fill="#c5c972" d="M 191.675781 258.871094 C 163.765625 258.871094 139.667969 242.558594 128.386719 218.945312 C 125.511719 220.613281 122.171875 221.570312 118.601562 221.570312 C 107.800781 221.570312 99.046875 212.820312 99.046875 202.011719 C 99.046875 191.210938 107.800781 182.453125 118.601562 182.453125 C 119.707031 182.453125 120.792969 182.554688 121.847656 182.726562 C 123.46875 163.761719 132.636719 146.953125 146.347656 135.316406 C 146.167969 134.355469 146.070312 133.363281 146.070312 132.355469 C 146.070312 123.421875 153.3125 116.175781 162.25 116.175781 C 166.761719 116.175781 170.835938 118.023438 173.769531 120.996094 C 179.484375 119.488281 185.488281 118.683594 191.675781 118.683594 C 205.730469 118.683594 218.816406 122.824219 229.785156 129.941406 C 234.023438 126.648438 239.347656 124.683594 245.132812 124.683594 C 258.964844 124.683594 270.175781 135.894531 270.175781 149.734375 C 270.175781 156.550781 267.445312 162.734375 263.023438 167.25 C 263.09375 167.25 263.164062 167.242188 263.234375 167.242188 C 270.285156 167.242188 276 172.957031 276 180.011719 C 276 182.027344 275.535156 183.933594 274.703125 185.628906 L 274.34375 185.628906 C 274.046875 185.628906 273.800781 185.871094 273.800781 186.171875 C 273.800781 186.394531 273.9375 186.589844 274.132812 186.671875 C 271.890625 190.332031 267.847656 192.777344 263.234375 192.777344 C 262.703125 192.777344 262.175781 192.746094 261.660156 192.679688 C 259.632812 229.574219 229.078125 258.871094 191.675781 258.871094 M 219.566406 247.648438 L 219.566406 251.472656 C 219.566406 251.769531 219.808594 252.015625 220.109375 252.015625 C 220.40625 252.015625 220.652344 251.769531 220.652344 251.472656 L 220.652344 247.648438 L 224.476562 247.648438 C 224.777344 247.648438 225.019531 247.402344 225.019531 247.105469 C 225.019531 246.804688 224.777344 246.5625 224.476562 246.5625 L 220.652344 246.5625 L 220.652344 242.742188 C 220.652344 242.441406 220.40625 242.199219 220.109375 242.199219 C 219.808594 242.199219 219.566406 242.441406 219.566406 242.742188 L 219.566406 246.5625 L 215.746094 246.5625 C 215.449219 246.5625 215.203125 246.804688 215.203125 247.105469 C 215.203125 247.402344 215.449219 247.648438 215.746094 247.648438 L 219.566406 247.648438 M 194.601562 210.835938 L 194.601562 214.65625 C 194.601562 214.953125 194.847656 215.199219 195.144531 215.199219 C 195.445312 215.199219 195.6875 214.953125 195.6875 214.65625 L 195.6875 210.835938 L 199.507812 210.835938 C 199.808594 210.835938 200.050781 210.589844 200.050781 210.292969 C 200.050781 209.988281 199.808594 209.75 199.507812 209.75 L 195.6875 209.75 L 195.6875 205.925781 C 195.6875 205.625 195.445312 205.382812 195.144531 205.382812 C 194.847656 205.382812 194.601562 205.625 194.601562 205.925781 L 194.601562 209.75 L 190.777344 209.75 C 190.480469 209.75 190.234375 209.988281 190.234375 210.292969 C 190.234375 210.589844 190.480469 210.835938 190.777344 210.835938 L 194.601562 210.835938 M 229.359375 150.183594 L 229.359375 154.007812 C 229.359375 154.308594 229.601562 154.550781 229.90625 154.550781 C 230.203125 154.550781 230.449219 154.308594 230.449219 154.007812 L 230.449219 150.183594 L 234.265625 150.183594 C 234.570312 150.183594 234.808594 149.945312 234.808594 149.640625 C 234.808594 149.34375 234.570312 149.097656 234.265625 149.097656 L 230.449219 149.097656 L 230.449219 145.277344 C 230.449219 144.972656 230.203125 144.734375 229.90625 144.734375 C 229.601562 144.734375 229.359375 144.972656 229.359375 145.277344 L 229.359375 149.097656 L 225.535156 149.097656 C 225.238281 149.097656 224.992188 149.34375 224.992188 149.640625 C 224.992188 149.945312 225.238281 150.183594 225.535156 150.183594 L 229.359375 150.183594 " fill-opacity="1" fill-rule="nonzero"/><path fill="#d3d2d2" d="M 274.132812 186.671875 C 273.9375 186.589844 273.800781 186.394531 273.800781 186.171875 C 273.800781 185.871094 274.046875 185.628906 274.34375 185.628906 L 274.703125 185.628906 C 274.527344 185.984375 274.332031 186.335938 274.132812 186.671875 " fill-opacity="1" fill-rule="nonzero"/><path fill="#d3d2d2" d="M 229.90625 154.550781 C 229.601562 154.550781 229.359375 154.308594 229.359375 154.007812 L 229.359375 150.183594 L 230.449219 150.183594 L 230.449219 154.007812 C 230.449219 154.308594 230.203125 154.550781 229.90625 154.550781 M 230.449219 149.097656 L 229.359375 149.097656 L 229.359375 145.277344 C 229.359375 144.972656 229.601562 144.734375 229.90625 144.734375 C 230.203125 144.734375 230.449219 144.972656 230.449219 145.277344 L 230.449219 149.097656 " fill-opacity="1" fill-rule="nonzero"/><path fill="#d3d2d2" d="M 234.265625 150.183594 L 225.535156 150.183594 C 225.238281 150.183594 224.992188 149.945312 224.992188 149.640625 C 224.992188 149.34375 225.238281 149.097656 225.535156 149.097656 L 234.265625 149.097656 C 234.570312 149.097656 234.808594 149.34375 234.808594 149.640625 C 234.808594 149.945312 234.570312 150.183594 234.265625 150.183594 " fill-opacity="1" fill-rule="nonzero"/><path fill="#d3d2d2" d="M 195.144531 215.199219 C 194.847656 215.199219 194.601562 214.953125 194.601562 214.65625 L 194.601562 210.835938 L 195.6875 210.835938 L 195.6875 214.65625 C 195.6875 214.953125 195.445312 215.199219 195.144531 215.199219 M 195.6875 209.75 L 194.601562 209.75 L 194.601562 205.925781 C 194.601562 205.625 194.847656 205.382812 195.144531 205.382812 C 195.445312 205.382812 195.6875 205.625 195.6875 205.925781 L 195.6875 209.75 " fill-opacity="1" fill-rule="nonzero"/><path fill="#d3d2d2" d="M 199.507812 210.835938 L 190.777344 210.835938 C 190.480469 210.835938 190.234375 210.589844 190.234375 210.292969 C 190.234375 209.988281 190.480469 209.75 190.777344 209.75 L 199.507812 209.75 C 199.808594 209.75 200.050781 209.988281 200.050781 210.292969 C 200.050781 210.589844 199.808594 210.835938 199.507812 210.835938 " fill-opacity="1" fill-rule="nonzero"/><path fill="#d3d2d2" d="M 220.109375 252.015625 C 219.808594 252.015625 219.566406 251.769531 219.566406 251.472656 L 219.566406 247.648438 L 220.652344 247.648438 L 220.652344 251.472656 C 220.652344 251.769531 220.40625 252.015625 220.109375 252.015625 M 220.652344 246.5625 L 219.566406 246.5625 L 219.566406 242.742188 C 219.566406 242.441406 219.808594 242.199219 220.109375 242.199219 C 220.40625 242.199219 220.652344 242.441406 220.652344 242.742188 L 220.652344 246.5625 " fill-opacity="1" fill-rule="nonzero"/><path fill="#d3d2d2" d="M 224.476562 247.648438 L 215.746094 247.648438 C 215.449219 247.648438 215.203125 247.402344 215.203125 247.105469 C 215.203125 246.804688 215.449219 246.5625 215.746094 246.5625 L 224.476562 246.5625 C 224.777344 246.5625 225.019531 246.804688 225.019531 247.105469 C 225.019531 247.402344 224.777344 247.648438 224.476562 247.648438 " fill-opacity="1" fill-rule="nonzero"/><path fill="#70cfcc" d="M 176.222656 172.828125 L 132.152344 172.828125 L 132.152344 128.757812 L 176.222656 128.757812 L 176.222656 172.828125 " fill-opacity="1" fill-rule="nonzero"/><path fill="#383536" d="M 176.222656 172.828125 L 176.222656 171.980469 L 132.996094 171.980469 L 132.996094 129.605469 L 175.375 129.605469 L 175.375 172.828125 L 176.222656 172.828125 L 176.222656 171.980469 L 176.222656 172.828125 L 177.070312 172.828125 L 177.070312 127.910156 L 131.300781 127.910156 L 131.300781 173.679688 L 177.070312 173.679688 L 177.070312 172.828125 L 176.222656 172.828125 " fill-opacity="1" fill-rule="nonzero"/><path fill="#a7acba" d="M 168.304688 156.988281 L 140.070312 156.988281 L 140.070312 137.988281 L 168.304688 137.988281 L 168.304688 156.988281 " fill-opacity="1" fill-rule="nonzero"/><path fill="#a7acba" d="M 168.304688 156.988281 L 168.304688 156.144531 L 140.910156 156.144531 L 140.910156 138.835938 L 167.460938 138.835938 L 167.460938 156.988281 L 168.304688 156.988281 L 168.304688 156.144531 L 168.304688 156.988281 L 169.144531 156.988281 L 169.144531 137.144531 L 139.226562 137.144531 L 139.226562 157.828125 L 169.144531 157.828125 L 169.144531 156.988281 L 168.304688 156.988281 " fill-opacity="1" fill-rule="nonzero"/><path fill="#383536" d="M 143.636719 164.445312 L 163.996094 164.445312 C 164.460938 164.445312 164.84375 164.070312 164.84375 163.601562 C 164.84375 163.136719 164.460938 162.761719 163.996094 162.761719 L 143.636719 162.761719 C 143.171875 162.761719 142.796875 163.136719 142.796875 163.601562 C 142.796875 164.070312 143.171875 164.445312 143.636719 164.445312 " fill-opacity="1" fill-rule="nonzero"/><path fill="#383536" d="M 143.308594 137.988281 L 143.308594 143.804688 C 143.308594 144.273438 143.6875 144.648438 144.152344 144.648438 C 144.617188 144.648438 144.996094 144.273438 144.996094 143.804688 L 144.996094 137.988281 C 144.996094 137.527344 144.617188 137.144531 144.152344 137.144531 C 143.6875 137.144531 143.308594 137.527344 143.308594 137.988281 " fill-opacity="1" fill-rule="nonzero"/><path fill="#383536" d="M 147.320312 137.988281 L 147.320312 143.804688 C 147.320312 144.273438 147.703125 144.648438 148.164062 144.648438 C 148.628906 144.648438 149.003906 144.273438 149.003906 143.804688 L 149.003906 137.988281 C 149.003906 137.527344 148.628906 137.144531 148.164062 137.144531 C 147.703125 137.144531 147.320312 137.527344 147.320312 137.988281 " fill-opacity="1" fill-rule="nonzero"/><path fill="#383536" d="M 151.335938 137.988281 L 151.335938 143.804688 C 151.335938 144.273438 151.710938 144.648438 152.179688 144.648438 C 152.644531 144.648438 153.019531 144.273438 153.019531 143.804688 L 153.019531 137.988281 C 153.019531 137.527344 152.644531 137.144531 152.179688 137.144531 C 151.710938 137.144531 151.335938 137.527344 151.335938 137.988281 " fill-opacity="1" fill-rule="nonzero"/><path fill="#383536" d="M 155.351562 137.988281 L 155.351562 143.804688 C 155.351562 144.273438 155.726562 144.648438 156.191406 144.648438 C 156.660156 144.648438 157.035156 144.273438 157.035156 143.804688 L 157.035156 137.988281 C 157.035156 137.527344 156.660156 137.144531 156.191406 137.144531 C 155.726562 137.144531 155.351562 137.527344 155.351562 137.988281 " fill-opacity="1" fill-rule="nonzero"/><path fill="#383536" d="M 159.367188 137.988281 L 159.367188 143.804688 C 159.367188 144.273438 159.742188 144.648438 160.207031 144.648438 C 160.675781 144.648438 161.050781 144.273438 161.050781 143.804688 L 161.050781 137.988281 C 161.050781 137.527344 160.675781 137.144531 160.207031 137.144531 C 159.742188 137.144531 159.367188 137.527344 159.367188 137.988281 " fill-opacity="1" fill-rule="nonzero"/><path fill="#383536" d="M 163.375 137.988281 L 163.375 143.804688 C 163.375 144.273438 163.753906 144.648438 164.21875 144.648438 C 164.683594 144.648438 165.058594 144.273438 165.058594 143.804688 L 165.058594 137.988281 C 165.058594 137.527344 164.683594 137.144531 164.21875 137.144531 C 163.753906 137.144531 163.375 137.527344 163.375 137.988281 " fill-opacity="1" fill-rule="nonzero"/><path fill="#383536" d="M 140.070312 144.648438 L 168.304688 144.648438 C 168.769531 144.648438 169.144531 144.273438 169.144531 143.804688 C 169.144531 143.339844 168.769531 142.964844 168.304688 142.964844 L 140.070312 142.964844 C 139.601562 142.964844 139.226562 143.339844 139.226562 143.804688 C 139.226562 144.273438 139.601562 144.648438 140.070312 144.648438 " fill-opacity="1" fill-rule="nonzero"/><path fill="#383536" d="M 170.765625 128.757812 L 170.765625 114.867188 L 175.75 110.59375 L 175.75 100.402344 L 174.191406 100.402344 L 174.191406 109.878906 L 169.203125 114.152344 L 169.203125 128.757812 L 170.765625 128.757812 " fill-opacity="1" fill-rule="nonzero"/><path fill="#383536" d="M 176.730469 100.488281 C 176.730469 99.519531 175.941406 98.734375 174.96875 98.734375 C 174 98.734375 173.21875 99.519531 173.21875 100.488281 C 173.21875 101.457031 174 102.246094 174.96875 102.246094 C 175.941406 102.246094 176.730469 101.457031 176.730469 100.488281 " fill-opacity="1" fill-rule="nonzero"/><path fill="#383536" d="M 164.667969 128.757812 L 164.667969 114.867188 L 169.65625 110.59375 L 169.65625 104.601562 L 168.097656 104.601562 L 168.097656 109.878906 L 163.109375 114.152344 L 163.109375 128.757812 L 164.667969 128.757812 " fill-opacity="1" fill-rule="nonzero"/><path fill="#383536" d="M 170.632812 104.691406 C 170.632812 103.71875 169.84375 102.933594 168.878906 102.933594 C 167.90625 102.933594 167.125 103.71875 167.125 104.691406 C 167.125 105.65625 167.90625 106.445312 168.878906 106.445312 C 169.84375 106.445312 170.632812 105.65625 170.632812 104.691406 " fill-opacity="1" fill-rule="nonzero"/><path fill="#383536" d="M 158.574219 128.757812 L 158.574219 114.867188 L 163.558594 110.59375 L 163.558594 106.28125 L 162.007812 106.28125 L 162.007812 109.878906 L 157.019531 114.152344 L 157.019531 128.757812 L 158.574219 128.757812 " fill-opacity="1" fill-rule="nonzero"/><path fill="#383536" d="M 164.539062 106.367188 C 164.539062 105.398438 163.75 104.613281 162.78125 104.613281 C 161.8125 104.613281 161.027344 105.398438 161.027344 106.367188 C 161.027344 107.335938 161.8125 108.121094 162.78125 108.121094 C 163.75 108.121094 164.539062 107.335938 164.539062 106.367188 " fill-opacity="1" fill-rule="nonzero"/><path fill="#383536" d="M 139.183594 128.757812 L 139.183594 114.152344 L 134.195312 109.878906 L 134.195312 100.402344 L 132.636719 100.402344 L 132.636719 110.59375 L 137.625 114.867188 L 137.625 128.757812 L 139.183594 128.757812 " fill-opacity="1" fill-rule="nonzero"/><path fill="#383536" d="M 135.175781 100.488281 C 135.175781 99.519531 134.386719 98.734375 133.417969 98.734375 C 132.445312 98.734375 131.664062 99.519531 131.664062 100.488281 C 131.664062 101.457031 132.445312 102.246094 133.417969 102.246094 C 134.386719 102.246094 135.175781 101.457031 135.175781 100.488281 " fill-opacity="1" fill-rule="nonzero"/><path fill="#383536" d="M 145.277344 128.757812 L 145.277344 114.226562 L 140.292969 108.273438 L 140.292969 104.601562 L 138.738281 104.601562 L 138.738281 108.835938 L 143.726562 114.792969 L 143.726562 128.757812 L 145.277344 128.757812 " fill-opacity="1" fill-rule="nonzero"/><path fill="#383536" d="M 141.269531 104.691406 C 141.269531 103.71875 140.480469 102.933594 139.515625 102.933594 C 138.542969 102.933594 137.761719 103.71875 137.761719 104.691406 C 137.761719 105.65625 138.542969 106.445312 139.515625 106.445312 C 140.480469 106.445312 141.269531 105.65625 141.269531 104.691406 " fill-opacity="1" fill-rule="nonzero"/><path fill="#383536" d="M 151.375 128.757812 L 151.375 114.152344 L 146.386719 109.878906 L 146.386719 106.28125 L 144.828125 106.28125 L 144.828125 110.59375 L 149.816406 114.867188 L 149.816406 128.757812 L 151.375 128.757812 " fill-opacity="1" fill-rule="nonzero"/><path fill="#383536" d="M 147.359375 106.367188 C 147.359375 105.398438 146.578125 104.613281 145.605469 104.613281 C 144.636719 104.613281 143.851562 105.398438 143.851562 106.367188 C 143.851562 107.335938 144.636719 108.121094 145.605469 108.121094 C 146.578125 108.121094 147.359375 107.335938 147.359375 106.367188 " fill-opacity="1" fill-rule="nonzero"/><path fill="#383536" d="M 153.417969 128.757812 L 154.972656 128.757812 L 154.972656 101.238281 L 153.417969 101.238281 Z M 153.417969 128.757812 " fill-opacity="1" fill-rule="nonzero"/><path fill="#383536" d="M 155.949219 101.328125 C 155.949219 100.359375 155.167969 99.570312 154.195312 99.570312 C 153.226562 99.570312 152.4375 100.359375 152.4375 101.328125 C 152.4375 102.296875 153.226562 103.082031 154.195312 103.082031 C 155.167969 103.082031 155.949219 102.296875 155.949219 101.328125 " fill-opacity="1" fill-rule="nonzero"/><path fill="#383536" d="M 137.625 172.828125 L 137.625 186.71875 L 132.636719 190.996094 L 132.636719 201.191406 L 134.195312 201.191406 L 134.195312 191.710938 L 139.183594 187.441406 L 139.183594 172.828125 L 137.625 172.828125 " fill-opacity="1" fill-rule="nonzero"/><path fill="#383536" d="M 131.664062 201.101562 C 131.664062 202.074219 132.445312 202.855469 133.417969 202.855469 C 134.386719 202.855469 135.175781 202.074219 135.175781 201.101562 C 135.175781 200.132812 134.386719 199.34375 133.417969 199.34375 C 132.445312 199.34375 131.664062 200.132812 131.664062 201.101562 " fill-opacity="1" fill-rule="nonzero"/><path fill="#383536" d="M 143.726562 172.828125 L 143.726562 186.71875 L 138.738281 190.996094 L 138.738281 196.992188 L 140.292969 196.992188 L 140.292969 191.710938 L 145.277344 187.441406 L 145.277344 172.828125 L 143.726562 172.828125 " fill-opacity="1" fill-rule="nonzero"/><path fill="#383536" d="M 137.761719 196.90625 C 137.761719 197.875 138.542969 198.660156 139.515625 198.660156 C 140.480469 198.660156 141.269531 197.875 141.269531 196.90625 C 141.269531 195.933594 140.480469 195.152344 139.515625 195.152344 C 138.542969 195.152344 137.761719 195.933594 137.761719 196.90625 " fill-opacity="1" fill-rule="nonzero"/><path fill="#383536" d="M 149.816406 172.828125 L 149.816406 186.71875 L 144.828125 190.996094 L 144.828125 195.3125 L 146.386719 195.3125 L 146.386719 191.710938 L 151.375 187.441406 L 151.375 172.828125 L 149.816406 172.828125 " fill-opacity="1" fill-rule="nonzero"/><path fill="#383536" d="M 143.851562 195.222656 C 143.851562 196.195312 144.636719 196.976562 145.605469 196.976562 C 146.578125 196.976562 147.359375 196.195312 147.359375 195.222656 C 147.359375 194.253906 146.578125 193.46875 145.605469 193.46875 C 144.636719 193.46875 143.851562 194.253906 143.851562 195.222656 " fill-opacity="1" fill-rule="nonzero"/><path fill="#383536" d="M 169.203125 172.828125 L 169.203125 187.441406 L 174.191406 191.710938 L 174.191406 201.191406 L 175.75 201.191406 L 175.75 190.996094 L 170.765625 186.71875 L 170.765625 172.828125 L 169.203125 172.828125 " fill-opacity="1" fill-rule="nonzero"/><path fill="#383536" d="M 173.21875 201.101562 C 173.21875 202.074219 174 202.855469 174.96875 202.855469 C 175.941406 202.855469 176.730469 202.074219 176.730469 201.101562 C 176.730469 200.132812 175.941406 199.34375 174.96875 199.34375 C 174 199.34375 173.21875 200.132812 173.21875 201.101562 " fill-opacity="1" fill-rule="nonzero"/><path fill="#383536" d="M 163.109375 172.828125 L 163.109375 187.359375 L 168.097656 193.320312 L 168.097656 196.992188 L 169.65625 196.992188 L 169.65625 192.75 L 164.667969 186.800781 L 164.667969 172.828125 L 163.109375 172.828125 " fill-opacity="1" fill-rule="nonzero"/><path fill="#383536" d="M 167.125 196.90625 C 167.125 197.875 167.90625 198.660156 168.878906 198.660156 C 169.84375 198.660156 170.632812 197.875 170.632812 196.90625 C 170.632812 195.933594 169.84375 195.152344 168.878906 195.152344 C 167.90625 195.152344 167.125 195.933594 167.125 196.90625 " fill-opacity="1" fill-rule="nonzero"/><path fill="#383536" d="M 157.019531 172.828125 L 157.019531 187.441406 L 162 191.710938 L 162.007812 195.3125 L 163.558594 195.3125 L 163.558594 190.996094 L 158.574219 186.726562 L 158.574219 172.828125 L 157.019531 172.828125 " fill-opacity="1" fill-rule="nonzero"/><path fill="#383536" d="M 161.027344 195.222656 C 161.027344 196.195312 161.8125 196.976562 162.78125 196.976562 C 163.75 196.976562 164.539062 196.195312 164.539062 195.222656 C 164.539062 194.253906 163.75 193.46875 162.78125 193.46875 C 161.8125 193.46875 161.027344 194.253906 161.027344 195.222656 " fill-opacity="1" fill-rule="nonzero"/><path fill="#383536" d="M 153.417969 200.351562 L 154.972656 200.351562 L 154.972656 172.828125 L 153.417969 172.828125 Z M 153.417969 200.351562 " fill-opacity="1" fill-rule="nonzero"/><path fill="#383536" d="M 152.4375 200.261719 C 152.4375 201.234375 153.226562 202.019531 154.195312 202.019531 C 155.167969 202.019531 155.949219 201.234375 155.949219 200.261719 C 155.949219 199.296875 155.167969 198.507812 154.195312 198.507812 C 153.226562 198.507812 152.4375 199.296875 152.4375 200.261719 " fill-opacity="1" fill-rule="nonzero"/><path fill="#383536" d="M 176.230469 167.363281 L 190.121094 167.363281 L 194.394531 172.351562 L 204.59375 172.351562 L 204.59375 170.796875 L 195.113281 170.796875 L 190.835938 165.808594 L 176.230469 165.808594 L 176.230469 167.363281 " fill-opacity="1" fill-rule="nonzero"/><path fill="#383536" d="M 204.5 173.328125 C 205.472656 173.328125 206.253906 172.539062 206.253906 171.574219 C 206.253906 170.601562 205.472656 169.820312 204.5 169.820312 C 203.535156 169.820312 202.746094 170.601562 202.746094 171.574219 C 202.746094 172.539062 203.535156 173.328125 204.5 173.328125 " fill-opacity="1" fill-rule="nonzero"/><path fill="#383536" d="M 176.230469 161.265625 L 190.121094 161.265625 L 194.394531 166.253906 L 200.394531 166.253906 L 200.394531 164.699219 L 195.113281 164.699219 L 190.835938 159.714844 L 176.230469 159.714844 L 176.230469 161.265625 " fill-opacity="1" fill-rule="nonzero"/><path fill="#383536" d="M 200.300781 167.234375 C 201.273438 167.234375 202.0625 166.445312 202.0625 165.476562 C 202.0625 164.511719 201.273438 163.722656 200.300781 163.722656 C 199.335938 163.722656 198.546875 164.511719 198.546875 165.476562 C 198.546875 166.445312 199.335938 167.234375 200.300781 167.234375 " fill-opacity="1" fill-rule="nonzero"/><path fill="#383536" d="M 176.230469 155.175781 L 190.121094 155.175781 L 194.394531 160.160156 L 198.710938 160.160156 L 198.710938 158.605469 L 195.113281 158.605469 L 190.835938 153.617188 L 176.230469 153.617188 L 176.230469 155.175781 " fill-opacity="1" fill-rule="nonzero"/><path fill="#383536" d="M 198.621094 161.140625 C 199.589844 161.140625 200.378906 160.355469 200.378906 159.382812 C 200.378906 158.414062 199.589844 157.628906 198.621094 157.628906 C 197.65625 157.628906 196.867188 158.414062 196.867188 159.382812 C 196.867188 160.355469 197.65625 161.140625 198.621094 161.140625 " fill-opacity="1" fill-rule="nonzero"/><path fill="#383536" d="M 176.230469 135.78125 L 190.835938 135.78125 L 195.113281 130.796875 L 204.59375 130.796875 L 204.59375 129.242188 L 194.394531 129.242188 L 190.121094 134.230469 L 176.230469 134.230469 L 176.230469 135.78125 " fill-opacity="1" fill-rule="nonzero"/><path fill="#383536" d="M 204.5 131.773438 C 205.472656 131.773438 206.253906 130.992188 206.253906 130.019531 C 206.253906 129.050781 205.472656 128.261719 204.5 128.261719 C 203.535156 128.261719 202.746094 129.050781 202.746094 130.019531 C 202.746094 130.992188 203.535156 131.773438 204.5 131.773438 " fill-opacity="1" fill-rule="nonzero"/><path fill="#383536" d="M 176.230469 141.878906 L 190.761719 141.878906 L 196.714844 136.890625 L 200.394531 136.890625 L 200.394531 135.335938 L 196.152344 135.335938 L 190.195312 140.324219 L 176.230469 140.324219 L 176.230469 141.878906 " fill-opacity="1" fill-rule="nonzero"/><path fill="#383536" d="M 200.300781 137.867188 C 201.273438 137.867188 202.0625 137.082031 202.0625 136.113281 C 202.0625 135.140625 201.273438 134.359375 200.300781 134.359375 C 199.335938 134.359375 198.546875 135.140625 198.546875 136.113281 C 198.546875 137.082031 199.335938 137.867188 200.300781 137.867188 " fill-opacity="1" fill-rule="nonzero"/><path fill="#383536" d="M 176.230469 147.972656 L 190.835938 147.972656 L 195.113281 142.984375 L 198.710938 142.984375 L 198.710938 141.425781 L 194.394531 141.425781 L 190.121094 146.414062 L 176.230469 146.414062 L 176.230469 147.972656 " fill-opacity="1" fill-rule="nonzero"/><path fill="#383536" d="M 198.621094 143.964844 C 199.589844 143.964844 200.378906 143.175781 200.378906 142.210938 C 200.378906 141.238281 199.589844 140.453125 198.621094 140.453125 C 197.65625 140.453125 196.867188 141.238281 196.867188 142.210938 C 196.867188 143.175781 197.65625 143.964844 198.621094 143.964844 " fill-opacity="1" fill-rule="nonzero"/><path fill="#383536" d="M 176.230469 151.570312 L 203.75 151.570312 L 203.75 150.015625 L 176.230469 150.015625 Z M 176.230469 151.570312 " fill-opacity="1" fill-rule="nonzero"/><path fill="#383536" d="M 203.664062 152.546875 C 204.632812 152.546875 205.417969 151.761719 205.417969 150.792969 C 205.417969 149.824219 204.632812 149.039062 203.664062 149.039062 C 202.691406 149.039062 201.902344 149.824219 201.902344 150.792969 C 201.902344 151.761719 202.691406 152.546875 203.664062 152.546875 " fill-opacity="1" fill-rule="nonzero"/><path fill="#383536" d="M 132.160156 134.230469 L 118.269531 134.230469 L 113.992188 129.242188 L 103.796875 129.242188 L 103.796875 130.796875 L 113.277344 130.796875 L 117.550781 135.78125 L 132.160156 135.78125 L 132.160156 134.230469 " fill-opacity="1" fill-rule="nonzero"/><path fill="#383536" d="M 103.886719 128.261719 C 102.917969 128.261719 102.132812 129.050781 102.132812 130.019531 C 102.132812 130.992188 102.917969 131.773438 103.886719 131.773438 C 104.855469 131.773438 105.644531 130.992188 105.644531 130.019531 C 105.644531 129.050781 104.855469 128.261719 103.886719 128.261719 " fill-opacity="1" fill-rule="nonzero"/><path fill="#383536" d="M 132.160156 140.324219 L 118.269531 140.324219 L 113.992188 135.335938 L 108 135.335938 L 108 136.890625 L 113.277344 136.890625 L 117.550781 141.878906 L 132.160156 141.878906 L 132.160156 140.324219 " fill-opacity="1" fill-rule="nonzero"/><path fill="#383536" d="M 108.089844 134.359375 C 107.117188 134.359375 106.332031 135.140625 106.332031 136.113281 C 106.332031 137.082031 107.117188 137.867188 108.089844 137.867188 C 109.054688 137.867188 109.84375 137.082031 109.84375 136.113281 C 109.84375 135.140625 109.054688 134.359375 108.089844 134.359375 " fill-opacity="1" fill-rule="nonzero"/><path fill="#383536" d="M 132.160156 146.414062 L 118.269531 146.414062 L 113.992188 141.425781 L 109.679688 141.425781 L 109.679688 142.984375 L 113.277344 142.984375 L 117.550781 147.972656 L 132.160156 147.972656 L 132.160156 146.414062 " fill-opacity="1" fill-rule="nonzero"/><path fill="#383536" d="M 109.765625 140.453125 C 108.796875 140.453125 108.011719 141.238281 108.011719 142.210938 C 108.011719 143.175781 108.796875 143.964844 109.765625 143.964844 C 110.738281 143.964844 111.523438 143.175781 111.523438 142.210938 C 111.523438 141.238281 110.738281 140.453125 109.765625 140.453125 " fill-opacity="1" fill-rule="nonzero"/><path fill="#383536" d="M 132.160156 165.808594 L 117.550781 165.808594 L 113.277344 170.796875 L 103.796875 170.796875 L 103.796875 172.351562 L 113.992188 172.351562 L 118.269531 167.363281 L 132.160156 167.363281 L 132.160156 165.808594 " fill-opacity="1" fill-rule="nonzero"/><path fill="#383536" d="M 103.886719 169.820312 C 102.917969 169.820312 102.132812 170.601562 102.132812 171.574219 C 102.132812 172.539062 102.917969 173.328125 103.886719 173.328125 C 104.855469 173.328125 105.644531 172.539062 105.644531 171.574219 C 105.644531 170.601562 104.855469 169.820312 103.886719 169.820312 " fill-opacity="1" fill-rule="nonzero"/><path fill="#383536" d="M 132.160156 159.714844 L 117.625 159.714844 L 111.671875 164.699219 L 108 164.699219 L 108 166.253906 L 112.238281 166.253906 L 118.191406 161.265625 L 132.160156 161.265625 L 132.160156 159.714844 " fill-opacity="1" fill-rule="nonzero"/><path fill="#383536" d="M 108.089844 163.722656 C 107.117188 163.722656 106.332031 164.511719 106.332031 165.476562 C 106.332031 166.445312 107.117188 167.234375 108.089844 167.234375 C 109.054688 167.234375 109.84375 166.445312 109.84375 165.476562 C 109.84375 164.511719 109.054688 163.722656 108.089844 163.722656 " fill-opacity="1" fill-rule="nonzero"/><path fill="#383536" d="M 132.160156 153.617188 L 117.550781 153.617188 L 113.277344 158.605469 L 109.679688 158.605469 L 109.679688 160.160156 L 113.992188 160.160156 L 118.269531 155.175781 L 132.160156 155.175781 L 132.160156 153.617188 " fill-opacity="1" fill-rule="nonzero"/><path fill="#383536" d="M 109.765625 157.628906 C 108.796875 157.628906 108.011719 158.414062 108.011719 159.382812 C 108.011719 160.355469 108.796875 161.140625 109.765625 161.140625 C 110.738281 161.140625 111.523438 160.355469 111.523438 159.382812 C 111.523438 158.414062 110.738281 157.628906 109.765625 157.628906 " fill-opacity="1" fill-rule="nonzero"/><path fill="#383536" d="M 104.640625 151.574219 L 132.160156 151.574219 L 132.160156 150.015625 L 104.640625 150.015625 Z M 104.640625 151.574219 " fill-opacity="1" fill-rule="nonzero"/><path fill="#383536" d="M 104.726562 149.042969 C 103.757812 149.042969 102.972656 149.824219 102.972656 150.796875 C 102.972656 151.765625 103.757812 152.554688 104.726562 152.554688 C 105.695312 152.554688 106.480469 151.765625 106.480469 150.796875 C 106.480469 149.824219 105.695312 149.042969 104.726562 149.042969 " fill-opacity="1" fill-rule="nonzero"/><path fill="#70cfcc" d="M 279.082031 247.765625 C 293.136719 229.050781 298.699219 213.378906 298.699219 198.996094 C 298.699219 159.972656 270.453125 128.335938 231.425781 128.335938 C 180.40625 128.335938 171.386719 159.480469 167.292969 178.308594 C 165.527344 186.449219 159.382812 192.554688 150.058594 204.984375 C 148.289062 207.347656 145.453125 212.703125 151.238281 212.703125 L 154.398438 212.703125 C 158.007812 212.703125 158.117188 216.609375 156.589844 218.566406 C 153.769531 222.167969 153.046875 226.28125 155.59375 227.757812 C 155.59375 227.757812 153.089844 229.316406 154.378906 233.472656 C 155.210938 236.140625 156.550781 238.3125 156.914062 240.835938 C 156.066406 242.476562 155.390625 244.414062 155.390625 247.457031 C 155.390625 250.84375 156.738281 253.625 163.667969 253.625 L 179.652344 253.625 C 183.1875 253.625 194.609375 252.558594 190.355469 268.878906 C 188.101562 277.542969 181.820312 302.164062 181.820312 302.164062 L 281.289062 302.164062 C 281.289062 302.164062 278.664062 292.625 276.367188 281.53125 C 274.371094 271.910156 269.445312 260.617188 279.082031 247.765625 " fill-opacity="1" fill-rule="nonzero"/><g clip-path="url(#c5848cc06e)"><path fill="#383536" d="M 279.082031 247.765625 L 279.859375 248.347656 C 286.925781 238.933594 291.875 230.261719 295.066406 222.109375 C 298.25 213.953125 299.667969 206.316406 299.667969 198.996094 C 299.667969 179.253906 292.515625 161.34375 280.40625 148.371094 C 268.296875 135.390625 251.207031 127.363281 231.425781 127.363281 C 218.578125 127.363281 208.320312 129.328125 200.101562 132.59375 C 187.769531 137.488281 180.058594 145.34375 175.097656 153.726562 C 170.132812 162.109375 167.890625 171.015625 166.347656 178.101562 C 165.503906 181.988281 163.613281 185.421875 160.722656 189.472656 C 157.832031 193.523438 153.960938 198.167969 149.289062 204.402344 C 148.765625 205.097656 148.167969 206.023438 147.683594 207.027344 C 147.203125 208.039062 146.820312 209.117188 146.816406 210.226562 C 146.816406 210.671875 146.886719 211.128906 147.0625 211.570312 C 147.195312 211.894531 147.390625 212.210938 147.648438 212.480469 C 148.03125 212.890625 148.550781 213.195312 149.140625 213.390625 C 149.746094 213.585938 150.433594 213.671875 151.238281 213.671875 L 154.398438 213.671875 C 154.851562 213.671875 155.195312 213.746094 155.453125 213.855469 C 155.851562 214.023438 156.089844 214.257812 156.273438 214.585938 C 156.453125 214.90625 156.550781 215.324219 156.550781 215.789062 C 156.558594 216.5625 156.265625 217.421875 155.828125 217.96875 C 154.964844 219.078125 154.28125 220.230469 153.804688 221.375 C 153.332031 222.519531 153.058594 223.652344 153.058594 224.726562 C 153.058594 225.503906 153.207031 226.257812 153.542969 226.9375 C 153.875 227.613281 154.410156 228.199219 155.105469 228.601562 L 155.59375 227.757812 L 155.085938 226.9375 C 155.007812 226.988281 154.507812 227.308594 154.015625 228.003906 C 153.515625 228.699219 153.035156 229.785156 153.042969 231.234375 C 153.042969 231.984375 153.167969 232.828125 153.453125 233.761719 C 153.894531 235.164062 154.449219 236.402344 154.921875 237.574219 C 155.398438 238.742188 155.796875 239.839844 155.953125 240.972656 L 156.914062 240.835938 L 156.050781 240.390625 C 155.605469 241.253906 155.195312 242.226562 154.898438 243.378906 C 154.601562 244.535156 154.421875 245.867188 154.421875 247.457031 C 154.421875 248.363281 154.515625 249.273438 154.785156 250.140625 C 154.992188 250.792969 155.308594 251.417969 155.769531 251.984375 C 156.453125 252.824219 157.449219 253.492188 158.742188 253.929688 C 160.039062 254.367188 161.648438 254.589844 163.667969 254.589844 L 179.652344 254.589844 C 180.082031 254.589844 180.585938 254.574219 181.152344 254.574219 C 182.046875 254.574219 183.089844 254.613281 184.132812 254.78125 C 184.917969 254.910156 185.699219 255.117188 186.421875 255.425781 C 187.507812 255.898438 188.449219 256.59375 189.148438 257.6875 C 189.847656 258.785156 190.320312 260.316406 190.320312 262.527344 C 190.320312 264.175781 190.054688 266.195312 189.417969 268.632812 C 187.160156 277.304688 180.878906 301.925781 180.878906 301.925781 L 180.570312 303.132812 L 282.558594 303.132812 L 282.222656 301.910156 C 282.222656 301.910156 282.183594 301.761719 282.109375 301.480469 C 281.574219 299.515625 279.316406 291.011719 277.316406 281.335938 C 276.203125 276.011719 274.285156 270.355469 274.289062 264.34375 C 274.289062 261.832031 274.621094 259.257812 275.480469 256.601562 C 276.332031 253.945312 277.71875 251.195312 279.859375 248.347656 L 278.308594 247.1875 C 276.050781 250.191406 274.554688 253.140625 273.632812 256.007812 C 272.710938 258.871094 272.355469 261.664062 272.355469 264.34375 C 272.363281 270.765625 274.355469 276.578125 275.414062 281.726562 C 277.71875 292.855469 280.351562 302.410156 280.351562 302.421875 L 281.289062 302.164062 L 281.289062 301.199219 L 181.820312 301.199219 L 181.820312 302.164062 L 182.757812 302.40625 C 182.757812 302.40625 182.855469 302.019531 183.03125 301.328125 C 184.265625 296.5 189.316406 276.695312 191.292969 269.125 C 191.960938 266.558594 192.261719 264.386719 192.261719 262.527344 C 192.261719 260.316406 191.832031 258.546875 191.078125 257.148438 C 190.515625 256.105469 189.773438 255.28125 188.941406 254.65625 C 187.691406 253.722656 186.269531 253.222656 184.898438 252.957031 C 183.535156 252.683594 182.214844 252.640625 181.152344 252.640625 C 180.554688 252.640625 180.039062 252.652344 179.652344 252.652344 L 163.667969 252.652344 C 162 252.652344 160.703125 252.484375 159.714844 252.207031 C 158.976562 251.992188 158.414062 251.722656 157.980469 251.417969 C 157.339844 250.957031 156.964844 250.429688 156.710938 249.777344 C 156.464844 249.125 156.355469 248.335938 156.363281 247.457031 C 156.363281 246.007812 156.519531 244.851562 156.773438 243.859375 C 157.03125 242.871094 157.378906 242.050781 157.773438 241.273438 L 157.921875 241.003906 L 157.871094 240.695312 C 157.671875 239.304688 157.210938 238.054688 156.71875 236.84375 C 156.226562 235.628906 155.699219 234.445312 155.308594 233.1875 L 155.246094 233 L 155.308594 233.1875 C 155.070312 232.414062 154.980469 231.773438 154.980469 231.234375 C 154.980469 230.199219 155.296875 229.546875 155.589844 229.128906 C 155.742188 228.914062 155.890625 228.769531 155.988281 228.683594 C 156.042969 228.632812 156.078125 228.605469 156.101562 228.589844 L 156.117188 228.574219 L 155.898438 228.253906 L 156.105469 228.585938 L 156.117188 228.574219 L 155.898438 228.253906 L 156.105469 228.585938 L 157.476562 227.730469 L 156.078125 226.921875 C 155.699219 226.699219 155.453125 226.425781 155.273438 226.074219 C 155.097656 225.714844 154.996094 225.265625 154.996094 224.726562 C 154.996094 223.984375 155.195312 223.074219 155.589844 222.121094 C 155.992188 221.15625 156.589844 220.140625 157.355469 219.164062 C 158.082031 218.21875 158.484375 217.007812 158.492188 215.789062 C 158.492188 214.816406 158.21875 213.808594 157.523438 213.007812 C 157.175781 212.617188 156.726562 212.285156 156.199219 212.070312 C 155.667969 211.851562 155.070312 211.738281 154.398438 211.738281 L 151.238281 211.738281 C 150.65625 211.738281 150.199219 211.671875 149.863281 211.578125 C 149.351562 211.433594 149.121094 211.25 148.972656 211.054688 C 148.835938 210.863281 148.753906 210.605469 148.75 210.226562 C 148.746094 209.601562 149.015625 208.71875 149.429688 207.863281 C 149.84375 207.003906 150.378906 206.167969 150.835938 205.566406 C 155.480469 199.367188 159.34375 194.742188 162.300781 190.597656 C 165.25 186.457031 167.320312 182.769531 168.242188 178.511719 C 170.28125 169.132812 173.527344 156.835938 182.480469 146.910156 C 186.964844 141.941406 192.863281 137.554688 200.816406 134.390625 C 208.765625 131.230469 218.765625 129.300781 231.425781 129.300781 C 250.675781 129.304688 267.222656 137.089844 278.988281 149.691406 C 290.757812 162.292969 297.726562 179.71875 297.726562 198.996094 C 297.726562 206.058594 296.367188 213.449219 293.261719 221.402344 C 290.152344 229.359375 285.296875 237.886719 278.308594 247.1875 L 279.082031 247.765625 " fill-opacity="1" fill-rule="nonzero"/></g><path fill="#383536" d="M 173.152344 160.765625 L 215.96875 160.765625 L 215.96875 151.839844 L 213.558594 151.839844 L 213.558594 158.351562 L 173.152344 158.351562 L 173.152344 160.765625 " fill-opacity="1" fill-rule="nonzero"/><path fill="#383536" d="M 217.492188 151.984375 C 217.492188 150.476562 216.269531 149.253906 214.761719 149.253906 C 213.265625 149.253906 212.042969 150.476562 212.042969 151.984375 C 212.042969 153.480469 213.265625 154.703125 214.761719 154.703125 C 216.269531 154.703125 217.492188 153.480469 217.492188 151.984375 " fill-opacity="1" fill-rule="nonzero"/><path fill="#383536" d="M 186.839844 142.632812 L 221.582031 142.632812 L 221.582031 135.75 L 219.164062 135.75 L 219.164062 140.214844 L 186.839844 140.214844 L 186.839844 142.632812 " fill-opacity="1" fill-rule="nonzero"/><path fill="#383536" d="M 223.09375 135.886719 C 223.09375 134.378906 221.875 133.164062 220.371094 133.164062 C 218.871094 133.164062 217.648438 134.378906 217.648438 135.886719 C 217.648438 137.390625 218.871094 138.605469 220.371094 138.605469 C 221.875 138.605469 223.09375 137.390625 223.09375 135.886719 " fill-opacity="1" fill-rule="nonzero"/><path fill="#383536" d="M 277.710938 194.859375 L 288.164062 194.859375 L 288.164062 175.035156 L 285.753906 175.035156 L 285.753906 192.445312 L 277.710938 192.445312 L 277.710938 194.859375 " fill-opacity="1" fill-rule="nonzero"/><path fill="#383536" d="M 289.679688 175.167969 C 289.679688 173.664062 288.464844 172.449219 286.960938 172.449219 C 285.453125 172.449219 284.238281 173.664062 284.238281 175.167969 C 284.238281 176.667969 285.453125 177.890625 286.960938 177.890625 C 288.464844 177.890625 289.679688 176.667969 289.679688 175.167969 " fill-opacity="1" fill-rule="nonzero"/><path fill="#383536" d="M 248.855469 222.21875 L 248.855469 206.878906 L 229.023438 206.878906 L 229.023438 209.292969 L 246.441406 209.292969 L 246.441406 222.21875 L 248.855469 222.21875 " fill-opacity="1" fill-rule="nonzero"/><path fill="#383536" d="M 229.160156 205.363281 C 227.65625 205.363281 226.4375 206.582031 226.4375 208.085938 C 226.4375 209.589844 227.65625 210.808594 229.160156 210.808594 C 230.664062 210.808594 231.882812 209.589844 231.882812 208.085938 C 231.882812 206.582031 230.664062 205.363281 229.160156 205.363281 " fill-opacity="1" fill-rule="nonzero"/><path fill="#383536" d="M 226.433594 189.625 L 228.851562 189.625 L 228.851562 128.609375 L 226.433594 128.609375 Z M 226.433594 189.625 " fill-opacity="1" fill-rule="nonzero"/><path fill="#383536" d="M 224.917969 189.492188 C 224.917969 190.996094 226.140625 192.210938 227.644531 192.210938 C 229.144531 192.210938 230.367188 190.996094 230.367188 189.492188 C 230.367188 187.984375 229.144531 186.769531 227.644531 186.769531 C 226.140625 186.769531 224.917969 187.984375 224.917969 189.492188 " fill-opacity="1" fill-rule="nonzero"/><path fill="#383536" d="M 213.769531 218.222656 L 238.296875 218.222656 L 238.296875 215.804688 L 213.769531 215.804688 Z M 213.769531 218.222656 " fill-opacity="1" fill-rule="nonzero"/><path fill="#383536" d="M 238.164062 219.734375 C 239.660156 219.734375 240.882812 218.515625 240.882812 217.011719 C 240.882812 215.507812 239.660156 214.289062 238.164062 214.289062 C 236.65625 214.289062 235.441406 215.507812 235.441406 217.011719 C 235.441406 218.515625 236.65625 219.734375 238.164062 219.734375 " fill-opacity="1" fill-rule="nonzero"/><path fill="#383536" d="M 255.167969 218.222656 L 295.890625 218.222656 L 295.890625 215.804688 L 255.167969 215.804688 Z M 255.167969 218.222656 " fill-opacity="1" fill-rule="nonzero"/><path fill="#383536" d="M 255.300781 214.289062 C 253.796875 214.289062 252.582031 215.507812 252.582031 217.011719 C 252.582031 218.515625 253.796875 219.734375 255.300781 219.734375 C 256.808594 219.734375 258.023438 218.515625 258.023438 217.011719 C 258.023438 215.507812 256.808594 214.289062 255.300781 214.289062 " fill-opacity="1" fill-rule="nonzero"/><path fill="#383536" d="M 246.832031 179.261719 L 249.246094 179.261719 L 249.246094 159.789062 L 246.832031 159.789062 Z M 246.832031 179.261719 " fill-opacity="1" fill-rule="nonzero"/><path fill="#383536" d="M 245.316406 179.125 C 245.316406 180.625 246.535156 181.847656 248.039062 181.847656 C 249.542969 181.847656 250.761719 180.625 250.761719 179.125 C 250.761719 177.621094 249.542969 176.398438 248.039062 176.398438 C 246.535156 176.398438 245.316406 177.621094 245.316406 179.125 " fill-opacity="1" fill-rule="nonzero"/><path fill="#383536" d="M 220.941406 199.148438 L 249.996094 199.148438 L 249.996094 196.738281 L 220.941406 196.738281 Z M 220.941406 199.148438 " fill-opacity="1" fill-rule="nonzero"/><path fill="#383536" d="M 249.859375 200.664062 C 251.363281 200.664062 252.582031 199.449219 252.582031 197.945312 C 252.582031 196.4375 251.363281 195.222656 249.859375 195.222656 C 248.355469 195.222656 247.132812 196.4375 247.132812 197.945312 C 247.132812 199.449219 248.355469 200.664062 249.859375 200.664062 " fill-opacity="1" fill-rule="nonzero"/><path fill="#383536" d="M 268.277344 168.152344 L 291.347656 168.152344 L 291.347656 165.738281 L 268.277344 165.738281 Z M 268.277344 168.152344 " fill-opacity="1" fill-rule="nonzero"/><path fill="#383536" d="M 268.410156 164.222656 C 266.90625 164.222656 265.691406 165.441406 265.691406 166.945312 C 265.691406 168.449219 266.90625 169.667969 268.410156 169.667969 C 269.917969 169.667969 271.132812 168.449219 271.132812 166.945312 C 271.132812 165.441406 269.917969 164.222656 268.410156 164.222656 " fill-opacity="1" fill-rule="nonzero"/><path fill="#383536" d="M 233.722656 160.765625 L 287.742188 160.765625 L 287.742188 158.351562 L 233.722656 158.351562 Z M 233.722656 160.765625 " fill-opacity="1" fill-rule="nonzero"/><path fill="#383536" d="M 233.859375 156.835938 C 232.355469 156.835938 231.136719 158.054688 231.136719 159.554688 C 231.136719 161.0625 232.355469 162.285156 233.859375 162.285156 C 235.363281 162.285156 236.582031 161.0625 236.582031 159.554688 C 236.582031 158.054688 235.363281 156.835938 233.859375 156.835938 " fill-opacity="1" fill-rule="nonzero"/><path fill="#383536" d="M 263.738281 135.335938 L 237.070312 135.335938 L 237.070312 146.667969 L 239.488281 146.667969 L 239.488281 137.75 L 263.738281 137.75 L 263.738281 135.335938 " fill-opacity="1" fill-rule="nonzero"/><path fill="#383536" d="M 235.558594 146.535156 C 235.558594 148.039062 236.777344 149.253906 238.28125 149.253906 C 239.785156 149.253906 241.003906 148.039062 241.003906 146.535156 C 241.003906 145.027344 239.785156 143.8125 238.28125 143.8125 C 236.777344 143.8125 235.558594 145.027344 235.558594 146.535156 " fill-opacity="1" fill-rule="nonzero"/><path fill="#383536" d="M 282.097656 150.960938 L 249.246094 150.960938 L 249.246094 144.898438 L 246.832031 144.898438 L 246.832031 153.378906 L 282.097656 153.378906 L 282.097656 150.960938 " fill-opacity="1" fill-rule="nonzero"/><path fill="#383536" d="M 250.761719 145.035156 C 250.761719 143.535156 249.542969 142.3125 248.039062 142.3125 C 246.535156 142.3125 245.316406 143.535156 245.316406 145.035156 C 245.316406 146.539062 246.535156 147.761719 248.039062 147.761719 C 249.542969 147.761719 250.761719 146.539062 250.761719 145.035156 " fill-opacity="1" fill-rule="nonzero"/><path fill="#383536" d="M 296.792969 209.378906 L 270.222656 209.378906 L 270.222656 183.160156 L 267.808594 183.160156 L 267.808594 211.792969 L 296.792969 211.792969 L 296.792969 209.378906 " fill-opacity="1" fill-rule="nonzero"/><path fill="#383536" d="M 271.738281 183.296875 C 271.738281 181.796875 270.515625 180.574219 269.015625 180.574219 C 267.511719 180.574219 266.292969 181.796875 266.292969 183.296875 C 266.292969 184.800781 267.511719 186.023438 269.015625 186.023438 C 270.515625 186.023438 271.738281 184.800781 271.738281 183.296875 " fill-opacity="1" fill-rule="nonzero"/><path fill="#383536" d="M 293.503906 221.011719 L 214.980469 221.011719 L 214.980469 176.25 L 212.5625 176.25 L 212.5625 223.421875 L 293.503906 223.421875 L 293.503906 221.011719 " fill-opacity="1" fill-rule="nonzero"/><path fill="#383536" d="M 216.496094 176.386719 C 216.496094 174.886719 215.273438 173.664062 213.769531 173.664062 C 212.265625 173.664062 211.046875 174.886719 211.046875 176.386719 C 211.046875 177.890625 212.265625 179.113281 213.769531 179.113281 C 215.273438 179.113281 216.496094 177.890625 216.496094 176.386719 " fill-opacity="1" fill-rule="nonzero"/><path fill="#383536" d="M 181.753906 147.480469 L 200.46875 147.480469 L 200.46875 152.472656 L 202.882812 152.472656 L 202.882812 145.0625 L 181.753906 145.0625 L 181.753906 147.480469 " fill-opacity="1" fill-rule="nonzero"/><path fill="#383536" d="M 198.953125 152.335938 C 198.953125 153.839844 200.171875 155.058594 201.675781 155.058594 C 203.179688 155.058594 204.398438 153.839844 204.398438 152.335938 C 204.398438 150.832031 203.179688 149.613281 201.675781 149.613281 C 200.171875 149.613281 198.953125 150.832031 198.953125 152.335938 " fill-opacity="1" fill-rule="nonzero"/><path fill="#383536" d="M 259.441406 175.847656 L 276.507812 175.847656 L 276.507812 205.023438 L 278.917969 205.023438 L 278.917969 173.429688 L 259.441406 173.429688 L 259.441406 175.847656 " fill-opacity="1" fill-rule="nonzero"/><path fill="#383536" d="M 274.992188 204.886719 C 274.992188 206.390625 276.207031 207.609375 277.710938 207.609375 C 279.21875 207.609375 280.433594 206.390625 280.433594 204.886719 C 280.433594 203.386719 279.21875 202.164062 277.710938 202.164062 C 276.207031 202.164062 274.992188 203.386719 274.992188 204.886719 " fill-opacity="1" fill-rule="nonzero"/><path fill="#383536" d="M 259.441406 190.445312 L 238.25 190.445312 L 238.25 169.007812 L 235.835938 169.007812 L 235.832031 192.859375 L 259.441406 192.859375 L 259.441406 190.445312 " fill-opacity="1" fill-rule="nonzero"/><path fill="#383536" d="M 239.765625 169.144531 C 239.765625 167.644531 238.546875 166.421875 237.042969 166.421875 C 235.539062 166.421875 234.316406 167.644531 234.316406 169.144531 C 234.316406 170.648438 235.539062 171.871094 237.042969 171.871094 C 238.546875 171.871094 239.765625 170.648438 239.765625 169.144531 " fill-opacity="1" fill-rule="nonzero"/><path fill="#383536" d="M 248.039062 167.628906 L 258.230469 167.628906 L 258.230469 207.136719 L 260.648438 207.136719 L 260.648438 165.21875 L 248.039062 165.21875 L 248.039062 167.628906 " fill-opacity="1" fill-rule="nonzero"/><path fill="#383536" d="M 256.714844 207 C 256.714844 208.503906 257.9375 209.726562 259.441406 209.726562 C 260.941406 209.726562 262.164062 208.503906 262.164062 207 C 262.164062 205.5 260.941406 204.277344 259.441406 204.277344 C 257.9375 204.277344 256.714844 205.5 256.714844 207 " fill-opacity="1" fill-rule="nonzero"/><path fill="#383536" d="M 169.839844 166.804688 L 219.164062 166.804688 L 219.164062 207.585938 L 221.582031 207.585938 L 221.582031 164.390625 L 169.839844 164.390625 L 169.839844 166.804688 " fill-opacity="1" fill-rule="nonzero"/><path fill="#383536" d="M 217.648438 207.449219 C 217.648438 208.957031 218.871094 210.171875 220.371094 210.171875 C 221.875 210.171875 223.09375 208.957031 223.09375 207.449219 C 223.09375 205.953125 221.875 204.730469 220.371094 204.730469 C 218.871094 204.730469 217.648438 205.953125 217.648438 207.449219 " fill-opacity="1" fill-rule="nonzero"/></svg>